{"glyphs":{"0":{"ha":847,"x_min":83,"x_max":764,"o":"m 344 -69 q 246 -56 293 -69 q 163 -14 199 -43 q 105 63 126 15 q 83 179 83 110 l 83 694 q 114 812 83 764 q 191 889 144 860 q 292 931 238 918 q 392 944 346 944 l 456 944 q 567 931 511 944 q 666 888 622 918 q 737 810 710 858 q 764 693 764 763 l 764 192 q 745 87 764 135 q 691 4 726 39 q 604 -50 656 -31 q 489 -69 553 -69 l 344 -69 m 438 117 q 475 127 460 117 q 500 155 490 138 q 513 194 510 172 q 517 239 517 215 l 517 694 q 513 740 517 718 q 499 781 508 763 q 476 809 490 799 q 439 819 461 819 l 378 819 q 335 809 354 819 q 300 781 315 799 q 276 740 285 763 q 268 694 268 718 l 268 239 q 268 194 268 215 q 277 155 268 172 q 310 127 286 138 q 379 117 333 117 l 438 117 z "},"1":{"ha":504,"x_min":42,"x_max":421,"o":"m 421 944 l 421 -69 l 171 -69 l 171 756 l 42 756 l 42 944 l 421 944 z "},"2":{"ha":797,"x_min":26,"x_max":743,"o":"m 26 -69 l 458 438 q 491 486 476 460 q 516 538 506 513 q 532 587 526 564 q 538 626 538 610 l 536 672 q 523 716 536 694 q 490 754 510 738 q 446 781 469 771 q 400 792 422 792 l 363 792 q 318 781 340 792 q 278 754 296 771 q 249 716 260 738 q 238 672 238 694 l 238 646 l 75 646 l 75 683 q 99 792 75 742 q 163 878 122 842 q 261 936 204 915 q 385 957 318 957 q 544 932 476 957 q 656 865 613 907 q 722 767 700 822 q 743 654 743 713 q 738 581 743 614 q 723 517 733 547 q 694 457 713 486 q 649 397 675 428 q 555 297 617 361 q 388 128 493 233 l 726 128 l 726 -69 l 26 -69 z "},"3":{"ha":775,"x_min":31,"x_max":735,"o":"m 661 943 l 422 625 q 548 587 490 614 q 647 516 606 560 q 712 412 689 472 q 735 275 735 351 q 708 128 735 196 q 628 13 681 61 q 499 -62 576 -36 q 324 -87 422 -89 q 252 -77 292 -87 q 172 -49 213 -67 q 94 -9 131 -32 q 31 40 57 14 l 31 263 q 78 204 43 233 q 158 152 114 175 q 247 115 203 129 q 324 101 292 101 q 463 145 411 101 q 514 281 514 189 q 477 398 514 351 q 385 474 440 444 q 267 522 331 504 q 151 553 204 539 l 150 553 l 347 819 l 68 819 l 68 943 l 661 943 z "},"4":{"ha":890,"x_min":75,"x_max":867,"o":"m 867 429 l 867 251 l 643 251 l 643 -85 l 488 -85 l 488 251 l 75 251 l 75 938 l 272 938 l 272 429 l 488 429 l 488 881 l 643 881 l 643 429 l 867 429 z "},"5":{"ha":783,"x_min":79,"x_max":729,"o":"m 383 588 q 510 558 447 579 q 621 495 572 536 q 699 391 669 454 q 729 235 729 328 q 701 86 729 144 q 632 -6 672 28 q 547 -56 592 -40 q 472 -78 503 -72 q 438 -83 461 -81 q 388 -87 415 -86 q 330 -86 360 -87 q 275 -79 300 -85 q 242 -72 264 -78 q 192 -57 219 -67 q 135 -33 165 -47 q 79 1 106 -18 l 79 190 q 108 158 89 175 q 151 124 126 140 q 203 94 175 108 q 261 69 232 79 q 290 62 272 65 q 328 56 308 58 q 365 54 347 54 q 392 56 382 54 q 446 76 424 60 q 481 114 468 92 q 500 161 494 136 q 506 210 506 186 q 501 265 506 236 q 485 319 497 293 q 448 367 472 346 q 385 403 424 389 q 306 422 346 417 q 226 429 265 428 q 151 429 188 431 q 82 426 114 428 l 82 944 l 669 944 l 669 746 l 221 746 l 221 596 q 303 595 268 597 q 383 588 339 593 z "},"6":{"ha":778,"x_min":42,"x_max":717,"o":"m 717 179 q 699 84 717 131 q 647 0 682 38 q 561 -61 613 -37 q 442 -86 510 -85 l 379 -86 q 335 -86 356 -86 q 313 -85 315 -86 q 231 -63 271 -81 q 157 -19 190 -46 q 99 45 124 8 q 63 125 74 82 q 56 281 42 200 q 103 428 71 361 l 379 944 l 594 944 l 424 553 q 544 531 490 551 q 637 474 599 511 q 696 383 675 436 q 717 264 717 331 l 717 179 m 572 244 q 541 335 572 294 q 444 375 510 375 l 376 376 q 280 338 317 376 q 243 243 243 299 l 243 197 q 254 147 243 169 q 283 109 265 125 q 324 84 301 93 q 369 75 346 75 l 443 75 q 494 84 471 75 q 535 109 518 93 q 563 147 553 125 q 572 193 572 168 l 572 244 z "},"7":{"ha":768,"x_min":49,"x_max":754,"o":"m 754 942 l 297 -68 l 94 -68 l 490 821 l 49 821 l 49 942 l 754 942 z "},"8":{"ha":779,"x_min":56,"x_max":724,"o":"m 457 946 q 554 931 508 946 q 635 886 600 915 q 690 815 669 857 q 710 719 710 774 l 710 593 q 676 500 703 540 q 624 432 650 460 q 703 357 682 404 q 724 257 724 310 l 724 174 q 699 56 724 104 q 635 -24 674 7 q 550 -70 597 -56 q 457 -85 503 -85 l 324 -85 q 231 -70 279 -85 q 144 -24 183 -56 q 81 56 106 7 q 56 174 56 104 l 56 256 q 81 356 56 308 q 154 432 107 404 q 101 500 128 460 q 69 593 75 540 l 69 719 q 90 815 69 774 q 147 886 111 857 q 228 931 182 915 q 324 946 274 946 l 457 946 m 360 832 q 313 823 335 832 q 274 798 290 814 q 247 762 257 782 q 238 719 238 742 l 238 661 q 247 626 238 646 q 274 588 257 607 q 313 557 290 569 q 360 544 335 544 l 421 544 q 468 557 446 544 q 506 588 490 569 q 531 626 522 607 q 540 661 540 646 l 540 722 q 506 799 540 767 q 421 832 472 832 l 360 832 m 425 106 q 510 138 475 106 q 544 215 544 171 l 544 286 q 535 319 544 301 q 510 353 526 338 q 472 378 494 368 q 425 389 450 389 l 364 389 q 315 378 338 389 q 276 353 293 368 q 251 319 260 338 q 242 286 242 301 l 242 215 q 276 138 242 171 q 364 106 311 106 l 425 106 z "},"9":{"ha":744,"x_min":46,"x_max":719,"o":"m 693 761 q 702 575 719 668 q 636 407 685 482 l 324 -71 l 114 -71 l 331 321 q 305 322 321 321 q 271 326 289 324 q 238 331 253 328 q 214 336 222 333 q 93 423 140 360 q 46 576 46 486 l 46 676 q 65 781 46 732 q 121 867 85 831 q 208 924 157 903 q 324 944 260 944 l 439 944 q 595 901 525 944 q 693 761 665 857 m 192 607 q 223 523 192 549 q 299 494 254 497 l 388 490 q 433 497 410 489 q 474 518 456 504 q 504 551 493 532 q 515 594 515 571 l 515 654 q 504 714 515 689 q 475 755 493 739 q 435 778 457 771 q 390 786 413 786 l 306 786 q 263 776 283 786 q 227 751 243 767 q 201 713 211 735 q 192 669 192 692 l 192 607 z "},"\u0000":{"ha":458,"x_min":0,"x_max":0,"o":""},"!":{"ha":499,"x_min":146,"x_max":353,"o":"m 146 943 l 353 943 l 353 168 l 146 168 l 146 943 m 344 43 l 344 -125 l 157 -125 l 157 43 l 344 43 z "},"\"":{"ha":540,"x_min":76,"x_max":465,"o":"m 229 933 l 201 697 l 76 697 l 76 933 l 229 933 m 465 933 l 438 697 l 313 697 l 313 933 l 465 933 z "},"#":{"ha":1043,"x_min":56,"x_max":988,"o":"m 917 942 l 869 726 l 988 726 l 988 588 l 839 588 l 785 338 l 946 338 l 946 199 l 756 199 l 697 -71 l 493 -71 l 553 199 l 378 199 l 317 -71 l 114 -71 l 178 199 l 56 199 l 56 338 l 210 338 l 269 588 l 97 588 l 97 726 l 301 726 l 353 942 l 549 942 l 499 726 l 671 726 l 719 942 l 917 942 m 410 338 l 585 338 l 640 588 l 467 588 l 410 338 z "},"$":{"ha":874,"x_min":69,"x_max":825,"o":"m 556 -181 l 353 -181 l 353 -64 q 213 -31 281 -56 q 82 31 144 -7 l 82 242 q 207 175 140 206 q 353 132 274 144 l 353 372 q 256 403 294 390 q 193 428 217 417 q 98 507 126 456 q 69 622 69 558 q 147 803 69 738 q 353 883 225 869 l 353 983 l 556 983 l 556 878 q 760 794 669 857 l 760 610 q 667 669 719 643 q 556 710 614 694 l 556 496 q 667 457 617 478 q 752 403 717 436 q 806 321 788 371 q 824 193 825 271 q 800 92 822 135 q 742 19 778 49 q 658 -30 706 -11 q 556 -58 610 -49 l 556 -181 m 636 218 q 615 274 639 251 q 556 313 590 297 l 556 133 q 612 160 592 140 q 636 218 632 179 m 282 622 q 302 586 282 603 q 353 556 322 569 l 353 711 q 282 622 282 688 z "},"%":{"ha":1018,"x_min":49,"x_max":969,"o":"m 868 900 l 356 -29 l 178 -29 l 694 900 l 868 900 m 715 -125 q 664 -118 690 -125 q 615 -95 638 -111 q 578 -53 593 -79 q 564 11 564 -28 l 564 181 q 577 239 564 211 q 611 286 590 267 q 660 317 632 306 q 717 329 688 329 l 838 329 q 939 285 908 329 q 969 165 969 240 l 969 10 q 959 -46 969 -21 q 932 -88 949 -71 q 893 -115 915 -106 q 846 -125 871 -125 l 715 -125 m 797 -31 q 840 -10 829 -31 q 850 31 850 10 l 850 161 q 839 203 850 185 q 792 222 828 222 l 765 222 q 731 215 743 222 q 712 197 718 208 q 704 174 706 186 q 703 149 703 161 l 703 44 q 703 24 703 36 q 710 -1 704 11 q 726 -22 715 -12 q 758 -31 738 -31 l 797 -31 m 186 493 q 137 500 161 493 q 93 523 113 507 q 61 565 74 539 q 49 629 49 590 l 49 799 q 59 857 49 829 q 88 904 69 885 q 133 935 107 924 q 188 947 158 947 l 308 947 q 417 903 379 947 q 454 783 454 858 l 454 628 q 441 572 454 597 q 408 530 428 547 q 363 503 388 513 q 313 493 338 493 l 186 493 m 263 588 q 308 608 294 588 q 321 649 321 628 l 321 779 q 310 822 321 803 q 263 840 299 840 l 236 840 q 201 833 214 840 q 183 815 189 826 q 175 792 176 804 q 174 767 174 779 l 174 663 q 174 642 174 654 q 178 617 174 629 q 192 597 182 606 q 224 588 203 588 l 263 588 z "},"&":{"ha":903,"x_min":42,"x_max":889,"o":"m 290 -101 q 205 -90 249 -101 q 124 -55 161 -79 q 65 9 88 -31 q 42 106 42 49 l 42 296 q 50 361 42 336 q 72 403 58 386 q 104 431 86 419 q 142 458 122 443 q 113 510 124 481 q 103 579 103 539 l 103 732 q 119 818 103 779 q 165 885 136 857 q 232 928 193 913 q 317 943 271 943 l 417 943 q 573 885 521 943 q 625 732 625 828 l 625 576 q 610 488 625 521 q 561 433 596 454 q 604 391 589 411 q 635 336 619 371 l 664 271 l 724 357 l 889 358 l 731 126 l 831 -85 l 667 -85 l 618 18 q 411 -101 518 -101 l 290 -101 m 388 42 q 460 69 425 42 q 544 151 496 97 l 492 268 q 463 317 476 299 q 434 346 449 336 q 403 359 419 356 q 369 363 388 363 l 310 363 q 244 340 269 363 q 219 286 219 318 l 219 125 q 246 67 219 92 q 322 42 272 42 l 388 42 m 390 522 q 449 541 431 522 q 467 596 467 560 l 467 736 q 445 785 467 764 q 390 807 424 807 l 353 807 q 299 785 321 807 q 278 736 278 764 l 278 596 q 296 544 278 565 q 353 522 314 522 l 390 522 z "},"'":{"ha":264,"x_min":63,"x_max":215,"o":"m 215 933 l 188 697 l 63 697 l 63 933 l 215 933 z "},"(":{"ha":514,"x_min":90,"x_max":438,"o":"m 290 -228 q 193 -103 232 -168 q 131 30 154 -39 q 99 173 108 99 q 90 328 90 247 q 103 477 90 394 q 143 644 117 560 q 210 806 169 728 q 304 943 250 885 l 438 943 q 321 645 358 797 q 283 331 283 493 q 292 181 283 251 q 319 42 301 110 q 365 -92 338 -26 q 428 -228 392 -158 l 290 -228 z "},")":{"ha":514,"x_min":76,"x_max":424,"o":"m 86 -228 q 148 -92 121 -158 q 193 42 175 -25 q 221 181 211 110 q 231 331 231 251 q 193 645 231 493 q 76 943 156 797 l 210 943 q 304 806 264 885 q 371 644 344 728 q 410 477 397 560 q 424 328 424 394 q 414 174 424 249 q 381 29 404 99 q 320 -104 358 -40 q 224 -228 282 -168 l 86 -228 z "},"*":{"ha":732,"x_min":42,"x_max":690,"o":"m 690 485 l 690 374 l 485 374 l 582 222 l 469 146 l 365 303 l 265 146 l 150 222 l 250 374 l 42 374 l 42 485 l 250 485 l 150 635 l 265 713 l 365 554 l 469 713 l 582 635 l 485 485 l 690 485 z "},"+":{"ha":590,"x_min":42,"x_max":549,"o":"m 372 685 l 372 493 l 549 493 l 549 343 l 372 343 l 372 158 l 207 158 l 207 343 l 42 343 l 42 493 l 207 493 l 207 685 l 372 685 z "},",":{"ha":297,"x_min":69,"x_max":228,"o":"m 69 -175 q 110 -126 92 -153 q 132 -57 129 -99 l 69 -57 l 69 83 l 228 83 l 228 -32 q 195 -134 228 -85 q 110 -215 163 -183 l 69 -175 z "},"-":{"ha":578,"x_min":63,"x_max":515,"o":"m 515 494 l 515 350 l 63 350 l 63 494 l 515 494 z "},".":{"ha":292,"x_min":69,"x_max":222,"o":"m 222 83 l 222 -69 l 69 -69 l 69 83 l 222 83 z "},"/":{"ha":560,"x_min":39,"x_max":521,"o":"m 521 942 l 233 -71 l 39 -71 l 333 942 l 521 942 z "},":":{"ha":292,"x_min":69,"x_max":222,"o":"m 222 236 l 222 83 l 69 83 l 69 236 l 222 236 m 222 681 l 222 528 l 69 528 l 69 681 l 222 681 z "},";":{"ha":297,"x_min":69,"x_max":228,"o":"m 222 681 l 222 528 l 69 528 l 69 681 l 222 681 m 69 -22 q 110 27 92 0 q 132 96 129 54 l 69 96 l 69 236 l 228 236 l 228 121 q 195 19 228 68 q 110 -62 163 -31 l 69 -22 z "},"<":{"ha":636,"x_min":69,"x_max":553,"o":"m 69 239 l 69 467 l 553 881 l 553 671 q 467 588 508 626 q 388 515 425 550 q 324 458 356 486 q 268 406 293 429 q 226 368 243 383 q 204 351 208 353 q 226 337 208 351 q 268 299 243 322 q 324 247 293 276 q 388 188 356 218 q 467 110 425 151 q 553 24 508 69 l 553 -179 l 69 239 z "},"=":{"ha":728,"x_min":64,"x_max":656,"o":"m 656 338 l 656 199 l 64 199 l 64 338 l 656 338 m 656 615 l 656 476 l 64 476 l 64 615 l 656 615 z "},">":{"ha":636,"x_min":83,"x_max":567,"o":"m 83 -179 l 83 24 q 169 110 128 69 q 249 188 211 151 q 310 247 279 218 q 367 299 342 276 q 410 337 393 322 q 432 351 428 351 q 410 368 428 353 q 367 406 393 383 q 310 458 342 429 q 249 515 279 486 q 169 588 211 550 q 83 671 128 626 l 83 881 l 567 467 l 567 239 l 83 -179 z "},"?":{"ha":726,"x_min":65,"x_max":668,"o":"m 469 157 l 292 157 l 488 590 q 499 632 496 608 q 499 679 501 656 q 487 725 496 703 q 463 765 478 747 q 357 807 418 807 q 305 797 324 807 q 267 765 286 786 q 229 660 229 724 l 65 660 q 147 863 65 781 q 357 943 233 943 q 480 924 421 943 q 582 865 539 904 q 631 801 611 839 q 660 720 651 763 q 665 635 668 678 q 643 554 661 592 l 469 157 m 464 46 l 464 -114 l 282 -114 l 282 46 l 464 46 z "},"@":{"ha":1024,"x_min":69,"x_max":954,"o":"m 736 310 q 747 260 736 279 q 770 235 757 240 q 794 243 783 231 q 804 288 804 256 l 804 628 q 789 678 804 654 q 751 719 774 701 q 699 748 728 738 q 644 758 671 758 l 414 758 q 358 748 388 758 q 304 719 329 738 q 263 678 279 701 q 247 628 247 654 l 247 165 q 260 110 247 138 q 297 63 274 83 q 350 28 319 42 q 414 15 381 15 l 883 15 l 883 -125 l 388 -125 q 286 -111 342 -125 q 183 -65 231 -97 q 102 21 135 -32 q 69 151 69 74 l 69 643 q 100 766 69 711 q 180 860 131 821 q 290 922 229 900 q 413 943 351 943 l 638 943 q 764 922 706 943 q 865 860 822 900 q 931 766 907 821 q 954 643 954 711 l 954 256 q 927 154 954 189 q 863 104 900 119 q 802 94 835 93 q 739 103 769 94 q 684 131 708 113 q 649 172 660 149 q 605 134 631 147 q 556 121 579 121 l 449 121 q 406 130 428 121 q 365 158 383 139 q 335 206 347 176 q 324 278 324 236 l 324 461 q 335 524 324 494 q 367 575 346 553 q 415 610 388 597 q 476 624 443 624 l 540 624 q 576 618 554 624 q 614 597 599 613 l 614 654 l 736 654 l 736 310 m 618 453 q 602 502 618 481 q 551 524 586 524 l 526 524 q 489 502 503 524 q 475 453 475 481 l 475 296 q 487 244 475 267 q 539 222 499 222 l 551 222 q 600 247 582 222 q 618 296 618 271 l 618 453 z "},"A":{"ha":963,"x_min":24,"x_max":939,"o":"m 247 -69 l 24 -69 l 385 943 l 581 943 l 939 -69 l 754 -69 l 692 140 l 317 140 l 247 -69 m 372 260 l 632 260 l 506 689 l 503 689 l 372 260 z "},"B":{"ha":896,"x_min":79,"x_max":851,"o":"m 79 942 l 492 942 q 653 920 589 942 q 754 862 717 899 q 806 778 792 825 q 821 682 821 732 q 807 591 821 628 q 773 530 793 554 q 731 492 753 506 q 692 471 708 479 q 818 375 785 435 q 849 232 851 315 q 735 5 843 79 q 442 -69 626 -69 l 79 -69 l 79 942 m 308 529 l 499 529 q 574 538 539 529 q 635 565 610 547 q 676 612 661 583 q 690 678 690 640 q 639 780 690 746 q 492 814 588 814 l 308 814 l 308 529 m 314 99 l 515 99 q 597 112 563 99 q 655 147 632 125 q 689 197 678 169 q 700 254 700 225 q 686 322 700 293 q 648 370 672 351 q 592 399 624 389 q 526 408 561 408 l 314 408 l 314 99 z "},"C":{"ha":903,"x_min":65,"x_max":858,"o":"m 858 240 q 835 111 858 168 q 769 14 811 54 q 671 -48 728 -26 q 547 -69 614 -69 l 360 -69 q 263 -56 314 -69 q 167 -9 211 -42 q 94 78 124 24 q 65 215 65 133 l 65 626 q 88 749 65 692 q 154 849 111 807 q 258 917 197 892 q 397 942 319 942 l 550 942 q 655 924 607 942 q 740 877 703 907 q 805 806 778 847 q 849 715 832 764 l 658 656 q 606 719 640 694 q 532 743 572 743 l 426 743 q 364 730 390 743 q 320 696 338 717 q 294 648 303 675 q 286 594 286 621 l 286 263 q 291 199 286 228 q 310 150 296 171 q 348 117 324 129 q 411 106 372 106 l 529 106 q 624 145 593 106 q 658 240 654 185 l 858 240 z "},"D":{"ha":918,"x_min":79,"x_max":853,"o":"m 79 942 l 499 942 q 619 928 557 942 q 734 877 682 914 q 819 776 786 840 q 851 613 853 713 l 850 278 q 815 120 850 186 q 726 13 781 54 q 604 -49 671 -29 q 475 -69 538 -69 l 79 -69 l 79 942 m 675 561 q 628 699 675 656 q 467 743 582 743 l 303 743 l 303 150 l 479 150 q 552 158 517 150 q 615 183 588 165 q 658 232 642 201 q 675 310 675 263 l 675 561 z "},"E":{"ha":833,"x_min":86,"x_max":775,"o":"m 775 782 l 315 782 l 315 535 l 694 535 l 694 397 l 315 397 l 315 83 l 775 83 l 775 -68 l 86 -68 l 86 942 l 775 942 l 775 782 z "},"F":{"ha":788,"x_min":79,"x_max":757,"o":"m 757 804 l 314 804 l 314 526 l 704 526 l 704 392 l 314 392 l 314 -69 l 79 -69 l 79 942 l 757 942 l 757 804 z "},"G":{"ha":908,"x_min":65,"x_max":850,"o":"m 850 468 l 850 243 q 786 15 850 92 q 592 -72 722 -61 q 491 -76 542 -78 q 376 -72 440 -75 q 264 -52 319 -71 q 165 4 208 -33 q 93 100 121 42 q 65 239 65 158 l 65 624 q 89 749 65 690 q 158 849 113 807 q 267 917 203 892 q 413 942 331 942 l 511 942 q 633 925 579 942 q 726 878 686 908 q 793 806 765 847 q 838 715 821 765 l 640 656 q 622 690 632 674 q 598 719 613 707 q 563 738 583 731 q 513 744 543 744 l 428 744 q 315 704 353 744 q 276 608 276 664 l 276 260 q 313 141 276 181 q 415 101 349 101 l 510 101 q 587 115 558 101 q 630 154 615 129 q 649 213 644 179 q 653 288 653 247 l 651 350 l 488 350 l 488 468 l 850 468 z "},"H":{"ha":947,"x_min":79,"x_max":868,"o":"m 324 386 l 324 -69 l 79 -69 l 79 943 l 324 943 l 324 540 l 679 540 l 679 943 l 868 943 l 868 -69 l 679 -69 l 679 386 l 324 386 z "},"I":{"ha":361,"x_min":79,"x_max":282,"o":"m 282 -69 l 79 -69 l 79 942 l 282 942 l 282 -69 z "},"J":{"ha":764,"x_min":38,"x_max":692,"o":"m 475 942 l 692 942 l 692 219 q 610 -21 692 57 q 375 -99 529 -99 q 181 -62 249 -99 q 81 32 113 -26 q 43 163 49 90 q 38 308 38 235 l 235 308 q 238 204 235 249 q 254 130 242 160 q 291 85 267 100 q 357 71 315 71 q 422 83 399 71 q 458 116 446 96 q 472 163 469 136 q 475 219 475 190 l 475 942 z "},"K":{"ha":847,"x_min":79,"x_max":796,"o":"m 796 171 l 796 -68 l 285 306 l 285 -68 l 79 -68 l 79 942 l 285 942 l 285 661 l 778 939 l 778 711 l 396 485 l 796 171 z "},"L":{"ha":810,"x_min":79,"x_max":765,"o":"m 304 78 l 765 78 l 765 -71 l 79 -71 l 79 942 l 304 942 l 304 78 z "},"M":{"ha":1035,"x_min":79,"x_max":956,"o":"m 749 942 l 956 942 l 956 -69 l 749 -69 l 749 678 l 529 485 l 313 676 l 313 -69 l 79 -69 l 79 943 l 313 943 l 532 697 l 749 942 z "},"N":{"ha":975,"x_min":79,"x_max":896,"o":"m 325 -69 l 79 -69 l 79 943 l 325 943 l 693 242 l 693 943 l 896 943 l 896 -69 l 682 -69 l 325 564 l 325 -69 z "},"O":{"ha":918,"x_min":65,"x_max":853,"o":"m 369 -69 q 270 -56 324 -69 q 171 -9 217 -42 q 95 76 125 24 q 65 207 65 129 l 65 642 q 92 765 65 710 q 163 860 118 821 q 268 922 208 900 q 394 943 328 943 l 536 943 q 663 922 604 943 q 763 860 721 900 q 829 766 806 821 q 853 643 853 711 l 853 203 q 827 91 853 142 q 760 5 801 40 q 670 -50 719 -31 q 575 -69 621 -69 l 369 -69 m 500 97 q 607 133 567 97 q 647 235 647 168 l 647 628 q 612 719 647 681 q 501 758 576 758 l 424 758 q 310 719 349 758 q 271 626 271 679 l 271 235 q 278 181 271 206 q 303 137 286 156 q 347 108 319 118 q 413 97 374 97 l 500 97 z "},"P":{"ha":892,"x_min":79,"x_max":854,"o":"m 854 597 q 828 460 854 515 q 754 369 801 404 q 641 319 707 335 q 497 303 575 304 l 300 303 l 300 -69 l 79 -69 l 79 944 l 496 944 q 608 934 546 944 q 724 888 669 924 q 817 784 779 853 q 854 597 854 715 m 476 433 q 604 472 560 433 q 649 594 649 511 q 611 718 649 678 q 489 760 574 758 l 300 760 l 300 433 l 476 433 z "},"Q":{"ha":993,"x_min":65,"x_max":972,"o":"m 835 81 q 905 -2 871 38 q 972 -69 939 -42 l 763 -69 l 747 -56 l 708 -15 q 628 -56 678 -43 q 539 -69 579 -69 l 375 -69 q 274 -53 328 -69 q 173 -1 219 -37 q 96 92 126 35 q 65 231 65 149 l 65 650 q 87 774 65 717 q 152 874 108 832 q 262 942 196 917 q 415 967 328 967 l 561 967 q 685 946 625 967 q 791 885 744 925 q 865 785 838 844 q 893 650 893 726 l 893 232 q 888 178 893 201 q 873 138 882 156 q 853 106 864 119 q 835 81 843 92 m 499 106 q 601 119 554 106 q 540 188 564 153 q 503 258 517 224 q 485 322 490 292 q 481 376 481 353 l 656 376 q 674 287 656 332 q 724 213 692 242 q 731 233 726 221 q 735 253 735 244 l 735 608 q 687 728 735 683 q 551 774 639 774 l 431 774 q 315 732 356 774 q 275 636 275 690 l 275 267 q 281 208 275 238 q 301 156 286 179 q 344 119 317 133 q 417 106 372 106 l 499 106 z "},"R":{"ha":921,"x_min":79,"x_max":871,"o":"m 864 -69 l 626 -69 q 642 -33 636 -51 q 650 6 647 -15 q 653 56 653 28 q 654 122 654 83 q 648 212 654 174 q 623 276 642 250 q 569 314 604 301 q 476 326 535 326 l 319 326 l 319 -69 l 79 -69 l 79 942 l 561 942 q 722 909 661 942 q 817 831 783 876 q 860 738 850 786 q 871 656 871 689 q 834 507 871 572 q 722 417 797 442 q 779 388 753 403 q 824 345 806 372 q 853 274 843 318 q 864 160 864 231 l 864 -69 m 506 497 q 628 528 589 497 q 668 635 668 560 q 663 677 668 654 q 641 720 657 700 q 596 753 625 740 q 521 767 567 767 l 319 767 l 319 497 l 506 497 z "},"S":{"ha":869,"x_min":58,"x_max":842,"o":"m 58 260 q 224 175 133 211 q 424 139 315 139 q 497 144 461 139 q 560 159 532 149 q 608 188 589 169 q 631 233 626 206 q 615 291 635 267 q 565 332 594 315 q 504 359 536 349 q 451 374 472 369 q 276 423 343 401 q 189 456 208 444 q 60 661 60 528 q 94 785 60 732 q 182 873 128 838 q 303 926 236 908 q 435 943 369 943 q 612 919 526 943 q 772 843 697 894 l 772 649 q 708 697 743 674 q 633 736 672 719 q 553 762 594 753 q 471 767 511 771 q 363 737 403 760 q 322 661 322 714 q 346 615 322 636 q 402 577 369 593 q 467 550 435 561 q 519 533 500 539 q 650 492 590 513 q 753 438 710 471 q 819 355 796 406 q 839 225 842 304 q 797 90 836 146 q 697 -1 757 35 q 567 -53 638 -36 q 432 -69 496 -69 q 239 -42 339 -69 q 58 36 139 -14 l 58 260 z "},"T":{"ha":925,"x_min":24,"x_max":901,"o":"m 24 943 l 901 943 l 901 729 l 579 729 l 579 -69 l 364 -69 l 364 729 l 24 729 l 24 943 z "},"U":{"ha":976,"x_min":72,"x_max":904,"o":"m 301 936 l 301 271 q 306 231 301 251 q 324 191 311 210 q 360 160 338 172 q 418 149 382 149 l 557 149 q 615 160 592 149 q 653 191 639 172 q 674 233 668 210 q 681 279 681 256 l 681 936 l 904 936 l 904 231 q 878 94 904 151 q 810 1 853 38 q 710 -52 767 -35 q 589 -69 653 -69 l 404 -69 q 267 -45 329 -69 q 160 23 204 -21 q 94 126 117 67 q 76 258 72 186 l 76 936 l 301 936 z "},"V":{"ha":1015,"x_min":24,"x_max":992,"o":"m 24 943 l 272 943 l 361 588 q 394 456 378 521 q 423 338 410 390 q 444 252 436 286 q 451 214 451 218 l 590 588 q 651 755 618 667 q 721 943 685 843 l 992 943 l 569 -69 l 336 -69 l 24 943 z "},"W":{"ha":1342,"x_min":24,"x_max":1318,"o":"m 1117 943 l 1318 943 l 985 -69 l 815 -69 l 671 290 l 526 -69 l 357 -69 l 24 943 l 275 943 l 489 268 l 639 710 l 703 710 l 903 218 l 1117 943 z "},"X":{"ha":951,"x_min":24,"x_max":928,"o":"m 928 -69 l 626 -69 l 440 275 l 261 -69 l 24 -69 l 321 458 l 42 942 l 339 942 l 504 640 l 661 942 l 885 942 l 626 479 l 928 -69 z "},"Y":{"ha":938,"x_min":24,"x_max":914,"o":"m 914 942 l 601 289 l 601 -69 l 332 -69 l 332 304 l 24 942 l 271 942 l 479 472 l 676 942 l 914 942 z "},"Z":{"ha":826,"x_min":51,"x_max":775,"o":"m 775 -69 l 51 -69 l 51 140 l 511 800 l 51 800 l 51 943 l 774 943 l 774 813 l 278 142 l 775 142 l 775 -69 z "},"[":{"ha":468,"x_min":90,"x_max":426,"o":"m 426 999 l 426 874 l 251 874 l 251 -14 l 426 -14 l 426 -139 l 90 -139 l 90 999 l 426 999 z "},"\\":{"ha":607,"x_min":49,"x_max":558,"o":"m 558 942 l 243 -71 l 49 -71 l 371 942 l 558 942 z "},"]":{"ha":468,"x_min":42,"x_max":378,"o":"m 378 999 l 378 -139 l 42 -139 l 42 -14 l 217 -14 l 217 874 l 42 874 l 42 999 l 378 999 z "},"^":{"ha":700,"x_min":19,"x_max":642,"o":"m 233 626 l 19 626 l 236 951 l 425 951 l 642 626 l 472 626 l 367 789 q 353 811 353 807 l 233 626 z "},"_":{"ha":731,"x_min":69,"x_max":661,"o":"m 661 3 l 661 -122 l 69 -122 l 69 3 l 661 3 z "},"`":{"ha":300,"x_min":49,"x_max":251,"o":"m 210 933 l 251 656 l 118 656 l 49 933 l 210 933 z "},"a":{"ha":735,"x_min":58,"x_max":724,"o":"m 633 192 q 656 58 633 132 q 724 -86 679 -15 l 560 -86 l 522 -6 q 465 -52 497 -36 q 399 -68 432 -68 l 233 -68 q 173 -57 204 -68 q 117 -23 142 -46 q 75 36 92 0 q 58 122 58 72 l 58 374 q 72 449 58 414 q 112 512 86 485 q 174 554 138 539 q 258 569 211 569 l 333 569 q 360 567 343 569 q 394 559 376 565 q 430 542 413 553 q 461 515 447 532 l 461 593 l 633 593 l 633 192 m 433 335 q 424 389 433 367 q 399 424 414 411 q 365 444 383 438 q 331 450 347 450 l 293 450 q 236 423 260 450 q 213 363 213 396 l 213 140 q 215 113 213 129 q 225 83 217 97 q 249 60 233 69 q 293 50 265 50 l 339 50 q 407 70 381 50 q 433 140 433 90 l 433 335 z "},"b":{"ha":701,"x_min":72,"x_max":643,"o":"m 463 593 q 530 581 497 593 q 588 545 563 568 q 628 491 613 522 q 643 421 643 460 l 643 121 q 625 47 643 81 q 578 -14 607 13 q 513 -55 549 -40 q 439 -69 476 -69 l 365 -69 q 304 -59 331 -69 q 254 -31 278 -49 l 254 -69 l 72 -69 l 72 942 l 254 942 l 254 553 q 301 582 274 571 q 368 593 328 593 l 463 593 m 426 96 q 503 122 479 96 q 526 190 526 147 l 526 385 q 498 461 526 435 q 426 488 469 488 l 365 488 q 288 459 313 488 q 264 397 264 431 l 264 179 q 273 147 264 163 q 296 121 282 132 q 328 103 310 110 q 363 96 346 96 l 426 96 z "},"c":{"ha":651,"x_min":58,"x_max":593,"o":"m 451 153 l 593 153 l 593 119 q 576 43 593 78 q 532 -17 558 8 q 473 -56 506 -42 q 410 -69 440 -69 l 265 -69 q 197 -60 233 -69 q 131 -28 161 -50 q 79 29 100 -7 q 58 119 58 65 l 58 394 q 81 470 58 438 q 136 524 103 503 q 210 556 169 546 q 289 567 251 567 l 374 567 q 448 549 413 567 q 512 504 483 532 q 559 442 540 476 q 583 375 578 408 l 438 356 q 403 403 431 385 q 346 422 376 422 l 297 422 q 263 416 281 422 q 232 399 246 410 q 209 374 218 388 q 200 343 200 360 l 200 143 q 207 117 200 132 q 227 90 214 103 q 258 67 240 76 q 297 58 276 58 l 356 58 q 425 79 399 58 q 451 129 451 100 l 451 153 z "},"d":{"ha":715,"x_min":58,"x_max":643,"o":"m 347 593 q 409 588 386 593 q 461 567 432 582 l 461 942 l 643 942 l 643 -69 l 461 -69 l 461 -21 q 408 -56 438 -43 q 344 -69 378 -69 l 276 -69 q 183 -55 224 -69 q 115 -14 143 -40 q 73 47 88 13 q 58 121 58 81 l 58 421 q 74 491 58 460 q 114 545 89 522 q 172 581 139 568 q 239 593 204 593 l 347 593 m 353 82 q 388 88 369 82 q 419 106 406 94 q 442 135 433 118 q 451 175 451 153 l 451 383 q 427 445 451 417 q 350 474 403 474 l 301 474 q 230 447 258 474 q 201 371 201 421 l 201 188 q 218 113 201 144 q 288 82 235 82 l 354 82 l 353 82 z "},"e":{"ha":710,"x_min":58,"x_max":651,"o":"m 393 592 q 486 576 442 592 q 565 533 531 561 q 619 465 599 506 q 639 374 639 424 l 639 217 l 226 217 l 226 153 q 231 122 226 140 q 249 88 236 104 q 283 61 261 72 q 340 50 306 50 l 394 50 q 494 142 494 50 l 651 142 l 651 100 q 632 17 651 50 q 581 -35 613 -15 q 507 -62 549 -54 q 421 -69 465 -69 l 288 -69 q 216 -60 253 -69 q 147 -27 179 -50 q 90 33 114 -4 q 58 128 67 71 l 58 374 q 79 459 58 419 q 135 528 100 499 q 216 575 169 558 q 314 592 263 592 l 393 592 m 226 321 l 481 321 l 481 363 q 472 398 481 381 q 447 428 463 415 q 413 449 432 442 q 374 457 393 457 l 329 457 q 291 449 310 457 q 258 428 272 442 q 235 398 243 415 q 226 363 226 381 l 226 321 z "},"f":{"ha":463,"x_min":21,"x_max":439,"o":"m 439 544 l 439 425 l 306 425 l 306 -69 l 125 -69 l 125 425 l 21 425 l 21 544 l 125 544 l 125 738 q 138 807 125 779 q 172 851 150 835 q 222 875 193 868 q 285 882 251 882 l 422 882 l 422 753 l 354 753 q 306 694 306 753 l 306 544 l 439 544 z "},"g":{"ha":685,"x_min":58,"x_max":613,"o":"m 613 593 l 613 -132 q 591 -222 613 -186 q 538 -281 569 -258 q 470 -314 507 -304 q 404 -324 433 -324 l 261 -324 q 200 -312 232 -324 q 142 -278 168 -301 q 99 -218 117 -254 q 82 -133 82 -182 l 242 -133 q 247 -161 243 -147 q 257 -186 250 -175 q 276 -204 264 -197 q 308 -211 289 -211 l 368 -211 q 420 -191 400 -211 q 440 -147 440 -171 l 440 -26 q 400 -48 428 -40 q 354 -56 372 -56 l 249 -56 q 174 -43 208 -56 q 114 -8 140 -31 q 73 47 88 15 q 58 118 58 79 l 58 351 q 74 427 58 392 q 117 488 90 463 q 181 529 144 514 q 258 544 217 544 l 344 544 q 440 519 392 544 l 440 593 l 613 593 m 349 50 q 406 69 381 50 q 431 142 431 89 l 431 340 q 399 405 431 385 q 335 425 368 425 l 306 425 q 239 401 264 425 q 214 332 214 376 l 214 135 q 232 78 214 106 q 292 50 250 50 l 349 50 z "},"h":{"ha":743,"x_min":72,"x_max":678,"o":"m 524 314 q 515 375 524 351 q 490 413 506 399 q 456 432 475 426 q 419 438 438 438 l 354 438 q 325 434 342 438 q 294 424 308 431 q 269 406 279 417 q 260 381 260 394 l 260 -69 l 72 -69 l 72 943 l 260 943 l 260 561 q 310 581 281 572 q 371 590 340 590 l 446 590 q 528 576 488 590 q 603 533 569 563 q 657 455 636 503 q 678 339 678 407 l 678 -69 l 524 -69 l 524 314 z "},"i":{"ha":313,"x_min":72,"x_max":240,"o":"m 72 717 l 72 881 l 240 881 l 240 717 l 72 717 m 72 -69 l 72 590 l 240 590 l 240 -69 l 72 -69 z "},"j":{"ha":319,"x_min":-44,"x_max":247,"o":"m 90 590 l 247 590 l 247 -82 q 223 -191 247 -140 q 158 -279 199 -242 q 65 -338 118 -317 q -44 -360 13 -360 l -44 -203 q 54 -160 18 -192 q 90 -69 90 -128 l 90 590 m 247 718 l 86 718 l 86 881 l 247 881 l 247 718 z "},"k":{"ha":696,"x_min":79,"x_max":631,"o":"m 631 596 l 631 408 l 382 263 l 631 115 l 631 -74 l 256 142 l 256 -69 l 79 -69 l 79 942 l 256 942 l 256 388 l 631 596 z "},"l":{"ha":326,"x_min":72,"x_max":254,"o":"m 254 -69 l 72 -69 l 72 943 l 254 943 l 254 -69 z "},"m":{"ha":983,"x_min":72,"x_max":918,"o":"m 783 -69 l 783 303 q 768 378 783 346 q 711 413 753 411 q 633 300 633 415 l 633 -69 l 481 -69 l 481 303 q 458 379 481 346 q 388 413 435 413 q 328 400 350 413 q 293 367 306 388 q 277 322 281 347 q 274 272 274 297 l 274 -69 l 72 -69 l 72 606 l 274 606 l 274 533 q 307 555 281 544 q 357 565 333 565 l 426 565 q 497 549 464 565 q 553 504 531 532 q 608 549 572 532 q 674 565 644 565 l 736 565 q 808 548 775 565 q 866 499 842 531 q 904 424 890 468 q 918 329 918 381 l 918 -69 l 783 -69 z "},"n":{"ha":767,"x_min":72,"x_max":701,"o":"m 560 -69 l 560 301 q 552 343 560 322 q 531 379 544 364 q 499 404 517 394 q 464 414 482 414 l 369 414 q 338 407 354 414 q 308 388 322 400 q 285 358 294 375 q 276 324 276 342 l 276 -69 l 72 -69 l 72 607 l 276 607 l 276 551 q 322 570 296 563 q 372 578 349 578 l 474 578 q 563 561 521 578 q 635 514 604 544 q 683 438 665 483 q 701 338 701 393 l 701 -69 l 560 -69 z "},"o":{"ha":715,"x_min":58,"x_max":657,"o":"m 282 -69 q 197 -57 238 -69 q 125 -19 156 -44 q 76 47 94 7 q 58 140 58 86 l 58 388 q 78 468 58 431 q 133 533 99 506 q 213 576 167 561 q 310 592 258 592 l 396 592 q 502 575 454 592 q 585 531 550 558 q 638 464 619 503 q 657 382 657 425 l 657 126 q 642 47 657 83 q 597 -15 626 11 q 528 -55 568 -40 q 438 -69 488 -69 l 282 -69 m 389 57 q 430 66 413 57 q 459 88 447 75 q 476 117 471 101 q 482 149 482 133 l 482 346 q 455 410 482 379 q 379 442 428 442 l 340 442 q 302 436 321 442 q 267 419 283 431 q 242 389 251 407 q 232 344 232 371 l 232 156 q 235 127 232 144 q 249 94 239 110 q 278 68 260 79 q 326 57 297 57 l 389 57 z "},"p":{"ha":731,"x_min":72,"x_max":672,"o":"m 464 603 q 543 587 506 603 q 610 544 581 571 q 656 481 639 517 q 672 406 672 444 l 672 111 q 654 40 672 71 q 608 -12 636 10 q 544 -44 579 -33 q 474 -56 508 -56 l 344 -56 q 292 -47 315 -56 q 254 -26 269 -39 l 254 -360 l 72 -360 l 72 613 l 254 613 l 254 564 q 312 592 278 582 q 381 603 346 603 l 464 603 m 536 321 q 508 410 536 383 q 436 438 481 438 l 360 438 q 326 431 343 438 q 295 411 308 424 q 273 383 282 399 q 264 351 264 368 l 264 165 q 287 94 264 121 q 350 68 310 68 l 428 68 q 503 90 469 68 q 536 174 536 113 l 536 321 z "},"q":{"ha":731,"x_min":58,"x_max":658,"o":"m 350 603 q 419 592 385 603 q 476 564 453 582 l 476 613 l 658 613 l 658 -360 l 476 -360 l 476 -26 q 438 -47 461 -39 q 386 -56 415 -56 l 257 -56 q 187 -44 222 -56 q 123 -12 151 -33 q 76 40 94 10 q 58 111 58 71 l 58 406 q 75 481 58 444 q 121 544 92 517 q 188 587 150 571 q 267 603 225 603 l 350 603 m 194 174 q 228 90 194 113 q 303 68 261 68 l 381 68 q 444 94 421 68 q 467 165 467 121 l 467 351 q 458 383 467 368 q 435 411 449 399 q 405 431 422 424 q 371 438 388 438 l 294 438 q 222 410 250 438 q 194 321 194 383 l 194 174 z "},"r":{"ha":617,"x_min":72,"x_max":593,"o":"m 593 418 q 525 416 564 418 q 442 404 486 414 q 351 376 397 394 q 263 326 306 358 l 263 -69 l 72 -69 l 72 592 l 263 592 l 263 499 q 314 530 283 514 q 385 560 344 546 q 478 583 426 574 q 593 594 531 593 l 593 418 z "},"s":{"ha":661,"x_min":64,"x_max":625,"o":"m 64 121 q 198 68 131 93 q 328 49 265 43 q 365 50 347 49 q 399 58 383 51 q 424 76 414 64 q 439 107 435 88 q 434 149 444 131 q 406 181 424 168 q 365 203 388 194 q 326 217 343 213 q 223 244 271 231 q 140 278 175 257 q 85 331 106 299 q 65 413 65 363 q 102 522 65 479 q 194 588 139 565 q 313 615 250 611 q 431 606 376 618 q 508 582 471 596 q 578 544 546 568 l 578 404 q 532 438 554 424 q 478 467 510 453 q 432 483 457 476 q 382 490 407 489 q 333 485 357 490 q 289 464 308 479 q 270 437 274 451 q 271 408 267 422 q 286 382 275 393 q 313 367 297 371 q 413 334 369 349 q 506 300 457 319 q 568 263 544 283 q 604 217 592 242 q 621 167 617 193 q 625 114 625 140 q 598 21 625 60 q 528 -43 571 -18 q 434 -79 486 -68 q 332 -90 382 -90 q 192 -69 257 -90 q 64 -8 128 -49 l 64 121 z "},"t":{"ha":556,"x_min":28,"x_max":528,"o":"m 528 604 l 528 467 l 379 467 l 379 -69 l 175 -69 l 175 467 l 28 467 l 28 604 l 175 604 l 175 901 l 379 901 l 379 604 l 528 604 z "},"u":{"ha":764,"x_min":65,"x_max":692,"o":"m 474 592 l 692 592 l 692 -69 l 493 -69 l 493 -11 q 421 -58 458 -47 q 353 -69 383 -69 l 296 -69 q 208 -58 250 -69 q 134 -17 165 -46 q 84 59 103 11 q 65 181 65 107 l 65 592 l 235 592 l 235 222 q 253 119 235 151 q 324 88 272 88 l 379 88 q 448 118 422 88 q 474 211 474 149 l 474 592 z "},"v":{"ha":872,"x_min":17,"x_max":856,"o":"m 568 590 l 856 590 l 564 -69 l 310 -69 l 17 590 l 246 590 q 340 372 307 449 q 387 260 372 296 q 404 219 401 225 q 407 214 407 214 l 568 590 z "},"w":{"ha":1057,"x_min":17,"x_max":1040,"o":"m 783 590 l 1040 590 l 789 -69 l 611 -69 l 524 160 l 436 -69 l 268 -69 l 17 590 l 214 590 q 282 412 249 499 q 351 233 315 325 q 360 257 353 239 q 376 301 367 275 q 399 358 386 326 q 424 421 411 389 l 360 590 l 507 590 q 575 412 542 499 q 644 233 608 325 l 783 590 z "},"x":{"ha":825,"x_min":17,"x_max":808,"o":"m 808 592 l 547 257 l 799 -69 l 531 -69 l 372 136 l 233 -69 l 17 -69 l 246 263 l 17 592 l 242 592 l 378 392 l 532 592 l 808 592 z "},"y":{"ha":796,"x_min":17,"x_max":779,"o":"m 779 592 l 400 -462 l 146 -462 l 278 -96 l 17 592 l 197 592 l 360 149 l 521 592 l 779 592 z "},"z":{"ha":778,"x_min":51,"x_max":726,"o":"m 375 114 l 726 114 l 726 -69 l 51 -69 l 394 471 l 64 471 l 64 592 l 722 592 l 375 114 z "},"{":{"ha":504,"x_min":28,"x_max":456,"o":"m 456 971 l 456 874 l 381 874 q 344 863 353 874 q 336 824 336 851 l 336 539 l 214 467 q 197 428 199 453 q 208 389 196 404 l 336 285 l 336 -7 q 344 -44 336 -33 q 379 -54 353 -54 l 456 -54 l 456 -137 l 281 -137 q 234 -128 256 -137 q 196 -106 213 -119 q 170 -74 179 -92 q 161 -36 161 -56 l 161 263 l 46 379 q 33 403 38 389 q 28 431 29 417 q 32 459 28 446 q 44 481 36 472 l 161 578 l 161 869 q 168 906 161 888 q 189 938 175 924 q 224 962 203 953 q 272 971 244 971 l 456 971 z "},"|":{"ha":421,"x_min":111,"x_max":311,"o":"m 311 -125 l 111 -125 l 111 942 l 311 942 l 311 -125 z "},"}":{"ha":504,"x_min":49,"x_max":476,"o":"m 232 971 q 281 962 260 971 q 315 938 301 953 q 336 906 329 924 q 343 869 343 888 l 343 578 l 460 481 q 472 459 468 472 q 476 431 476 446 q 471 403 475 417 q 458 379 467 389 l 343 263 l 343 -36 q 334 -74 343 -56 q 308 -106 325 -92 q 270 -128 292 -119 q 224 -137 249 -137 l 49 -137 l 49 -54 l 125 -54 q 160 -44 151 -54 q 168 -7 168 -33 l 168 285 l 296 389 q 307 428 308 404 q 290 467 306 453 l 168 539 l 168 824 q 160 863 168 851 q 124 874 151 874 l 49 874 l 49 971 l 232 971 z "},"~":{"ha":828,"x_min":57,"x_max":782,"o":"m 782 481 q 752 413 769 444 q 713 358 735 382 q 663 321 690 335 q 606 307 636 307 q 507 328 549 307 q 430 376 465 350 q 362 424 394 401 q 290 447 329 446 q 201 424 249 447 q 125 344 154 401 l 57 435 q 156 557 97 514 q 282 603 215 600 q 370 584 333 606 q 440 537 407 563 q 507 490 472 511 q 592 469 542 468 q 637 483 618 471 q 667 511 656 494 q 685 545 679 528 q 694 575 692 563 l 782 481 z "},"₩":{"ha":828,"x_min":57,"x_max":782,"o":"m 782 481 q 752 413 769 444 q 713 358 735 382 q 663 321 690 335 q 606 307 636 307 q 507 328 549 307 q 430 376 465 350 q 362 424 394 401 q 290 447 329 446 q 201 424 249 447 q 125 344 154 401 l 57 435 q 156 557 97 514 q 282 603 215 600 q 370 584 333 606 q 440 537 407 563 q 507 490 472 511 q 592 469 542 468 q 637 483 618 471 q 667 511 656 494 q 685 545 679 528 q 694 575 692 563 l 782 481 z "},"‐":{"ha":608,"x_min":0,"x_max":0,"o":""},"©":{"ha":1188,"x_min":0,"x_max":0,"o":""},"　":{"ha":1306,"x_min":0,"x_max":0,"o":""},"、":{"ha":501,"x_min":0,"x_max":0,"o":""},"。":{"ha":519,"x_min":0,"x_max":0,"o":""},"·":{"ha":403,"x_min":0,"x_max":0,"o":""},"‥":{"ha":814,"x_min":132,"x_max":682,"o":"m 285 -42 l 285 -194 l 132 -194 l 132 -42 l 285 -42 m 682 -42 l 682 -194 l 529 -194 l 529 -42 l 682 -42 z "},"…":{"ha":1089,"x_min":111,"x_max":978,"o":"m 264 -42 l 264 -194 l 111 -194 l 111 -42 l 264 -42 m 622 -42 l 622 -194 l 469 -194 l 469 -42 l 622 -42 m 978 -42 l 978 -194 l 825 -194 l 825 -42 l 978 -42 z "},"¨":{"ha":750,"x_min":0,"x_max":0,"o":""},"〃":{"ha":775,"x_min":0,"x_max":0,"o":""},"­":{"ha":569,"x_min":0,"x_max":0,"o":""},"—":{"ha":1200,"x_min":0,"x_max":0,"o":""},"‖":{"ha":543,"x_min":0,"x_max":0,"o":""},"＼":{"ha":1347,"x_min":0,"x_max":0,"o":""},"∼":{"ha":1019,"x_min":0,"x_max":0,"o":""},"‘":{"ha":407,"x_min":172,"x_max":344,"o":"m 342 889 q 302 840 319 867 q 282 771 285 813 l 344 771 l 344 631 l 172 631 l 172 746 q 205 848 172 799 q 290 929 238 897 l 342 889 z "},"’":{"ha":394,"x_min":97,"x_max":269,"o":"m 100 671 q 140 720 122 693 q 160 789 157 747 l 97 789 l 97 929 l 269 929 l 269 814 q 237 712 269 761 q 151 631 204 663 l 100 671 z "},"“":{"ha":560,"x_min":76,"x_max":497,"o":"m 494 889 q 455 840 472 867 q 435 771 438 813 l 497 771 l 497 631 l 325 631 l 325 746 q 358 848 325 799 q 443 929 390 897 l 494 889 m 246 889 q 206 840 224 867 q 186 771 189 813 l 249 771 l 249 631 l 76 631 l 76 746 q 109 848 76 799 q 194 929 142 897 l 246 889 z "},"”":{"ha":560,"x_min":63,"x_max":483,"o":"m 65 671 q 105 720 88 693 q 125 789 122 747 l 63 789 l 63 929 l 235 929 l 235 814 q 202 712 235 761 q 117 631 169 663 l 65 671 m 314 671 q 353 720 336 693 q 374 789 371 747 l 311 789 l 311 929 l 483 929 l 483 814 q 451 712 483 761 q 365 631 418 663 l 314 671 z "},"〔":{"ha":478,"x_min":0,"x_max":0,"o":""},"〕":{"ha":497,"x_min":0,"x_max":0,"o":""},"〈":{"ha":649,"x_min":0,"x_max":0,"o":""},"〉":{"ha":663,"x_min":0,"x_max":0,"o":""},"《":{"ha":644,"x_min":0,"x_max":0,"o":""},"》":{"ha":644,"x_min":0,"x_max":0,"o":""},"「":{"ha":488,"x_min":0,"x_max":0,"o":""},"」":{"ha":488,"x_min":0,"x_max":0,"o":""},"『":{"ha":494,"x_min":0,"x_max":0,"o":""},"』":{"ha":494,"x_min":0,"x_max":0,"o":""},"【":{"ha":519,"x_min":0,"x_max":0,"o":""},"】":{"ha":531,"x_min":0,"x_max":0,"o":""},"±":{"ha":722,"x_min":0,"x_max":0,"o":""},"×":{"ha":635,"x_min":0,"x_max":0,"o":""},"÷":{"ha":772,"x_min":0,"x_max":0,"o":""},"≠":{"ha":761,"x_min":0,"x_max":0,"o":""},"≤":{"ha":933,"x_min":0,"x_max":0,"o":""},"≥":{"ha":933,"x_min":0,"x_max":0,"o":""},"∞":{"ha":1129,"x_min":0,"x_max":0,"o":""},"∴":{"ha":1306,"x_min":0,"x_max":0,"o":""},"°":{"ha":619,"x_min":0,"x_max":0,"o":""},"′":{"ha":638,"x_min":0,"x_max":0,"o":""},"″":{"ha":667,"x_min":0,"x_max":0,"o":""},"℃":{"ha":919,"x_min":0,"x_max":0,"o":""},"Å":{"ha":707,"x_min":0,"x_max":0,"o":""},"¢":{"ha":735,"x_min":0,"x_max":0,"o":""},"£":{"ha":793,"x_min":0,"x_max":0,"o":""},"¥":{"ha":807,"x_min":0,"x_max":0,"o":""},"♂":{"ha":1306,"x_min":0,"x_max":0,"o":""},"♀":{"ha":1306,"x_min":0,"x_max":0,"o":""},"∠":{"ha":1063,"x_min":0,"x_max":0,"o":""},"⊥":{"ha":1306,"x_min":0,"x_max":0,"o":""},"⌒":{"ha":932,"x_min":0,"x_max":0,"o":""},"∂":{"ha":689,"x_min":0,"x_max":0,"o":""},"∇":{"ha":1306,"x_min":0,"x_max":0,"o":""},"≡":{"ha":1039,"x_min":0,"x_max":0,"o":""},"≒":{"ha":1039,"x_min":0,"x_max":0,"o":""},"§":{"ha":481,"x_min":0,"x_max":0,"o":""},"※":{"ha":1306,"x_min":0,"x_max":0,"o":""},"☆":{"ha":1306,"x_min":0,"x_max":0,"o":""},"★":{"ha":1306,"x_min":0,"x_max":0,"o":""},"○":{"ha":1306,"x_min":0,"x_max":0,"o":""},"●":{"ha":1306,"x_min":0,"x_max":0,"o":""},"◎":{"ha":1306,"x_min":0,"x_max":0,"o":""},"◇":{"ha":1306,"x_min":0,"x_max":0,"o":""},"◆":{"ha":1306,"x_min":0,"x_max":0,"o":""},"□":{"ha":1306,"x_min":0,"x_max":0,"o":""},"■":{"ha":1306,"x_min":0,"x_max":0,"o":""},"△":{"ha":1306,"x_min":0,"x_max":0,"o":""},"▲":{"ha":1306,"x_min":0,"x_max":0,"o":""},"▽":{"ha":1306,"x_min":0,"x_max":0,"o":""},"▼":{"ha":1306,"x_min":0,"x_max":0,"o":""},"→":{"ha":1306,"x_min":0,"x_max":0,"o":""},"←":{"ha":1306,"x_min":0,"x_max":0,"o":""},"↑":{"ha":1306,"x_min":0,"x_max":0,"o":""},"↓":{"ha":1306,"x_min":0,"x_max":0,"o":""},"↔":{"ha":1306,"x_min":0,"x_max":0,"o":""},"〓":{"ha":1122,"x_min":0,"x_max":0,"o":""},"«":{"ha":1306,"x_min":0,"x_max":0,"o":""},"»":{"ha":1306,"x_min":0,"x_max":0,"o":""},"√":{"ha":1117,"x_min":0,"x_max":0,"o":""},"∽":{"ha":1101,"x_min":0,"x_max":0,"o":""},"∝":{"ha":1001,"x_min":0,"x_max":0,"o":""},"∵":{"ha":1039,"x_min":0,"x_max":0,"o":""},"∫":{"ha":792,"x_min":0,"x_max":0,"o":""},"∬":{"ha":1131,"x_min":0,"x_max":0,"o":""},"∈":{"ha":1192,"x_min":0,"x_max":0,"o":""},"∋":{"ha":1192,"x_min":0,"x_max":0,"o":""},"⊆":{"ha":1200,"x_min":0,"x_max":0,"o":""},"⊇":{"ha":1200,"x_min":0,"x_max":0,"o":""},"⊂":{"ha":1192,"x_min":0,"x_max":0,"o":""},"⊃":{"ha":1192,"x_min":0,"x_max":0,"o":""},"∪":{"ha":981,"x_min":0,"x_max":0,"o":""},"∩":{"ha":981,"x_min":0,"x_max":0,"o":""},"∧":{"ha":1097,"x_min":0,"x_max":0,"o":""},"∨":{"ha":1097,"x_min":0,"x_max":0,"o":""},"¬":{"ha":1306,"x_min":0,"x_max":0,"o":""},"⇒":{"ha":1306,"x_min":0,"x_max":0,"o":""},"⇔":{"ha":1306,"x_min":0,"x_max":0,"o":""},"∀":{"ha":1075,"x_min":0,"x_max":0,"o":""},"∃":{"ha":879,"x_min":0,"x_max":0,"o":""},"´":{"ha":450,"x_min":0,"x_max":0,"o":""},"˜":{"ha":911,"x_min":0,"x_max":0,"o":""},"ˇ":{"ha":714,"x_min":0,"x_max":0,"o":""},"˘":{"ha":717,"x_min":0,"x_max":0,"o":""},"˝":{"ha":650,"x_min":0,"x_max":0,"o":""},"˚":{"ha":444,"x_min":0,"x_max":0,"o":""},"˙":{"ha":353,"x_min":0,"x_max":0,"o":""},"¸":{"ha":440,"x_min":0,"x_max":0,"o":""},"˛":{"ha":414,"x_min":0,"x_max":0,"o":""},"¡":{"ha":419,"x_min":0,"x_max":0,"o":""},"¿":{"ha":750,"x_min":0,"x_max":0,"o":""},"ː":{"ha":474,"x_min":0,"x_max":0,"o":""},"∮":{"ha":803,"x_min":0,"x_max":0,"o":""},"∑":{"ha":914,"x_min":0,"x_max":0,"o":""},"∏":{"ha":1047,"x_min":0,"x_max":0,"o":""},"¤":{"ha":1164,"x_min":0,"x_max":0,"o":""},"℉":{"ha":925,"x_min":0,"x_max":0,"o":""},"‰":{"ha":1144,"x_min":0,"x_max":0,"o":""},"◁":{"ha":1306,"x_min":0,"x_max":0,"o":""},"◀":{"ha":1306,"x_min":0,"x_max":0,"o":""},"▷":{"ha":1306,"x_min":0,"x_max":0,"o":""},"▶":{"ha":1306,"x_min":0,"x_max":0,"o":""},"♤":{"ha":1306,"x_min":0,"x_max":0,"o":""},"♠":{"ha":1306,"x_min":0,"x_max":0,"o":""},"♡":{"ha":1306,"x_min":0,"x_max":0,"o":""},"♥":{"ha":1306,"x_min":0,"x_max":0,"o":""},"♧":{"ha":1306,"x_min":0,"x_max":0,"o":""},"♣":{"ha":1306,"x_min":0,"x_max":0,"o":""},"⊙":{"ha":1306,"x_min":0,"x_max":0,"o":""},"◈":{"ha":1306,"x_min":0,"x_max":0,"o":""},"▣":{"ha":1306,"x_min":0,"x_max":0,"o":""},"◐":{"ha":1306,"x_min":0,"x_max":0,"o":""},"◑":{"ha":1306,"x_min":0,"x_max":0,"o":""},"▒":{"ha":1306,"x_min":0,"x_max":0,"o":""},"▤":{"ha":1306,"x_min":0,"x_max":0,"o":""},"▥":{"ha":1306,"x_min":0,"x_max":0,"o":""},"▨":{"ha":1306,"x_min":0,"x_max":0,"o":""},"▧":{"ha":1306,"x_min":0,"x_max":0,"o":""},"▦":{"ha":1306,"x_min":0,"x_max":0,"o":""},"▩":{"ha":1306,"x_min":0,"x_max":0,"o":""},"♨":{"ha":1306,"x_min":0,"x_max":0,"o":""},"☏":{"ha":1306,"x_min":0,"x_max":0,"o":""},"☎":{"ha":1306,"x_min":0,"x_max":0,"o":""},"☜":{"ha":1306,"x_min":0,"x_max":0,"o":""},"☞":{"ha":1306,"x_min":0,"x_max":0,"o":""},"¶":{"ha":840,"x_min":0,"x_max":0,"o":""},"†":{"ha":767,"x_min":0,"x_max":0,"o":""},"‡":{"ha":767,"x_min":0,"x_max":0,"o":""},"↕":{"ha":1306,"x_min":0,"x_max":0,"o":""},"↗":{"ha":1306,"x_min":0,"x_max":0,"o":""},"↙":{"ha":1306,"x_min":0,"x_max":0,"o":""},"↖":{"ha":1306,"x_min":0,"x_max":0,"o":""},"↘":{"ha":1306,"x_min":0,"x_max":0,"o":""},"♭":{"ha":1306,"x_min":0,"x_max":0,"o":""},"♩":{"ha":1306,"x_min":0,"x_max":0,"o":""},"♪":{"ha":1306,"x_min":0,"x_max":0,"o":""},"♬":{"ha":1306,"x_min":0,"x_max":0,"o":""},"㉿":{"ha":1306,"x_min":0,"x_max":0,"o":""},"㈜":{"ha":1306,"x_min":0,"x_max":0,"o":""},"№":{"ha":1306,"x_min":0,"x_max":0,"o":""},"㏇":{"ha":1306,"x_min":0,"x_max":0,"o":""},"™":{"ha":1094,"x_min":0,"x_max":0,"o":""},"㏂":{"ha":1306,"x_min":0,"x_max":0,"o":""},"㏘":{"ha":1306,"x_min":0,"x_max":0,"o":""},"℡":{"ha":1217,"x_min":0,"x_max":0,"o":""},"！":{"ha":1306,"x_min":0,"x_max":0,"o":""},"＂":{"ha":1306,"x_min":0,"x_max":0,"o":""},"＃":{"ha":1306,"x_min":0,"x_max":0,"o":""},"＄":{"ha":1306,"x_min":0,"x_max":0,"o":""},"％":{"ha":1306,"x_min":0,"x_max":0,"o":""},"＆":{"ha":1306,"x_min":0,"x_max":0,"o":""},"＇":{"ha":1306,"x_min":0,"x_max":0,"o":""},"（":{"ha":1306,"x_min":0,"x_max":0,"o":""},"）":{"ha":1306,"x_min":0,"x_max":0,"o":""},"＊":{"ha":1306,"x_min":0,"x_max":0,"o":""},"＋":{"ha":1306,"x_min":0,"x_max":0,"o":""},"，":{"ha":1306,"x_min":0,"x_max":0,"o":""},"－":{"ha":1306,"x_min":0,"x_max":0,"o":""},"．":{"ha":1306,"x_min":0,"x_max":0,"o":""},"／":{"ha":1306,"x_min":0,"x_max":0,"o":""},"０":{"ha":1306,"x_min":0,"x_max":0,"o":""},"１":{"ha":1306,"x_min":0,"x_max":0,"o":""},"２":{"ha":1306,"x_min":0,"x_max":0,"o":""},"３":{"ha":1306,"x_min":0,"x_max":0,"o":""},"４":{"ha":1306,"x_min":0,"x_max":0,"o":""},"５":{"ha":1306,"x_min":0,"x_max":0,"o":""},"６":{"ha":1306,"x_min":0,"x_max":0,"o":""},"７":{"ha":1306,"x_min":0,"x_max":0,"o":""},"８":{"ha":1306,"x_min":0,"x_max":0,"o":""},"９":{"ha":1306,"x_min":0,"x_max":0,"o":""},"：":{"ha":1306,"x_min":0,"x_max":0,"o":""},"；":{"ha":1306,"x_min":0,"x_max":0,"o":""},"＜":{"ha":1306,"x_min":0,"x_max":0,"o":""},"＝":{"ha":1306,"x_min":0,"x_max":0,"o":""},"＞":{"ha":1306,"x_min":0,"x_max":0,"o":""},"？":{"ha":1306,"x_min":0,"x_max":0,"o":""},"＠":{"ha":1306,"x_min":0,"x_max":0,"o":""},"Ａ":{"ha":1306,"x_min":0,"x_max":0,"o":""},"Ｂ":{"ha":1306,"x_min":0,"x_max":0,"o":""},"Ｃ":{"ha":1306,"x_min":0,"x_max":0,"o":""},"Ｄ":{"ha":1306,"x_min":0,"x_max":0,"o":""},"Ｅ":{"ha":1306,"x_min":0,"x_max":0,"o":""},"Ｆ":{"ha":1306,"x_min":0,"x_max":0,"o":""},"Ｇ":{"ha":1306,"x_min":0,"x_max":0,"o":""},"Ｈ":{"ha":1306,"x_min":0,"x_max":0,"o":""},"Ｉ":{"ha":1306,"x_min":0,"x_max":0,"o":""},"Ｊ":{"ha":1306,"x_min":0,"x_max":0,"o":""},"Ｋ":{"ha":1306,"x_min":0,"x_max":0,"o":""},"Ｌ":{"ha":1306,"x_min":0,"x_max":0,"o":""},"Ｍ":{"ha":1306,"x_min":0,"x_max":0,"o":""},"Ｎ":{"ha":1306,"x_min":0,"x_max":0,"o":""},"Ｏ":{"ha":1306,"x_min":0,"x_max":0,"o":""},"Ｐ":{"ha":1306,"x_min":0,"x_max":0,"o":""},"Ｑ":{"ha":1306,"x_min":0,"x_max":0,"o":""},"Ｒ":{"ha":1306,"x_min":0,"x_max":0,"o":""},"Ｓ":{"ha":1306,"x_min":0,"x_max":0,"o":""},"Ｔ":{"ha":1306,"x_min":0,"x_max":0,"o":""},"Ｕ":{"ha":1306,"x_min":0,"x_max":0,"o":""},"Ｖ":{"ha":1306,"x_min":0,"x_max":0,"o":""},"Ｗ":{"ha":1306,"x_min":0,"x_max":0,"o":""},"Ｘ":{"ha":1306,"x_min":0,"x_max":0,"o":""},"Ｙ":{"ha":1306,"x_min":0,"x_max":0,"o":""},"Ｚ":{"ha":1306,"x_min":0,"x_max":0,"o":""},"［":{"ha":1306,"x_min":0,"x_max":0,"o":""},"￦":{"ha":1306,"x_min":0,"x_max":0,"o":""},"］":{"ha":1306,"x_min":0,"x_max":0,"o":""},"＾":{"ha":1306,"x_min":0,"x_max":0,"o":""},"＿":{"ha":1306,"x_min":0,"x_max":0,"o":""},"｀":{"ha":1306,"x_min":0,"x_max":0,"o":""},"ａ":{"ha":1306,"x_min":0,"x_max":0,"o":""},"ｂ":{"ha":1306,"x_min":0,"x_max":0,"o":""},"ｃ":{"ha":1306,"x_min":0,"x_max":0,"o":""},"ｄ":{"ha":1306,"x_min":0,"x_max":0,"o":""},"ｅ":{"ha":1306,"x_min":0,"x_max":0,"o":""},"ｆ":{"ha":1306,"x_min":0,"x_max":0,"o":""},"ｇ":{"ha":1306,"x_min":0,"x_max":0,"o":""},"ｈ":{"ha":1306,"x_min":0,"x_max":0,"o":""},"ｉ":{"ha":1306,"x_min":0,"x_max":0,"o":""},"ｊ":{"ha":1306,"x_min":0,"x_max":0,"o":""},"ｋ":{"ha":1306,"x_min":0,"x_max":0,"o":""},"ｌ":{"ha":1306,"x_min":0,"x_max":0,"o":""},"ｍ":{"ha":1306,"x_min":0,"x_max":0,"o":""},"ｎ":{"ha":1306,"x_min":0,"x_max":0,"o":""},"ｏ":{"ha":1306,"x_min":0,"x_max":0,"o":""},"ｐ":{"ha":1306,"x_min":0,"x_max":0,"o":""},"ｑ":{"ha":1306,"x_min":0,"x_max":0,"o":""},"ｒ":{"ha":1306,"x_min":0,"x_max":0,"o":""},"ｓ":{"ha":1306,"x_min":0,"x_max":0,"o":""},"ｔ":{"ha":1306,"x_min":0,"x_max":0,"o":""},"ｕ":{"ha":1306,"x_min":0,"x_max":0,"o":""},"ｖ":{"ha":1306,"x_min":0,"x_max":0,"o":""},"ｗ":{"ha":1306,"x_min":0,"x_max":0,"o":""},"ｘ":{"ha":1306,"x_min":0,"x_max":0,"o":""},"ｙ":{"ha":1306,"x_min":0,"x_max":0,"o":""},"ｚ":{"ha":1306,"x_min":0,"x_max":0,"o":""},"｛":{"ha":1306,"x_min":0,"x_max":0,"o":""},"｜":{"ha":1306,"x_min":0,"x_max":0,"o":""},"｝":{"ha":1306,"x_min":0,"x_max":0,"o":""},"‾":{"ha":1306,"x_min":0,"x_max":0,"o":""},"ㄱ":{"ha":1181,"x_min":236,"x_max":944,"o":"m 943 772 l 943 629 q 922 441 944 529 q 871 285 899 353 q 796 138 839 208 l 604 138 q 676 276 647 204 q 721 413 704 347 q 744 532 738 478 q 750 619 750 586 l 236 619 l 236 772 l 943 772 z "},"ㄲ":{"ha":1181,"x_min":125,"x_max":1056,"o":"m 625 796 l 1056 796 l 1056 632 q 1036 389 1056 485 q 993 235 1017 293 q 965 176 979 201 q 932 132 950 150 l 747 132 q 821 286 796 213 q 855 424 846 360 q 863 541 864 489 q 857 631 861 593 l 625 631 l 625 796 m 125 796 l 556 796 l 556 660 q 534 436 556 533 q 488 271 513 339 q 421 132 458 193 l 233 132 q 297 280 271 207 q 337 419 322 353 q 356 539 351 485 q 357 631 361 593 l 125 631 l 125 796 z "},"ㄳ":{"ha":1181,"x_min":99,"x_max":1081,"o":"m 99 796 l 531 796 l 531 674 q 516 479 531 574 q 483 310 501 385 q 461 226 472 267 q 438 146 450 185 l 250 146 q 296 279 278 210 q 323 415 314 349 q 335 537 332 481 q 336 631 338 593 l 99 631 l 99 796 m 893 629 q 899 538 893 581 q 925 453 906 494 q 981 370 944 411 q 1081 286 1018 329 l 1081 142 q 1033 161 1057 150 q 986 186 1010 172 q 898 249 946 210 q 810 347 850 288 q 721 249 769 288 q 632 186 672 210 q 584 161 608 172 q 536 142 560 150 l 536 289 q 688 438 643 353 q 732 642 732 522 l 732 796 l 893 796 l 893 629 z "},"ㄴ":{"ha":1181,"x_min":188,"x_max":993,"o":"m 381 342 l 993 342 l 993 192 l 188 192 l 188 774 l 381 774 l 381 342 z "},"ㄵ":{"ha":1181,"x_min":111,"x_max":1069,"o":"m 304 314 l 514 314 l 514 164 l 111 164 l 111 774 l 304 774 l 304 314 m 1069 633 l 896 633 q 899 560 894 608 q 922 460 904 513 q 972 361 939 408 q 1058 289 1004 314 l 1058 143 q 953 193 999 163 q 868 261 910 219 q 807 365 826 303 q 744 261 786 303 q 661 193 703 219 q 556 143 615 163 l 556 289 q 642 361 610 314 q 690 460 674 408 q 712 560 707 513 q 715 633 717 608 l 543 633 l 543 779 l 1069 779 l 1069 633 z "},"ㄶ":{"ha":1181,"x_min":90,"x_max":1089,"o":"m 283 314 l 493 314 l 493 164 l 90 164 l 90 774 l 283 774 l 283 314 m 1089 690 l 1089 561 l 946 561 q 1001 508 979 543 q 1022 432 1022 474 l 1022 293 q 981 182 1022 225 q 876 139 940 139 l 699 139 q 635 150 665 139 q 582 182 606 161 q 544 231 558 203 q 531 293 531 260 l 531 432 q 553 508 531 474 q 604 561 575 543 l 471 561 l 471 690 l 701 690 l 701 813 l 865 813 l 865 690 l 1089 690 m 864 406 q 847 451 864 432 q 803 471 831 471 l 753 471 q 710 451 726 471 q 693 406 693 432 l 693 326 q 710 280 693 299 q 753 261 726 261 l 803 261 q 847 280 831 261 q 864 326 864 299 l 864 406 z "},"ㄷ":{"ha":1181,"x_min":181,"x_max":1000,"o":"m 374 628 l 374 335 l 1000 335 l 1000 172 l 181 172 l 181 796 l 988 796 l 988 628 l 374 628 z "},"ㄸ":{"ha":1181,"x_min":174,"x_max":1007,"o":"m 740 601 l 740 325 l 1007 325 l 1007 174 l 174 174 l 174 768 l 1007 768 l 1007 601 l 740 601 m 554 601 l 360 601 l 360 325 l 554 325 l 554 601 z "},"ㄹ":{"ha":1181,"x_min":158,"x_max":1021,"o":"m 158 542 l 817 542 l 817 661 l 158 661 l 158 821 l 1007 821 l 1007 414 l 349 414 l 349 300 l 1021 300 l 1021 165 l 158 165 l 158 542 z "},"ㄺ":{"ha":1181,"x_min":143,"x_max":1038,"o":"m 632 328 l 632 176 l 143 176 l 143 563 l 404 563 l 404 658 l 143 658 l 143 811 l 558 811 l 558 432 l 314 432 l 314 328 l 632 328 m 619 796 l 1038 796 l 1038 642 q 1027 452 1038 542 q 1004 294 1017 363 q 971 146 989 213 l 783 146 q 819 268 806 200 q 840 404 832 336 q 849 533 847 472 q 849 631 850 593 l 619 631 l 619 796 z "},"ㄻ":{"ha":1181,"x_min":119,"x_max":1061,"o":"m 601 811 l 1061 811 l 1061 131 l 601 131 l 601 154 l 119 154 l 119 553 l 374 553 l 374 651 l 119 651 l 119 811 l 522 811 l 522 418 l 290 418 l 290 311 l 601 311 l 601 811 m 907 311 l 907 651 l 753 651 l 753 311 l 907 311 z "},"ㄼ":{"ha":1181,"x_min":132,"x_max":1049,"o":"m 889 813 l 1049 813 l 1049 132 l 606 132 l 606 176 l 132 176 l 132 563 l 357 563 l 357 658 l 132 658 l 132 811 l 507 811 l 507 432 l 303 432 l 303 328 l 606 328 l 606 813 l 771 813 l 771 647 l 889 647 l 889 813 m 771 296 l 889 296 l 889 464 l 771 464 l 771 296 z "},"ㄽ":{"ha":1181,"x_min":113,"x_max":1067,"o":"m 899 615 q 901 524 899 567 q 920 439 904 481 q 970 356 936 397 q 1067 272 1004 315 l 1067 128 q 1026 147 1047 136 q 983 172 1006 158 q 903 235 947 196 q 818 333 858 274 q 732 235 778 274 q 649 172 686 196 q 603 147 625 158 q 561 128 582 136 l 561 278 q 649 346 615 310 q 703 425 683 382 q 730 518 722 468 q 738 628 738 568 l 738 782 l 899 782 l 899 615 m 532 314 l 532 163 l 113 163 l 113 549 l 351 549 l 351 644 l 113 644 l 113 797 l 501 797 l 501 418 l 283 418 l 283 314 l 532 314 z "},"ㄾ":{"ha":1181,"x_min":139,"x_max":1040,"o":"m 578 318 l 578 167 l 139 167 l 139 553 l 372 553 l 372 654 l 139 654 l 139 807 l 519 807 l 519 424 l 306 424 l 306 318 l 578 318 m 1024 647 l 789 647 l 789 544 l 1021 544 l 1021 401 l 789 401 l 789 288 l 1040 288 l 1040 140 l 618 140 l 618 793 l 1024 793 l 1024 647 z "},"ㄿ":{"ha":1181,"x_min":115,"x_max":1065,"o":"m 561 803 l 1057 803 l 1057 649 l 561 649 l 561 803 m 997 589 l 949 296 l 1065 296 l 1065 158 l 563 158 l 563 296 l 657 296 l 624 589 l 760 589 l 782 296 l 831 296 l 867 589 l 997 589 m 542 318 l 542 167 l 115 167 l 115 553 l 349 553 l 349 654 l 115 654 l 115 807 l 496 807 l 496 424 l 282 424 l 282 318 l 542 318 z "},"ㅀ":{"ha":1181,"x_min":106,"x_max":1074,"o":"m 508 319 l 508 168 l 106 168 l 106 554 l 331 554 l 331 650 l 106 650 l 106 803 l 481 803 l 481 424 l 276 424 l 276 319 l 508 319 m 1074 672 l 1074 549 l 949 549 q 1001 505 981 531 q 1022 438 1022 479 l 1022 307 q 1010 246 1022 274 q 976 198 997 218 q 926 167 954 178 q 868 156 899 156 l 728 156 q 667 165 696 156 q 614 194 638 174 q 576 244 590 214 q 563 318 563 275 l 563 424 q 584 503 563 475 q 633 549 606 531 l 518 549 l 518 672 l 710 672 l 710 790 l 872 790 l 872 672 l 1074 672 m 869 426 q 853 470 869 451 q 811 489 838 489 l 776 489 q 735 470 751 489 q 719 426 719 451 l 719 335 q 735 290 719 308 q 776 272 751 272 l 811 272 q 853 290 838 272 q 869 335 869 308 l 869 426 z "},"ㅁ":{"ha":1181,"x_min":179,"x_max":1000,"o":"m 1000 797 l 1000 185 l 179 185 l 179 797 l 1000 797 m 828 639 l 369 639 l 369 344 l 828 344 l 828 639 z "},"ㅂ":{"ha":1181,"x_min":171,"x_max":1008,"o":"m 1008 815 l 1008 169 l 171 169 l 171 815 l 346 815 l 346 625 l 832 625 l 832 815 l 1008 815 m 832 482 l 346 482 l 346 331 l 832 331 l 832 482 z "},"ㅃ":{"ha":1181,"x_min":169,"x_max":1010,"o":"m 688 335 l 858 335 l 858 490 l 688 490 l 688 335 m 521 488 l 353 488 l 353 332 l 521 332 l 521 488 m 1010 185 l 169 185 l 169 810 l 353 810 l 353 633 l 521 633 l 521 813 l 688 813 l 688 636 l 858 636 l 858 813 l 1010 813 l 1010 185 z "},"ㅄ":{"ha":1181,"x_min":103,"x_max":1076,"o":"m 888 797 l 888 729 q 900 618 888 674 q 936 512 913 563 q 995 418 960 461 q 1076 346 1031 375 l 1076 190 q 974 253 1019 218 q 886 330 931 285 q 811 438 842 375 q 756 346 790 388 q 685 272 722 304 q 616 220 649 240 q 565 194 583 200 l 103 194 l 103 793 l 269 793 l 269 636 l 411 636 l 411 793 l 565 793 l 565 365 q 681 516 644 424 q 717 729 717 608 l 717 797 l 888 797 m 411 350 l 411 483 l 269 483 l 269 350 l 411 350 z "},"ㅅ":{"ha":1181,"x_min":144,"x_max":1036,"o":"m 692 788 q 740 657 704 733 q 825 498 776 581 q 929 333 874 415 q 1036 183 985 250 l 813 183 q 749 274 778 232 q 693 356 719 315 q 642 438 667 396 q 593 531 618 481 q 498 355 553 443 q 383 183 443 267 l 144 183 q 278 355 217 264 q 385 531 339 446 q 458 684 431 615 q 490 788 486 753 l 692 788 z "},"ㅆ":{"ha":1181,"x_min":132,"x_max":1049,"o":"m 326 803 l 517 803 l 517 683 q 525 592 517 629 q 547 530 533 556 q 578 485 561 504 q 614 447 596 465 q 642 506 631 478 q 660 561 653 533 q 670 619 667 589 q 674 686 674 649 l 674 803 l 863 803 l 863 701 q 891 509 863 581 q 956 399 919 438 q 1049 335 993 354 l 1049 171 q 965 206 1007 185 q 885 251 922 226 q 816 305 847 276 q 764 363 785 333 q 726 304 749 335 q 683 247 704 274 l 632 186 l 415 186 q 458 226 440 206 q 489 261 476 246 q 501 279 496 271 q 513 294 507 288 l 421 378 q 338 294 388 332 q 243 231 289 257 q 132 176 190 200 l 132 338 q 223 408 186 372 q 283 484 260 443 q 316 575 306 525 q 326 688 326 625 l 326 803 z "},"ㅇ":{"ha":1181,"x_min":171,"x_max":1010,"o":"m 726 790 q 840 774 788 790 q 929 727 892 757 q 988 655 967 697 q 1010 561 1010 613 l 1010 411 q 988 310 1010 354 q 929 237 967 267 q 840 192 892 207 q 726 176 788 176 l 468 176 q 253 235 335 176 q 171 410 171 294 q 172 488 171 446 q 175 567 172 531 q 199 653 179 613 q 254 724 219 693 q 338 772 289 754 q 447 790 386 790 l 726 790 m 671 326 q 724 331 694 326 q 778 349 753 336 q 819 385 803 363 q 836 443 836 407 l 836 500 q 799 598 836 567 q 686 629 761 629 l 496 629 q 445 626 468 629 q 403 612 422 622 q 372 581 385 601 q 354 526 360 560 q 351 467 350 497 q 354 417 351 436 q 391 351 361 376 q 496 326 421 326 l 671 326 z "},"ㅈ":{"ha":1181,"x_min":143,"x_max":1038,"o":"m 167 765 l 1017 765 l 1017 608 l 708 608 q 847 426 761 504 q 1038 314 933 347 l 1038 179 q 909 218 975 190 q 783 286 843 246 q 674 376 724 326 q 593 481 624 426 q 503 374 564 425 q 375 282 443 322 q 243 215 307 242 q 143 183 179 189 l 143 329 q 350 456 269 388 q 475 608 431 525 l 167 608 l 167 765 z "},"ㅉ":{"ha":1181,"x_min":138,"x_max":1042,"o":"m 1025 168 q 942 195 983 176 q 865 239 901 214 q 799 292 829 264 q 750 349 768 321 q 715 288 736 318 q 674 235 693 258 q 625 182 650 207 l 413 182 q 483 253 460 221 q 496 269 490 261 q 507 285 501 278 l 418 365 q 338 285 385 321 q 246 225 290 250 q 193 197 219 210 q 139 172 167 183 l 139 322 q 219 382 186 351 q 274 449 253 413 q 308 531 296 486 q 326 635 321 576 l 138 635 l 138 796 l 1042 796 l 1042 635 l 842 635 q 876 474 847 535 q 939 379 906 413 q 1025 322 976 340 l 1025 168 m 604 422 q 644 531 632 475 q 661 635 657 588 l 511 635 q 523 548 514 582 q 544 492 532 514 q 572 454 557 469 q 604 422 588 439 z "},"ㅊ":{"ha":1181,"x_min":151,"x_max":1029,"o":"m 494 900 l 683 900 l 683 733 l 1029 733 l 1029 576 l 746 576 q 801 486 772 525 q 863 417 829 447 q 936 366 897 388 q 1022 328 975 344 l 1022 194 q 896 232 960 206 q 774 297 832 258 q 669 383 717 335 q 592 485 622 431 q 504 378 563 429 q 381 287 446 326 q 253 221 315 247 q 156 189 192 194 l 156 333 q 261 388 218 361 q 335 442 304 414 q 388 502 365 469 q 432 576 410 535 l 151 576 l 151 733 l 494 733 l 494 900 z "},"ㅋ":{"ha":1181,"x_min":193,"x_max":986,"o":"m 193 801 l 986 801 l 986 651 q 972 422 986 517 q 942 265 958 328 q 897 147 924 196 l 713 147 q 739 208 729 181 q 755 263 749 236 q 766 319 761 290 q 776 381 771 347 l 271 381 l 271 519 l 793 519 q 796 566 794 547 q 797 599 797 585 q 797 624 797 613 q 794 650 796 636 l 193 650 l 193 801 z "},"ㅌ":{"ha":1181,"x_min":194,"x_max":986,"o":"m 971 849 l 971 706 l 194 706 l 194 849 l 971 849 m 368 324 l 986 324 l 986 179 l 194 179 l 194 613 l 971 613 l 971 469 l 368 469 l 368 324 z "},"ㅍ":{"ha":1181,"x_min":161,"x_max":1019,"o":"m 161 810 l 1006 810 l 1006 646 l 161 646 l 161 810 m 875 561 l 790 319 l 1019 319 l 1019 171 l 175 171 l 175 319 l 357 319 l 257 561 l 438 561 l 531 326 l 632 326 l 696 561 l 875 561 z "},"ㅎ":{"ha":1181,"x_min":132,"x_max":1047,"o":"m 775 594 q 925 551 867 594 q 983 424 983 507 l 983 297 q 966 228 983 260 q 918 176 949 197 q 847 142 888 154 q 761 129 807 129 l 407 129 q 319 143 358 129 q 251 180 279 157 q 208 234 224 203 q 192 299 192 265 l 192 422 q 209 493 192 461 q 256 547 226 525 q 322 582 285 569 q 400 594 360 594 l 775 594 m 744 271 q 799 297 781 271 q 818 358 818 324 q 799 422 818 394 q 744 449 781 449 l 429 449 q 375 422 393 449 q 357 358 357 394 q 374 297 357 324 q 429 271 390 271 l 744 271 m 686 811 l 1047 811 l 1047 668 l 132 668 l 132 811 l 476 811 l 476 922 l 686 922 l 686 811 z "},"ㅏ":{"ha":1181,"x_min":413,"x_max":768,"o":"m 768 622 l 768 443 l 594 443 l 594 -143 l 413 -143 l 413 997 l 594 997 l 594 622 l 768 622 z "},"ㅐ":{"ha":1181,"x_min":361,"x_max":819,"o":"m 650 999 l 819 999 l 819 -143 l 650 -143 l 650 444 l 535 444 l 538 -143 l 361 -143 l 361 999 l 535 999 l 535 621 l 650 621 l 650 999 z "},"ㅑ":{"ha":1181,"x_min":419,"x_max":760,"o":"m 760 531 l 599 531 l 599 401 l 760 401 l 760 240 l 599 240 l 599 -143 l 419 -143 l 419 997 l 599 997 l 599 689 l 760 689 l 760 531 z "},"ㅒ":{"ha":1181,"x_min":344,"x_max":836,"o":"m 676 1000 l 836 1000 l 836 -157 l 676 -157 l 676 236 l 521 236 l 521 -157 l 344 -157 l 344 1000 l 521 1000 l 521 739 l 676 739 l 676 1000 m 676 576 l 521 576 l 521 414 l 676 414 l 676 576 z "},"ㅓ":{"ha":1181,"x_min":397,"x_max":782,"o":"m 782 1000 l 782 -143 l 599 -143 l 599 381 l 397 381 l 397 571 l 599 571 l 599 1000 l 782 1000 z "},"ㅔ":{"ha":1181,"x_min":307,"x_max":872,"o":"m 450 1014 l 613 1014 l 613 -156 l 450 -156 l 450 390 l 307 390 l 307 588 l 450 588 l 450 1014 m 872 1014 l 872 -156 l 708 -156 l 708 1014 l 872 1014 z "},"ㅕ":{"ha":1181,"x_min":399,"x_max":781,"o":"m 583 1011 l 781 1011 l 781 -157 l 583 -157 l 583 221 l 399 221 l 399 383 l 583 383 l 583 540 l 399 540 l 399 704 l 583 704 l 583 1011 z "},"ㅖ":{"ha":1181,"x_min":286,"x_max":894,"o":"m 894 1013 l 894 -156 l 729 -156 l 729 1013 l 894 1013 m 442 1013 l 614 1013 l 614 -156 l 442 -156 l 442 160 l 286 160 l 286 319 l 442 319 l 442 492 l 314 492 l 314 650 l 442 650 l 442 1013 z "},"ㅗ":{"ha":1181,"x_min":53,"x_max":1128,"o":"m 1128 233 l 53 233 l 53 396 l 479 396 l 479 701 l 664 701 l 664 396 l 1128 396 l 1128 233 z "},"ㅘ":{"ha":1181,"x_min":32,"x_max":1147,"o":"m 1003 1014 l 1003 690 l 1147 690 l 1147 507 l 1003 507 l 1003 -156 l 808 -156 l 808 54 l 32 54 l 32 217 l 271 217 l 271 481 l 447 481 l 447 217 l 808 217 l 808 1014 l 1003 1014 z "},"ㅙ":{"ha":1181,"x_min":33,"x_max":1146,"o":"m 988 1013 l 1146 1013 l 1146 -156 l 988 -156 l 988 461 l 874 461 l 874 -156 l 713 -156 l 713 54 l 33 54 l 33 217 l 272 217 l 272 453 l 435 453 l 435 217 l 713 217 l 713 1013 l 874 1013 l 874 624 l 988 624 l 988 1013 z "},"ㅚ":{"ha":1181,"x_min":71,"x_max":1108,"o":"m 563 464 l 563 218 l 925 218 l 925 1013 l 1108 1013 l 1108 -157 l 925 -157 l 925 54 l 71 54 l 71 218 l 392 218 l 392 464 l 563 464 z "},"ㅛ":{"ha":1181,"x_min":54,"x_max":1125,"o":"m 1125 235 l 54 235 l 54 396 l 344 396 l 344 700 l 515 700 l 515 396 l 668 396 l 668 700 l 835 700 l 835 396 l 1125 396 l 1125 235 z "},"ㅜ":{"ha":1181,"x_min":58,"x_max":1122,"o":"m 1122 353 l 661 353 l 661 -43 l 464 -43 l 464 353 l 58 353 l 58 519 l 1122 519 l 1122 353 z "},"ㅝ":{"ha":1181,"x_min":68,"x_max":1113,"o":"m 1113 -156 l 933 -156 l 933 -28 l 696 -28 l 696 125 l 933 125 l 932 1014 l 1113 1014 l 1113 -156 m 68 372 l 869 372 l 869 210 l 550 210 l 550 -158 l 347 -158 l 347 210 l 68 210 l 68 372 z "},"ㅞ":{"ha":1181,"x_min":29,"x_max":1150,"o":"m 740 1013 l 906 1013 l 906 -157 l 740 -157 l 740 -28 l 532 -28 l 532 111 l 740 111 l 740 1013 m 985 1013 l 1150 1013 l 1150 -157 l 985 -157 l 985 1013 m 29 372 l 692 372 l 692 210 l 429 210 l 429 -158 l 253 -158 l 253 210 l 29 210 l 29 372 z "},"ㅟ":{"ha":1181,"x_min":64,"x_max":1115,"o":"m 1115 -156 l 932 -156 l 932 1014 l 1115 1014 l 1115 -156 m 64 344 l 861 344 l 861 182 l 533 182 l 533 -158 l 343 -158 l 343 182 l 64 182 l 64 344 z "},"ㅠ":{"ha":1181,"x_min":67,"x_max":1114,"o":"m 1114 514 l 1114 342 l 889 342 l 889 -44 l 714 -44 l 714 342 l 469 342 l 469 -44 l 292 -44 l 292 342 l 67 342 l 67 514 l 1114 514 z "},"ㅡ":{"ha":1181,"x_min":68,"x_max":1113,"o":"m 1113 346 l 68 346 l 68 514 l 1113 514 l 1113 346 z "},"ㅢ":{"ha":1181,"x_min":90,"x_max":1090,"o":"m 893 1013 l 1090 1013 l 1090 -157 l 896 -157 l 896 185 q 783 108 844 139 q 656 56 722 76 q 522 24 590 35 q 392 8 454 13 q 90 13 244 -1 l 90 210 q 245 194 163 194 q 410 201 328 193 q 571 225 493 210 q 714 256 649 240 q 826 287 779 272 q 893 310 874 301 l 893 1013 z "},"ㅣ":{"ha":1181,"x_min":494,"x_max":685,"o":"m 685 -156 l 494 -156 l 494 999 l 685 999 l 685 -156 z "},"ㅥ":{"ha":1306,"x_min":0,"x_max":0,"o":""},"ㅦ":{"ha":1306,"x_min":0,"x_max":0,"o":""},"ㅧ":{"ha":1306,"x_min":0,"x_max":0,"o":""},"ㅨ":{"ha":1306,"x_min":0,"x_max":0,"o":""},"ㅩ":{"ha":1306,"x_min":0,"x_max":0,"o":""},"ㅪ":{"ha":1306,"x_min":0,"x_max":0,"o":""},"ㅫ":{"ha":1306,"x_min":0,"x_max":0,"o":""},"ㅬ":{"ha":1306,"x_min":0,"x_max":0,"o":""},"ㅭ":{"ha":1306,"x_min":0,"x_max":0,"o":""},"ㅮ":{"ha":1306,"x_min":0,"x_max":0,"o":""},"ㅯ":{"ha":1306,"x_min":0,"x_max":0,"o":""},"ㅰ":{"ha":1306,"x_min":0,"x_max":0,"o":""},"ㅱ":{"ha":1306,"x_min":0,"x_max":0,"o":""},"ㅲ":{"ha":1306,"x_min":0,"x_max":0,"o":""},"ㅳ":{"ha":1306,"x_min":0,"x_max":0,"o":""},"ㅴ":{"ha":1306,"x_min":0,"x_max":0,"o":""},"ㅵ":{"ha":1306,"x_min":0,"x_max":0,"o":""},"ㅶ":{"ha":1306,"x_min":0,"x_max":0,"o":""},"ㅷ":{"ha":1306,"x_min":0,"x_max":0,"o":""},"ㅸ":{"ha":1306,"x_min":0,"x_max":0,"o":""},"ㅹ":{"ha":1306,"x_min":0,"x_max":0,"o":""},"ㅺ":{"ha":1306,"x_min":0,"x_max":0,"o":""},"ㅻ":{"ha":1306,"x_min":0,"x_max":0,"o":""},"ㅼ":{"ha":1306,"x_min":0,"x_max":0,"o":""},"ㅽ":{"ha":1306,"x_min":0,"x_max":0,"o":""},"ㅾ":{"ha":1306,"x_min":0,"x_max":0,"o":""},"ㅿ":{"ha":1306,"x_min":0,"x_max":0,"o":""},"ㆀ":{"ha":1306,"x_min":0,"x_max":0,"o":""},"ㆁ":{"ha":1306,"x_min":0,"x_max":0,"o":""},"ㆂ":{"ha":1306,"x_min":0,"x_max":0,"o":""},"ㆃ":{"ha":1306,"x_min":0,"x_max":0,"o":""},"ㆄ":{"ha":1306,"x_min":0,"x_max":0,"o":""},"ㆅ":{"ha":1306,"x_min":0,"x_max":0,"o":""},"ㆆ":{"ha":1306,"x_min":0,"x_max":0,"o":""},"ㆇ":{"ha":1306,"x_min":0,"x_max":0,"o":""},"ㆈ":{"ha":1306,"x_min":0,"x_max":0,"o":""},"ㆉ":{"ha":1306,"x_min":0,"x_max":0,"o":""},"ㆊ":{"ha":1306,"x_min":0,"x_max":0,"o":""},"ㆋ":{"ha":1306,"x_min":0,"x_max":0,"o":""},"ㆌ":{"ha":1306,"x_min":0,"x_max":0,"o":""},"ㆍ":{"ha":1306,"x_min":0,"x_max":0,"o":""},"ㆎ":{"ha":1306,"x_min":0,"x_max":0,"o":""},"ⅰ":{"ha":1306,"x_min":0,"x_max":0,"o":""},"ⅱ":{"ha":1306,"x_min":0,"x_max":0,"o":""},"ⅲ":{"ha":1306,"x_min":0,"x_max":0,"o":""},"ⅳ":{"ha":1306,"x_min":0,"x_max":0,"o":""},"ⅴ":{"ha":1306,"x_min":0,"x_max":0,"o":""},"ⅵ":{"ha":1306,"x_min":0,"x_max":0,"o":""},"ⅶ":{"ha":1306,"x_min":0,"x_max":0,"o":""},"ⅷ":{"ha":1306,"x_min":0,"x_max":0,"o":""},"ⅸ":{"ha":1306,"x_min":0,"x_max":0,"o":""},"ⅹ":{"ha":1306,"x_min":0,"x_max":0,"o":""},"Ⅰ":{"ha":1306,"x_min":0,"x_max":0,"o":""},"Ⅱ":{"ha":1306,"x_min":0,"x_max":0,"o":""},"Ⅲ":{"ha":1306,"x_min":0,"x_max":0,"o":""},"Ⅳ":{"ha":1306,"x_min":0,"x_max":0,"o":""},"Ⅴ":{"ha":1306,"x_min":0,"x_max":0,"o":""},"Ⅵ":{"ha":1306,"x_min":0,"x_max":0,"o":""},"Ⅶ":{"ha":1306,"x_min":0,"x_max":0,"o":""},"Ⅷ":{"ha":1306,"x_min":0,"x_max":0,"o":""},"Ⅸ":{"ha":1306,"x_min":0,"x_max":0,"o":""},"Ⅹ":{"ha":1306,"x_min":0,"x_max":0,"o":""},"Α":{"ha":992,"x_min":0,"x_max":0,"o":""},"Β":{"ha":944,"x_min":0,"x_max":0,"o":""},"Γ":{"ha":861,"x_min":0,"x_max":0,"o":""},"Δ":{"ha":1019,"x_min":0,"x_max":0,"o":""},"Ε":{"ha":824,"x_min":0,"x_max":0,"o":""},"Ζ":{"ha":910,"x_min":0,"x_max":0,"o":""},"Η":{"ha":921,"x_min":0,"x_max":0,"o":""},"Θ":{"ha":1056,"x_min":0,"x_max":0,"o":""},"Ι":{"ha":340,"x_min":0,"x_max":0,"o":""},"Κ":{"ha":929,"x_min":0,"x_max":0,"o":""},"Λ":{"ha":992,"x_min":0,"x_max":0,"o":""},"Μ":{"ha":1128,"x_min":0,"x_max":0,"o":""},"Ν":{"ha":951,"x_min":0,"x_max":0,"o":""},"Ξ":{"ha":944,"x_min":0,"x_max":0,"o":""},"Ο":{"ha":1056,"x_min":0,"x_max":0,"o":""},"Π":{"ha":892,"x_min":0,"x_max":0,"o":""},"Ρ":{"ha":875,"x_min":0,"x_max":0,"o":""},"Σ":{"ha":851,"x_min":0,"x_max":0,"o":""},"Τ":{"ha":874,"x_min":0,"x_max":0,"o":""},"Υ":{"ha":961,"x_min":0,"x_max":0,"o":""},"Φ":{"ha":1042,"x_min":0,"x_max":0,"o":""},"Χ":{"ha":944,"x_min":0,"x_max":0,"o":""},"Ψ":{"ha":1100,"x_min":0,"x_max":0,"o":""},"Ω":{"ha":972,"x_min":0,"x_max":0,"o":""},"α":{"ha":683,"x_min":0,"x_max":0,"o":""},"β":{"ha":628,"x_min":0,"x_max":0,"o":""},"γ":{"ha":625,"x_min":0,"x_max":0,"o":""},"δ":{"ha":624,"x_min":0,"x_max":0,"o":""},"ε":{"ha":618,"x_min":0,"x_max":0,"o":""},"ζ":{"ha":628,"x_min":0,"x_max":0,"o":""},"η":{"ha":650,"x_min":0,"x_max":0,"o":""},"θ":{"ha":619,"x_min":0,"x_max":0,"o":""},"ι":{"ha":578,"x_min":0,"x_max":0,"o":""},"κ":{"ha":656,"x_min":0,"x_max":0,"o":""},"λ":{"ha":624,"x_min":0,"x_max":0,"o":""},"μ":{"ha":629,"x_min":0,"x_max":0,"o":""},"ν":{"ha":631,"x_min":0,"x_max":0,"o":""},"ξ":{"ha":615,"x_min":0,"x_max":0,"o":""},"ο":{"ha":625,"x_min":0,"x_max":0,"o":""},"π":{"ha":638,"x_min":0,"x_max":0,"o":""},"ρ":{"ha":625,"x_min":0,"x_max":0,"o":""},"σ":{"ha":640,"x_min":0,"x_max":0,"o":""},"τ":{"ha":619,"x_min":0,"x_max":0,"o":""},"υ":{"ha":618,"x_min":0,"x_max":0,"o":""},"φ":{"ha":625,"x_min":0,"x_max":0,"o":""},"χ":{"ha":622,"x_min":0,"x_max":0,"o":""},"ψ":{"ha":622,"x_min":0,"x_max":0,"o":""},"ω":{"ha":622,"x_min":0,"x_max":0,"o":""},"─":{"ha":1306,"x_min":0,"x_max":0,"o":""},"│":{"ha":1306,"x_min":0,"x_max":0,"o":""},"┌":{"ha":1306,"x_min":0,"x_max":0,"o":""},"┐":{"ha":1306,"x_min":0,"x_max":0,"o":""},"┘":{"ha":1306,"x_min":0,"x_max":0,"o":""},"└":{"ha":1306,"x_min":0,"x_max":0,"o":""},"├":{"ha":1306,"x_min":0,"x_max":0,"o":""},"┬":{"ha":1306,"x_min":0,"x_max":0,"o":""},"┤":{"ha":1306,"x_min":0,"x_max":0,"o":""},"┴":{"ha":1306,"x_min":0,"x_max":0,"o":""},"┼":{"ha":1306,"x_min":0,"x_max":0,"o":""},"━":{"ha":1306,"x_min":0,"x_max":0,"o":""},"┃":{"ha":1306,"x_min":0,"x_max":0,"o":""},"┏":{"ha":1306,"x_min":0,"x_max":0,"o":""},"┓":{"ha":1306,"x_min":0,"x_max":0,"o":""},"┛":{"ha":1306,"x_min":0,"x_max":0,"o":""},"┗":{"ha":1306,"x_min":0,"x_max":0,"o":""},"┣":{"ha":1306,"x_min":0,"x_max":0,"o":""},"┳":{"ha":1306,"x_min":0,"x_max":0,"o":""},"┫":{"ha":1306,"x_min":0,"x_max":0,"o":""},"┻":{"ha":1306,"x_min":0,"x_max":0,"o":""},"╋":{"ha":1306,"x_min":0,"x_max":0,"o":""},"┠":{"ha":1306,"x_min":0,"x_max":0,"o":""},"┯":{"ha":1306,"x_min":0,"x_max":0,"o":""},"┨":{"ha":1306,"x_min":0,"x_max":0,"o":""},"┷":{"ha":1306,"x_min":0,"x_max":0,"o":""},"┿":{"ha":1306,"x_min":0,"x_max":0,"o":""},"┝":{"ha":1306,"x_min":0,"x_max":0,"o":""},"┰":{"ha":1306,"x_min":0,"x_max":0,"o":""},"┥":{"ha":1306,"x_min":0,"x_max":0,"o":""},"┸":{"ha":1306,"x_min":0,"x_max":0,"o":""},"╂":{"ha":1306,"x_min":0,"x_max":0,"o":""},"┒":{"ha":1306,"x_min":0,"x_max":0,"o":""},"┑":{"ha":1306,"x_min":0,"x_max":0,"o":""},"┚":{"ha":1306,"x_min":0,"x_max":0,"o":""},"┙":{"ha":1306,"x_min":0,"x_max":0,"o":""},"┖":{"ha":1306,"x_min":0,"x_max":0,"o":""},"┕":{"ha":1306,"x_min":0,"x_max":0,"o":""},"┎":{"ha":1306,"x_min":0,"x_max":0,"o":""},"┍":{"ha":1306,"x_min":0,"x_max":0,"o":""},"┞":{"ha":1306,"x_min":0,"x_max":0,"o":""},"┟":{"ha":1306,"x_min":0,"x_max":0,"o":""},"┡":{"ha":1306,"x_min":0,"x_max":0,"o":""},"┢":{"ha":1306,"x_min":0,"x_max":0,"o":""},"┦":{"ha":1306,"x_min":0,"x_max":0,"o":""},"┧":{"ha":1306,"x_min":0,"x_max":0,"o":""},"┩":{"ha":1306,"x_min":0,"x_max":0,"o":""},"┪":{"ha":1306,"x_min":0,"x_max":0,"o":""},"┭":{"ha":1306,"x_min":0,"x_max":0,"o":""},"┮":{"ha":1306,"x_min":0,"x_max":0,"o":""},"┱":{"ha":1306,"x_min":0,"x_max":0,"o":""},"┲":{"ha":1306,"x_min":0,"x_max":0,"o":""},"┵":{"ha":1306,"x_min":0,"x_max":0,"o":""},"┶":{"ha":1306,"x_min":0,"x_max":0,"o":""},"┹":{"ha":1306,"x_min":0,"x_max":0,"o":""},"┺":{"ha":1306,"x_min":0,"x_max":0,"o":""},"┽":{"ha":1306,"x_min":0,"x_max":0,"o":""},"┾":{"ha":1306,"x_min":0,"x_max":0,"o":""},"╀":{"ha":1306,"x_min":0,"x_max":0,"o":""},"╁":{"ha":1306,"x_min":0,"x_max":0,"o":""},"╃":{"ha":1306,"x_min":0,"x_max":0,"o":""},"╄":{"ha":1306,"x_min":0,"x_max":0,"o":""},"╅":{"ha":1306,"x_min":0,"x_max":0,"o":""},"╆":{"ha":1306,"x_min":0,"x_max":0,"o":""},"╇":{"ha":1306,"x_min":0,"x_max":0,"o":""},"╈":{"ha":1306,"x_min":0,"x_max":0,"o":""},"╉":{"ha":1306,"x_min":0,"x_max":0,"o":""},"╊":{"ha":1306,"x_min":0,"x_max":0,"o":""},"㎕":{"ha":1306,"x_min":0,"x_max":0,"o":""},"㎖":{"ha":1306,"x_min":0,"x_max":0,"o":""},"㎗":{"ha":1306,"x_min":0,"x_max":0,"o":""},"ℓ":{"ha":750,"x_min":0,"x_max":0,"o":""},"㎘":{"ha":1306,"x_min":0,"x_max":0,"o":""},"㏄":{"ha":1306,"x_min":0,"x_max":0,"o":""},"㎣":{"ha":1306,"x_min":0,"x_max":0,"o":""},"㎤":{"ha":1306,"x_min":0,"x_max":0,"o":""},"㎥":{"ha":1306,"x_min":0,"x_max":0,"o":""},"㎦":{"ha":1306,"x_min":0,"x_max":0,"o":""},"㎙":{"ha":1306,"x_min":0,"x_max":0,"o":""},"㎚":{"ha":1306,"x_min":0,"x_max":0,"o":""},"㎛":{"ha":1306,"x_min":0,"x_max":0,"o":""},"㎜":{"ha":1306,"x_min":0,"x_max":0,"o":""},"㎝":{"ha":1306,"x_min":0,"x_max":0,"o":""},"㎞":{"ha":1306,"x_min":0,"x_max":0,"o":""},"㎟":{"ha":1306,"x_min":0,"x_max":0,"o":""},"㎠":{"ha":1306,"x_min":0,"x_max":0,"o":""},"㎡":{"ha":1306,"x_min":0,"x_max":0,"o":""},"㎢":{"ha":1306,"x_min":0,"x_max":0,"o":""},"㏊":{"ha":1306,"x_min":0,"x_max":0,"o":""},"㎍":{"ha":1306,"x_min":0,"x_max":0,"o":""},"㎎":{"ha":1306,"x_min":0,"x_max":0,"o":""},"㎏":{"ha":1306,"x_min":0,"x_max":0,"o":""},"㏏":{"ha":1306,"x_min":0,"x_max":0,"o":""},"㎈":{"ha":1306,"x_min":0,"x_max":0,"o":""},"㎉":{"ha":1306,"x_min":0,"x_max":0,"o":""},"㏈":{"ha":1306,"x_min":0,"x_max":0,"o":""},"㎧":{"ha":1306,"x_min":0,"x_max":0,"o":""},"㎨":{"ha":1306,"x_min":0,"x_max":0,"o":""},"㎰":{"ha":1306,"x_min":0,"x_max":0,"o":""},"㎱":{"ha":1306,"x_min":0,"x_max":0,"o":""},"㎲":{"ha":1306,"x_min":0,"x_max":0,"o":""},"㎳":{"ha":1306,"x_min":0,"x_max":0,"o":""},"㎴":{"ha":1306,"x_min":0,"x_max":0,"o":""},"㎵":{"ha":1306,"x_min":0,"x_max":0,"o":""},"㎶":{"ha":1306,"x_min":0,"x_max":0,"o":""},"㎷":{"ha":1306,"x_min":0,"x_max":0,"o":""},"㎸":{"ha":1306,"x_min":0,"x_max":0,"o":""},"㎹":{"ha":1306,"x_min":0,"x_max":0,"o":""},"㎀":{"ha":1306,"x_min":0,"x_max":0,"o":""},"㎁":{"ha":1306,"x_min":0,"x_max":0,"o":""},"㎂":{"ha":1306,"x_min":0,"x_max":0,"o":""},"㎃":{"ha":1306,"x_min":0,"x_max":0,"o":""},"㎄":{"ha":1306,"x_min":0,"x_max":0,"o":""},"㎺":{"ha":1306,"x_min":0,"x_max":0,"o":""},"㎻":{"ha":1306,"x_min":0,"x_max":0,"o":""},"㎼":{"ha":1306,"x_min":0,"x_max":0,"o":""},"㎽":{"ha":1306,"x_min":0,"x_max":0,"o":""},"㎾":{"ha":1306,"x_min":0,"x_max":0,"o":""},"㎿":{"ha":1306,"x_min":0,"x_max":0,"o":""},"㎐":{"ha":1306,"x_min":0,"x_max":0,"o":""},"㎑":{"ha":1306,"x_min":0,"x_max":0,"o":""},"㎒":{"ha":1306,"x_min":0,"x_max":0,"o":""},"㎓":{"ha":1306,"x_min":0,"x_max":0,"o":""},"㎔":{"ha":1306,"x_min":0,"x_max":0,"o":""},"Ω":{"ha":947,"x_min":0,"x_max":0,"o":""},"㏀":{"ha":1306,"x_min":0,"x_max":0,"o":""},"㏁":{"ha":1306,"x_min":0,"x_max":0,"o":""},"㎊":{"ha":1306,"x_min":0,"x_max":0,"o":""},"㎋":{"ha":1306,"x_min":0,"x_max":0,"o":""},"㎌":{"ha":1306,"x_min":0,"x_max":0,"o":""},"㏖":{"ha":1306,"x_min":0,"x_max":0,"o":""},"㏅":{"ha":1306,"x_min":0,"x_max":0,"o":""},"㎭":{"ha":1306,"x_min":0,"x_max":0,"o":""},"㎮":{"ha":1306,"x_min":0,"x_max":0,"o":""},"㎯":{"ha":1306,"x_min":0,"x_max":0,"o":""},"㏛":{"ha":1306,"x_min":0,"x_max":0,"o":""},"㎩":{"ha":1306,"x_min":0,"x_max":0,"o":""},"㎪":{"ha":1306,"x_min":0,"x_max":0,"o":""},"㎫":{"ha":1306,"x_min":0,"x_max":0,"o":""},"㎬":{"ha":1306,"x_min":0,"x_max":0,"o":""},"㏝":{"ha":1306,"x_min":0,"x_max":0,"o":""},"㏐":{"ha":1306,"x_min":0,"x_max":0,"o":""},"㏓":{"ha":1306,"x_min":0,"x_max":0,"o":""},"㏃":{"ha":1306,"x_min":0,"x_max":0,"o":""},"㏉":{"ha":1306,"x_min":0,"x_max":0,"o":""},"㏜":{"ha":1306,"x_min":0,"x_max":0,"o":""},"㏆":{"ha":1306,"x_min":0,"x_max":0,"o":""},"Æ":{"ha":1128,"x_min":0,"x_max":0,"o":""},"Ð":{"ha":1103,"x_min":0,"x_max":0,"o":""},"ª":{"ha":751,"x_min":0,"x_max":0,"o":""},"Ħ":{"ha":1088,"x_min":0,"x_max":0,"o":""},"Ĳ":{"ha":951,"x_min":0,"x_max":0,"o":""},"Ŀ":{"ha":800,"x_min":0,"x_max":0,"o":""},"Ł":{"ha":1069,"x_min":0,"x_max":0,"o":""},"Ø":{"ha":1083,"x_min":0,"x_max":0,"o":""},"Œ":{"ha":1203,"x_min":0,"x_max":0,"o":""},"º":{"ha":751,"x_min":0,"x_max":0,"o":""},"Þ":{"ha":736,"x_min":0,"x_max":0,"o":""},"Ŧ":{"ha":901,"x_min":0,"x_max":0,"o":""},"Ŋ":{"ha":979,"x_min":0,"x_max":0,"o":""},"㉠":{"ha":1306,"x_min":0,"x_max":0,"o":""},"㉡":{"ha":1306,"x_min":0,"x_max":0,"o":""},"㉢":{"ha":1306,"x_min":0,"x_max":0,"o":""},"㉣":{"ha":1306,"x_min":0,"x_max":0,"o":""},"㉤":{"ha":1306,"x_min":0,"x_max":0,"o":""},"㉥":{"ha":1306,"x_min":0,"x_max":0,"o":""},"㉦":{"ha":1306,"x_min":0,"x_max":0,"o":""},"㉧":{"ha":1306,"x_min":0,"x_max":0,"o":""},"㉨":{"ha":1306,"x_min":0,"x_max":0,"o":""},"㉩":{"ha":1306,"x_min":0,"x_max":0,"o":""},"㉪":{"ha":1306,"x_min":0,"x_max":0,"o":""},"㉫":{"ha":1306,"x_min":0,"x_max":0,"o":""},"㉬":{"ha":1306,"x_min":0,"x_max":0,"o":""},"㉭":{"ha":1306,"x_min":0,"x_max":0,"o":""},"㉮":{"ha":1306,"x_min":0,"x_max":0,"o":""},"㉯":{"ha":1306,"x_min":0,"x_max":0,"o":""},"㉰":{"ha":1306,"x_min":0,"x_max":0,"o":""},"㉱":{"ha":1306,"x_min":0,"x_max":0,"o":""},"㉲":{"ha":1306,"x_min":0,"x_max":0,"o":""},"㉳":{"ha":1306,"x_min":0,"x_max":0,"o":""},"㉴":{"ha":1306,"x_min":0,"x_max":0,"o":""},"㉵":{"ha":1306,"x_min":0,"x_max":0,"o":""},"㉶":{"ha":1306,"x_min":0,"x_max":0,"o":""},"㉷":{"ha":1306,"x_min":0,"x_max":0,"o":""},"㉸":{"ha":1306,"x_min":0,"x_max":0,"o":""},"㉹":{"ha":1306,"x_min":0,"x_max":0,"o":""},"㉺":{"ha":1306,"x_min":0,"x_max":0,"o":""},"㉻":{"ha":1306,"x_min":0,"x_max":0,"o":""},"ⓐ":{"ha":1306,"x_min":0,"x_max":0,"o":""},"ⓑ":{"ha":1306,"x_min":0,"x_max":0,"o":""},"ⓒ":{"ha":1306,"x_min":0,"x_max":0,"o":""},"ⓓ":{"ha":1306,"x_min":0,"x_max":0,"o":""},"ⓔ":{"ha":1306,"x_min":0,"x_max":0,"o":""},"ⓕ":{"ha":1306,"x_min":0,"x_max":0,"o":""},"ⓖ":{"ha":1306,"x_min":0,"x_max":0,"o":""},"ⓗ":{"ha":1306,"x_min":0,"x_max":0,"o":""},"ⓘ":{"ha":1306,"x_min":0,"x_max":0,"o":""},"ⓙ":{"ha":1306,"x_min":0,"x_max":0,"o":""},"ⓚ":{"ha":1306,"x_min":0,"x_max":0,"o":""},"ⓛ":{"ha":1306,"x_min":0,"x_max":0,"o":""},"ⓜ":{"ha":1306,"x_min":0,"x_max":0,"o":""},"ⓝ":{"ha":1306,"x_min":0,"x_max":0,"o":""},"ⓞ":{"ha":1306,"x_min":0,"x_max":0,"o":""},"ⓟ":{"ha":1306,"x_min":0,"x_max":0,"o":""},"ⓠ":{"ha":1306,"x_min":0,"x_max":0,"o":""},"ⓡ":{"ha":1306,"x_min":0,"x_max":0,"o":""},"ⓢ":{"ha":1306,"x_min":0,"x_max":0,"o":""},"ⓣ":{"ha":1306,"x_min":0,"x_max":0,"o":""},"ⓤ":{"ha":1306,"x_min":0,"x_max":0,"o":""},"ⓥ":{"ha":1306,"x_min":0,"x_max":0,"o":""},"ⓦ":{"ha":1306,"x_min":0,"x_max":0,"o":""},"ⓧ":{"ha":1306,"x_min":0,"x_max":0,"o":""},"ⓨ":{"ha":1306,"x_min":0,"x_max":0,"o":""},"ⓩ":{"ha":1306,"x_min":0,"x_max":0,"o":""},"①":{"ha":1306,"x_min":0,"x_max":0,"o":""},"②":{"ha":1306,"x_min":0,"x_max":0,"o":""},"③":{"ha":1306,"x_min":0,"x_max":0,"o":""},"④":{"ha":1306,"x_min":0,"x_max":0,"o":""},"⑤":{"ha":1306,"x_min":0,"x_max":0,"o":""},"⑥":{"ha":1306,"x_min":0,"x_max":0,"o":""},"⑦":{"ha":1306,"x_min":0,"x_max":0,"o":""},"⑧":{"ha":1306,"x_min":0,"x_max":0,"o":""},"⑨":{"ha":1306,"x_min":0,"x_max":0,"o":""},"⑩":{"ha":1306,"x_min":0,"x_max":0,"o":""},"⑪":{"ha":1306,"x_min":0,"x_max":0,"o":""},"⑫":{"ha":1306,"x_min":0,"x_max":0,"o":""},"⑬":{"ha":1306,"x_min":0,"x_max":0,"o":""},"⑭":{"ha":1306,"x_min":0,"x_max":0,"o":""},"⑮":{"ha":1306,"x_min":0,"x_max":0,"o":""},"½":{"ha":979,"x_min":0,"x_max":0,"o":""},"⅓":{"ha":990,"x_min":0,"x_max":0,"o":""},"⅔":{"ha":1069,"x_min":0,"x_max":0,"o":""},"¼":{"ha":1024,"x_min":0,"x_max":0,"o":""},"¾":{"ha":1036,"x_min":0,"x_max":0,"o":""},"⅛":{"ha":1022,"x_min":0,"x_max":0,"o":""},"⅜":{"ha":1069,"x_min":0,"x_max":0,"o":""},"⅝":{"ha":1065,"x_min":0,"x_max":0,"o":""},"⅞":{"ha":1019,"x_min":0,"x_max":0,"o":""},"æ":{"ha":1206,"x_min":0,"x_max":0,"o":""},"đ":{"ha":921,"x_min":0,"x_max":0,"o":""},"ð":{"ha":822,"x_min":0,"x_max":0,"o":""},"ħ":{"ha":907,"x_min":0,"x_max":0,"o":""},"ı":{"ha":389,"x_min":0,"x_max":0,"o":""},"ĳ":{"ha":685,"x_min":0,"x_max":0,"o":""},"ĸ":{"ha":789,"x_min":0,"x_max":0,"o":""},"ŀ":{"ha":572,"x_min":0,"x_max":0,"o":""},"ł":{"ha":632,"x_min":0,"x_max":0,"o":""},"ø":{"ha":850,"x_min":0,"x_max":0,"o":""},"œ":{"ha":1225,"x_min":0,"x_max":0,"o":""},"ß":{"ha":949,"x_min":0,"x_max":0,"o":""},"þ":{"ha":832,"x_min":0,"x_max":0,"o":""},"ŧ":{"ha":611,"x_min":0,"x_max":0,"o":""},"ŋ":{"ha":860,"x_min":0,"x_max":0,"o":""},"ŉ":{"ha":1010,"x_min":0,"x_max":0,"o":""},"㈀":{"ha":1306,"x_min":0,"x_max":0,"o":""},"㈁":{"ha":1306,"x_min":0,"x_max":0,"o":""},"㈂":{"ha":1306,"x_min":0,"x_max":0,"o":""},"㈃":{"ha":1306,"x_min":0,"x_max":0,"o":""},"㈄":{"ha":1306,"x_min":0,"x_max":0,"o":""},"㈅":{"ha":1306,"x_min":0,"x_max":0,"o":""},"㈆":{"ha":1306,"x_min":0,"x_max":0,"o":""},"㈇":{"ha":1306,"x_min":0,"x_max":0,"o":""},"㈈":{"ha":1306,"x_min":0,"x_max":0,"o":""},"㈉":{"ha":1306,"x_min":0,"x_max":0,"o":""},"㈊":{"ha":1306,"x_min":0,"x_max":0,"o":""},"㈋":{"ha":1306,"x_min":0,"x_max":0,"o":""},"㈌":{"ha":1306,"x_min":0,"x_max":0,"o":""},"㈍":{"ha":1306,"x_min":0,"x_max":0,"o":""},"㈎":{"ha":1306,"x_min":0,"x_max":0,"o":""},"㈏":{"ha":1306,"x_min":0,"x_max":0,"o":""},"㈐":{"ha":1306,"x_min":0,"x_max":0,"o":""},"㈑":{"ha":1306,"x_min":0,"x_max":0,"o":""},"㈒":{"ha":1306,"x_min":0,"x_max":0,"o":""},"㈓":{"ha":1306,"x_min":0,"x_max":0,"o":""},"㈔":{"ha":1306,"x_min":0,"x_max":0,"o":""},"㈕":{"ha":1306,"x_min":0,"x_max":0,"o":""},"㈖":{"ha":1306,"x_min":0,"x_max":0,"o":""},"㈗":{"ha":1306,"x_min":0,"x_max":0,"o":""},"㈘":{"ha":1306,"x_min":0,"x_max":0,"o":""},"㈙":{"ha":1306,"x_min":0,"x_max":0,"o":""},"㈚":{"ha":1306,"x_min":0,"x_max":0,"o":""},"㈛":{"ha":1306,"x_min":0,"x_max":0,"o":""},"⒜":{"ha":1306,"x_min":0,"x_max":0,"o":""},"⒝":{"ha":1306,"x_min":0,"x_max":0,"o":""},"⒞":{"ha":1306,"x_min":0,"x_max":0,"o":""},"⒟":{"ha":1306,"x_min":0,"x_max":0,"o":""},"⒠":{"ha":1306,"x_min":0,"x_max":0,"o":""},"⒡":{"ha":1306,"x_min":0,"x_max":0,"o":""},"⒢":{"ha":1306,"x_min":0,"x_max":0,"o":""},"⒣":{"ha":1306,"x_min":0,"x_max":0,"o":""},"⒤":{"ha":1306,"x_min":0,"x_max":0,"o":""},"⒥":{"ha":1306,"x_min":0,"x_max":0,"o":""},"⒦":{"ha":1306,"x_min":0,"x_max":0,"o":""},"⒧":{"ha":1306,"x_min":0,"x_max":0,"o":""},"⒨":{"ha":1306,"x_min":0,"x_max":0,"o":""},"⒩":{"ha":1306,"x_min":0,"x_max":0,"o":""},"⒪":{"ha":1306,"x_min":0,"x_max":0,"o":""},"⒫":{"ha":1306,"x_min":0,"x_max":0,"o":""},"⒬":{"ha":1306,"x_min":0,"x_max":0,"o":""},"⒭":{"ha":1306,"x_min":0,"x_max":0,"o":""},"⒮":{"ha":1306,"x_min":0,"x_max":0,"o":""},"⒯":{"ha":1306,"x_min":0,"x_max":0,"o":""},"⒰":{"ha":1306,"x_min":0,"x_max":0,"o":""},"⒱":{"ha":1306,"x_min":0,"x_max":0,"o":""},"⒲":{"ha":1306,"x_min":0,"x_max":0,"o":""},"⒳":{"ha":1306,"x_min":0,"x_max":0,"o":""},"⒴":{"ha":1306,"x_min":0,"x_max":0,"o":""},"⒵":{"ha":1306,"x_min":0,"x_max":0,"o":""},"⑴":{"ha":1306,"x_min":0,"x_max":0,"o":""},"⑵":{"ha":1306,"x_min":0,"x_max":0,"o":""},"⑶":{"ha":1306,"x_min":0,"x_max":0,"o":""},"⑷":{"ha":1306,"x_min":0,"x_max":0,"o":""},"⑸":{"ha":1306,"x_min":0,"x_max":0,"o":""},"⑹":{"ha":1306,"x_min":0,"x_max":0,"o":""},"⑺":{"ha":1306,"x_min":0,"x_max":0,"o":""},"⑻":{"ha":1306,"x_min":0,"x_max":0,"o":""},"⑼":{"ha":1306,"x_min":0,"x_max":0,"o":""},"⑽":{"ha":1306,"x_min":0,"x_max":0,"o":""},"⑾":{"ha":1306,"x_min":0,"x_max":0,"o":""},"⑿":{"ha":1306,"x_min":0,"x_max":0,"o":""},"⒀":{"ha":1306,"x_min":0,"x_max":0,"o":""},"⒁":{"ha":1306,"x_min":0,"x_max":0,"o":""},"⒂":{"ha":1306,"x_min":0,"x_max":0,"o":""},"¹":{"ha":653,"x_min":0,"x_max":0,"o":""},"²":{"ha":653,"x_min":0,"x_max":0,"o":""},"³":{"ha":653,"x_min":0,"x_max":0,"o":""},"⁴":{"ha":653,"x_min":0,"x_max":0,"o":""},"ⁿ":{"ha":653,"x_min":0,"x_max":0,"o":""},"₁":{"ha":653,"x_min":0,"x_max":0,"o":""},"₂":{"ha":653,"x_min":0,"x_max":0,"o":""},"₃":{"ha":653,"x_min":0,"x_max":0,"o":""},"₄":{"ha":653,"x_min":0,"x_max":0,"o":""},"ぁ":{"ha":1306,"x_min":0,"x_max":0,"o":""},"あ":{"ha":1306,"x_min":0,"x_max":0,"o":""},"ぃ":{"ha":1306,"x_min":0,"x_max":0,"o":""},"い":{"ha":1306,"x_min":0,"x_max":0,"o":""},"ぅ":{"ha":1306,"x_min":0,"x_max":0,"o":""},"う":{"ha":1306,"x_min":0,"x_max":0,"o":""},"ぇ":{"ha":1306,"x_min":0,"x_max":0,"o":""},"え":{"ha":1306,"x_min":0,"x_max":0,"o":""},"ぉ":{"ha":1306,"x_min":0,"x_max":0,"o":""},"お":{"ha":1306,"x_min":0,"x_max":0,"o":""},"か":{"ha":1306,"x_min":0,"x_max":0,"o":""},"が":{"ha":1306,"x_min":0,"x_max":0,"o":""},"き":{"ha":1306,"x_min":0,"x_max":0,"o":""},"ぎ":{"ha":1306,"x_min":0,"x_max":0,"o":""},"く":{"ha":1306,"x_min":0,"x_max":0,"o":""},"ぐ":{"ha":1306,"x_min":0,"x_max":0,"o":""},"け":{"ha":1306,"x_min":0,"x_max":0,"o":""},"げ":{"ha":1306,"x_min":0,"x_max":0,"o":""},"こ":{"ha":1306,"x_min":0,"x_max":0,"o":""},"ご":{"ha":1306,"x_min":0,"x_max":0,"o":""},"さ":{"ha":1306,"x_min":0,"x_max":0,"o":""},"ざ":{"ha":1306,"x_min":0,"x_max":0,"o":""},"し":{"ha":1306,"x_min":0,"x_max":0,"o":""},"じ":{"ha":1306,"x_min":0,"x_max":0,"o":""},"す":{"ha":1306,"x_min":0,"x_max":0,"o":""},"ず":{"ha":1306,"x_min":0,"x_max":0,"o":""},"せ":{"ha":1306,"x_min":0,"x_max":0,"o":""},"ぜ":{"ha":1306,"x_min":0,"x_max":0,"o":""},"そ":{"ha":1306,"x_min":0,"x_max":0,"o":""},"ぞ":{"ha":1306,"x_min":0,"x_max":0,"o":""},"た":{"ha":1306,"x_min":0,"x_max":0,"o":""},"だ":{"ha":1306,"x_min":0,"x_max":0,"o":""},"ち":{"ha":1306,"x_min":0,"x_max":0,"o":""},"ぢ":{"ha":1306,"x_min":0,"x_max":0,"o":""},"っ":{"ha":1306,"x_min":0,"x_max":0,"o":""},"つ":{"ha":1306,"x_min":0,"x_max":0,"o":""},"づ":{"ha":1306,"x_min":0,"x_max":0,"o":""},"て":{"ha":1306,"x_min":0,"x_max":0,"o":""},"で":{"ha":1306,"x_min":0,"x_max":0,"o":""},"と":{"ha":1306,"x_min":0,"x_max":0,"o":""},"ど":{"ha":1306,"x_min":0,"x_max":0,"o":""},"な":{"ha":1306,"x_min":0,"x_max":0,"o":""},"に":{"ha":1306,"x_min":0,"x_max":0,"o":""},"ぬ":{"ha":1306,"x_min":0,"x_max":0,"o":""},"ね":{"ha":1306,"x_min":0,"x_max":0,"o":""},"の":{"ha":1306,"x_min":0,"x_max":0,"o":""},"は":{"ha":1306,"x_min":0,"x_max":0,"o":""},"ば":{"ha":1306,"x_min":0,"x_max":0,"o":""},"ぱ":{"ha":1306,"x_min":0,"x_max":0,"o":""},"ひ":{"ha":1306,"x_min":0,"x_max":0,"o":""},"び":{"ha":1306,"x_min":0,"x_max":0,"o":""},"ぴ":{"ha":1306,"x_min":0,"x_max":0,"o":""},"ふ":{"ha":1306,"x_min":0,"x_max":0,"o":""},"ぶ":{"ha":1306,"x_min":0,"x_max":0,"o":""},"ぷ":{"ha":1306,"x_min":0,"x_max":0,"o":""},"へ":{"ha":1306,"x_min":0,"x_max":0,"o":""},"べ":{"ha":1306,"x_min":0,"x_max":0,"o":""},"ぺ":{"ha":1306,"x_min":0,"x_max":0,"o":""},"ほ":{"ha":1306,"x_min":0,"x_max":0,"o":""},"ぼ":{"ha":1306,"x_min":0,"x_max":0,"o":""},"ぽ":{"ha":1306,"x_min":0,"x_max":0,"o":""},"ま":{"ha":1306,"x_min":0,"x_max":0,"o":""},"み":{"ha":1306,"x_min":0,"x_max":0,"o":""},"む":{"ha":1306,"x_min":0,"x_max":0,"o":""},"め":{"ha":1306,"x_min":0,"x_max":0,"o":""},"も":{"ha":1306,"x_min":0,"x_max":0,"o":""},"ゃ":{"ha":1306,"x_min":0,"x_max":0,"o":""},"や":{"ha":1306,"x_min":0,"x_max":0,"o":""},"ゅ":{"ha":1306,"x_min":0,"x_max":0,"o":""},"ゆ":{"ha":1306,"x_min":0,"x_max":0,"o":""},"ょ":{"ha":1306,"x_min":0,"x_max":0,"o":""},"よ":{"ha":1306,"x_min":0,"x_max":0,"o":""},"ら":{"ha":1306,"x_min":0,"x_max":0,"o":""},"り":{"ha":1306,"x_min":0,"x_max":0,"o":""},"る":{"ha":1306,"x_min":0,"x_max":0,"o":""},"れ":{"ha":1306,"x_min":0,"x_max":0,"o":""},"ろ":{"ha":1306,"x_min":0,"x_max":0,"o":""},"ゎ":{"ha":1306,"x_min":0,"x_max":0,"o":""},"わ":{"ha":1306,"x_min":0,"x_max":0,"o":""},"ゐ":{"ha":1306,"x_min":0,"x_max":0,"o":""},"ゑ":{"ha":1306,"x_min":0,"x_max":0,"o":""},"を":{"ha":1306,"x_min":0,"x_max":0,"o":""},"ん":{"ha":1306,"x_min":0,"x_max":0,"o":""},"ァ":{"ha":1306,"x_min":0,"x_max":0,"o":""},"ア":{"ha":1306,"x_min":0,"x_max":0,"o":""},"ィ":{"ha":1306,"x_min":0,"x_max":0,"o":""},"イ":{"ha":1306,"x_min":0,"x_max":0,"o":""},"ゥ":{"ha":1306,"x_min":0,"x_max":0,"o":""},"ウ":{"ha":1306,"x_min":0,"x_max":0,"o":""},"ェ":{"ha":1306,"x_min":0,"x_max":0,"o":""},"エ":{"ha":1306,"x_min":0,"x_max":0,"o":""},"ォ":{"ha":1306,"x_min":0,"x_max":0,"o":""},"オ":{"ha":1306,"x_min":0,"x_max":0,"o":""},"カ":{"ha":1306,"x_min":0,"x_max":0,"o":""},"ガ":{"ha":1306,"x_min":0,"x_max":0,"o":""},"キ":{"ha":1306,"x_min":0,"x_max":0,"o":""},"ギ":{"ha":1306,"x_min":0,"x_max":0,"o":""},"ク":{"ha":1306,"x_min":0,"x_max":0,"o":""},"グ":{"ha":1306,"x_min":0,"x_max":0,"o":""},"ケ":{"ha":1306,"x_min":0,"x_max":0,"o":""},"ゲ":{"ha":1306,"x_min":0,"x_max":0,"o":""},"コ":{"ha":1306,"x_min":0,"x_max":0,"o":""},"ゴ":{"ha":1306,"x_min":0,"x_max":0,"o":""},"サ":{"ha":1306,"x_min":0,"x_max":0,"o":""},"ザ":{"ha":1306,"x_min":0,"x_max":0,"o":""},"シ":{"ha":1306,"x_min":0,"x_max":0,"o":""},"ジ":{"ha":1306,"x_min":0,"x_max":0,"o":""},"ス":{"ha":1306,"x_min":0,"x_max":0,"o":""},"ズ":{"ha":1306,"x_min":0,"x_max":0,"o":""},"セ":{"ha":1306,"x_min":0,"x_max":0,"o":""},"ゼ":{"ha":1306,"x_min":0,"x_max":0,"o":""},"ソ":{"ha":1306,"x_min":0,"x_max":0,"o":""},"ゾ":{"ha":1306,"x_min":0,"x_max":0,"o":""},"タ":{"ha":1306,"x_min":0,"x_max":0,"o":""},"ダ":{"ha":1306,"x_min":0,"x_max":0,"o":""},"チ":{"ha":1306,"x_min":0,"x_max":0,"o":""},"ヂ":{"ha":1306,"x_min":0,"x_max":0,"o":""},"ッ":{"ha":1306,"x_min":0,"x_max":0,"o":""},"ツ":{"ha":1306,"x_min":0,"x_max":0,"o":""},"ヅ":{"ha":1306,"x_min":0,"x_max":0,"o":""},"テ":{"ha":1306,"x_min":0,"x_max":0,"o":""},"デ":{"ha":1306,"x_min":0,"x_max":0,"o":""},"ト":{"ha":1306,"x_min":0,"x_max":0,"o":""},"ド":{"ha":1306,"x_min":0,"x_max":0,"o":""},"ナ":{"ha":1306,"x_min":0,"x_max":0,"o":""},"ニ":{"ha":1306,"x_min":0,"x_max":0,"o":""},"ヌ":{"ha":1306,"x_min":0,"x_max":0,"o":""},"ネ":{"ha":1306,"x_min":0,"x_max":0,"o":""},"ノ":{"ha":1306,"x_min":0,"x_max":0,"o":""},"ハ":{"ha":1306,"x_min":0,"x_max":0,"o":""},"バ":{"ha":1306,"x_min":0,"x_max":0,"o":""},"パ":{"ha":1306,"x_min":0,"x_max":0,"o":""},"ヒ":{"ha":1306,"x_min":0,"x_max":0,"o":""},"ビ":{"ha":1306,"x_min":0,"x_max":0,"o":""},"ピ":{"ha":1306,"x_min":0,"x_max":0,"o":""},"フ":{"ha":1306,"x_min":0,"x_max":0,"o":""},"ブ":{"ha":1306,"x_min":0,"x_max":0,"o":""},"プ":{"ha":1306,"x_min":0,"x_max":0,"o":""},"ヘ":{"ha":1306,"x_min":0,"x_max":0,"o":""},"ベ":{"ha":1306,"x_min":0,"x_max":0,"o":""},"ペ":{"ha":1306,"x_min":0,"x_max":0,"o":""},"ホ":{"ha":1306,"x_min":0,"x_max":0,"o":""},"ボ":{"ha":1306,"x_min":0,"x_max":0,"o":""},"ポ":{"ha":1306,"x_min":0,"x_max":0,"o":""},"マ":{"ha":1306,"x_min":0,"x_max":0,"o":""},"ミ":{"ha":1306,"x_min":0,"x_max":0,"o":""},"ム":{"ha":1306,"x_min":0,"x_max":0,"o":""},"メ":{"ha":1306,"x_min":0,"x_max":0,"o":""},"モ":{"ha":1306,"x_min":0,"x_max":0,"o":""},"ャ":{"ha":1306,"x_min":0,"x_max":0,"o":""},"ヤ":{"ha":1306,"x_min":0,"x_max":0,"o":""},"ュ":{"ha":1306,"x_min":0,"x_max":0,"o":""},"ユ":{"ha":1306,"x_min":0,"x_max":0,"o":""},"ョ":{"ha":1306,"x_min":0,"x_max":0,"o":""},"ヨ":{"ha":1306,"x_min":0,"x_max":0,"o":""},"ラ":{"ha":1306,"x_min":0,"x_max":0,"o":""},"リ":{"ha":1306,"x_min":0,"x_max":0,"o":""},"ル":{"ha":1306,"x_min":0,"x_max":0,"o":""},"レ":{"ha":1306,"x_min":0,"x_max":0,"o":""},"ロ":{"ha":1306,"x_min":0,"x_max":0,"o":""},"ヮ":{"ha":1306,"x_min":0,"x_max":0,"o":""},"ワ":{"ha":1306,"x_min":0,"x_max":0,"o":""},"ヰ":{"ha":1306,"x_min":0,"x_max":0,"o":""},"ヱ":{"ha":1306,"x_min":0,"x_max":0,"o":""},"ヲ":{"ha":1306,"x_min":0,"x_max":0,"o":""},"ン":{"ha":1306,"x_min":0,"x_max":0,"o":""},"ヴ":{"ha":1306,"x_min":0,"x_max":0,"o":""},"ヵ":{"ha":1306,"x_min":0,"x_max":0,"o":""},"ヶ":{"ha":1306,"x_min":0,"x_max":0,"o":""},"А":{"ha":1033,"x_min":0,"x_max":0,"o":""},"Б":{"ha":969,"x_min":0,"x_max":0,"o":""},"В":{"ha":963,"x_min":0,"x_max":0,"o":""},"Г":{"ha":831,"x_min":0,"x_max":0,"o":""},"Д":{"ha":1121,"x_min":0,"x_max":0,"o":""},"Е":{"ha":856,"x_min":0,"x_max":0,"o":""},"Ё":{"ha":890,"x_min":0,"x_max":0,"o":""},"Ж":{"ha":1210,"x_min":0,"x_max":0,"o":""},"З":{"ha":828,"x_min":0,"x_max":0,"o":""},"И":{"ha":979,"x_min":0,"x_max":0,"o":""},"Й":{"ha":979,"x_min":0,"x_max":0,"o":""},"К":{"ha":946,"x_min":0,"x_max":0,"o":""},"Л":{"ha":999,"x_min":0,"x_max":0,"o":""},"М":{"ha":1128,"x_min":0,"x_max":0,"o":""},"Н":{"ha":921,"x_min":0,"x_max":0,"o":""},"О":{"ha":1056,"x_min":0,"x_max":0,"o":""},"П":{"ha":897,"x_min":0,"x_max":0,"o":""},"Р":{"ha":886,"x_min":0,"x_max":0,"o":""},"С":{"ha":1025,"x_min":0,"x_max":0,"o":""},"Т":{"ha":915,"x_min":0,"x_max":0,"o":""},"У":{"ha":799,"x_min":0,"x_max":0,"o":""},"Ф":{"ha":1021,"x_min":0,"x_max":0,"o":""},"Х":{"ha":972,"x_min":0,"x_max":0,"o":""},"Ц":{"ha":1075,"x_min":0,"x_max":0,"o":""},"Ч":{"ha":794,"x_min":0,"x_max":0,"o":""},"Ш":{"ha":1103,"x_min":0,"x_max":0,"o":""},"Щ":{"ha":1154,"x_min":0,"x_max":0,"o":""},"Ъ":{"ha":1033,"x_min":0,"x_max":0,"o":""},"Ы":{"ha":1103,"x_min":0,"x_max":0,"o":""},"Ь":{"ha":971,"x_min":0,"x_max":0,"o":""},"Э":{"ha":1011,"x_min":0,"x_max":0,"o":""},"Ю":{"ha":1176,"x_min":0,"x_max":0,"o":""},"Я":{"ha":907,"x_min":0,"x_max":0,"o":""},"а":{"ha":849,"x_min":0,"x_max":0,"o":""},"б":{"ha":850,"x_min":0,"x_max":0,"o":""},"в":{"ha":876,"x_min":0,"x_max":0,"o":""},"г":{"ha":733,"x_min":0,"x_max":0,"o":""},"д":{"ha":1006,"x_min":0,"x_max":0,"o":""},"е":{"ha":814,"x_min":0,"x_max":0,"o":""},"ё":{"ha":814,"x_min":0,"x_max":0,"o":""},"ж":{"ha":1075,"x_min":0,"x_max":0,"o":""},"з":{"ha":836,"x_min":0,"x_max":0,"o":""},"и":{"ha":799,"x_min":0,"x_max":0,"o":""},"й":{"ha":799,"x_min":0,"x_max":0,"o":""},"к":{"ha":783,"x_min":0,"x_max":0,"o":""},"л":{"ha":918,"x_min":0,"x_max":0,"o":""},"м":{"ha":1086,"x_min":0,"x_max":0,"o":""},"н":{"ha":879,"x_min":0,"x_max":0,"o":""},"о":{"ha":822,"x_min":0,"x_max":0,"o":""},"п":{"ha":831,"x_min":0,"x_max":0,"o":""},"р":{"ha":822,"x_min":0,"x_max":0,"o":""},"с":{"ha":785,"x_min":0,"x_max":0,"o":""},"т":{"ha":832,"x_min":0,"x_max":0,"o":""},"у":{"ha":785,"x_min":0,"x_max":0,"o":""},"ф":{"ha":1100,"x_min":0,"x_max":0,"o":""},"х":{"ha":831,"x_min":0,"x_max":0,"o":""},"ц":{"ha":925,"x_min":0,"x_max":0,"o":""},"ч":{"ha":761,"x_min":0,"x_max":0,"o":""},"ш":{"ha":1047,"x_min":0,"x_max":0,"o":""},"щ":{"ha":1097,"x_min":0,"x_max":0,"o":""},"ъ":{"ha":911,"x_min":0,"x_max":0,"o":""},"ы":{"ha":978,"x_min":0,"x_max":0,"o":""},"ь":{"ha":775,"x_min":0,"x_max":0,"o":""},"э":{"ha":789,"x_min":0,"x_max":0,"o":""},"ю":{"ha":1100,"x_min":0,"x_max":0,"o":""},"я":{"ha":796,"x_min":0,"x_max":0,"o":""},"가":{"ha":1167,"x_min":56,"x_max":1139,"o":"m 628 889 l 628 736 q 605 591 628 663 q 544 451 582 519 q 458 322 506 383 q 360 207 410 260 q 233 85 300 143 q 92 -29 167 26 l 92 193 q 226 321 164 251 q 335 460 289 390 q 409 597 382 531 q 439 717 436 664 l 56 717 l 56 889 l 628 889 m 1139 622 l 1139 443 l 965 443 l 965 -143 l 783 -143 l 783 997 l 965 997 l 965 622 l 1139 622 z "},"각":{"ha":1132,"x_min":28,"x_max":1104,"o":"m 610 928 l 610 799 q 588 617 611 699 q 538 475 565 535 q 463 349 506 406 l 271 349 q 349 478 319 415 q 393 596 378 540 q 413 697 408 651 q 417 775 417 743 l 28 775 l 28 928 l 610 928 m 1104 776 l 1104 613 l 947 613 l 947 369 l 782 369 l 782 1014 l 947 1014 l 947 776 l 1104 776 m 117 256 l 953 256 l 953 97 q 922 -81 946 -8 q 909 -119 915 -100 q 896 -156 903 -137 l 725 -156 q 761 -65 749 -110 q 779 17 774 -19 q 783 58 782 38 q 785 97 785 78 l 117 97 l 117 256 z "},"간":{"ha":1126,"x_min":28,"x_max":1099,"o":"m 144 -143 l 144 243 l 319 243 l 319 14 l 975 14 l 975 -143 l 144 -143 m 611 806 q 589 633 613 713 q 538 490 565 553 q 463 360 506 422 l 271 360 q 349 489 319 426 q 393 607 378 551 q 413 708 408 663 q 417 786 417 754 l 28 786 l 28 939 l 610 939 l 611 806 m 1099 692 l 1099 536 l 949 536 l 949 251 l 779 251 l 779 1014 l 949 1014 l 949 692 l 1099 692 z "},"갇":{"ha":1132,"x_min":28,"x_max":1104,"o":"m 610 928 l 610 799 q 588 617 611 699 q 538 475 565 535 q 463 349 506 406 l 271 349 q 349 478 319 415 q 393 596 378 540 q 413 697 408 651 q 417 775 417 743 l 28 775 l 28 928 l 610 928 m 1104 776 l 1104 613 l 947 613 l 947 369 l 782 369 l 782 1014 l 947 1014 l 947 776 l 1104 776 m 949 124 l 364 124 l 364 -15 l 958 -15 l 958 -156 l 168 -156 l 168 264 l 949 264 l 949 124 z "},"갈":{"ha":1128,"x_min":28,"x_max":1100,"o":"m 585 940 l 585 825 q 573 699 585 761 q 543 580 561 636 q 503 476 525 524 q 464 396 482 429 l 268 396 q 369 607 340 504 q 399 790 399 710 l 28 790 l 28 940 l 585 940 m 1100 768 l 1100 604 l 940 604 l 940 388 l 778 388 l 778 1014 l 940 1014 l 940 768 l 1100 768 m 128 -171 l 128 139 l 757 139 l 757 203 l 128 203 l 128 315 l 950 315 l 950 15 l 304 15 l 304 -40 l 950 -40 l 950 -171 l 128 -171 z "},"갉":{"ha":1128,"x_min":28,"x_max":1100,"o":"m 585 940 l 585 825 q 573 699 585 761 q 543 580 561 636 q 503 476 525 524 q 464 396 482 429 l 268 396 q 369 607 340 504 q 399 790 399 710 l 28 790 l 28 940 l 585 940 m 1100 768 l 1100 604 l 940 604 l 940 388 l 778 388 l 778 1014 l 940 1014 l 940 768 l 1100 768 m 575 -42 l 575 -153 l 149 -153 l 149 129 l 386 129 l 386 199 l 149 199 l 149 311 l 513 311 l 513 33 l 290 33 l 290 -42 l 575 -42 m 560 293 l 961 293 l 961 156 q 956 51 961 106 q 946 -50 951 -4 q 940 -103 943 -78 q 932 -156 936 -129 l 775 -156 q 788 -55 783 -108 q 794 44 792 -1 l 799 150 l 560 150 l 560 293 z "},"갊":{"ha":1128,"x_min":28,"x_max":1100,"o":"m 585 940 l 585 825 q 573 699 585 761 q 543 580 561 636 q 503 476 525 524 q 464 396 482 429 l 268 396 q 369 607 340 504 q 399 790 399 710 l 28 790 l 28 940 l 585 940 m 1100 768 l 1100 604 l 940 604 l 940 388 l 778 388 l 778 1014 l 940 1014 l 940 768 l 1100 768 m 547 311 l 961 311 l 961 -169 l 547 -169 l 547 -153 l 135 -153 l 135 129 l 358 129 l 358 199 l 135 199 l 135 311 l 485 311 l 485 33 l 276 33 l 276 -42 l 547 -42 l 547 311 m 833 -42 l 833 199 l 674 199 l 674 -42 l 833 -42 z "},"감":{"ha":1142,"x_min":28,"x_max":1114,"o":"m 610 928 l 610 799 q 588 617 611 699 q 538 475 565 535 q 463 349 506 406 l 271 349 q 349 478 319 415 q 393 596 378 540 q 413 697 408 651 q 417 775 417 743 l 28 775 l 28 928 l 610 928 m 1114 776 l 1114 613 l 947 613 l 947 342 l 782 342 l 782 1014 l 947 1014 l 947 776 l 1114 776 m 157 265 l 964 265 l 964 -156 l 157 -156 l 157 265 m 813 -10 l 813 121 l 301 121 l 301 -10 l 813 -10 z "},"갑":{"ha":1132,"x_min":28,"x_max":1104,"o":"m 610 956 l 610 826 q 588 644 611 726 q 538 503 565 563 q 463 376 506 433 l 271 376 q 349 506 319 443 q 393 624 378 568 q 413 725 408 679 q 417 803 417 771 l 28 803 l 28 956 l 610 956 m 1104 776 l 1104 613 l 947 613 l 947 369 l 782 369 l 782 1014 l 947 1014 l 947 776 l 1104 776 m 951 -156 l 179 -156 l 179 288 l 356 288 l 356 174 l 785 174 l 785 288 l 951 288 l 951 -156 m 356 -33 l 785 -33 l 785 64 l 356 64 l 356 -33 z "},"값":{"ha":1132,"x_min":28,"x_max":1104,"o":"m 610 969 l 610 840 q 588 658 611 740 q 538 517 565 576 q 463 390 506 447 l 271 390 q 349 519 319 457 q 393 638 378 582 q 413 739 408 693 q 417 817 417 785 l 28 817 l 28 969 l 610 969 m 1104 776 l 1104 613 l 947 613 l 947 369 l 782 369 l 782 1014 l 947 1014 l 947 776 l 1104 776 m 878 294 l 878 254 q 888 170 878 214 q 919 86 899 126 q 972 12 940 46 q 1043 -43 1003 -22 l 1043 -160 q 954 -114 999 -142 q 878 -56 918 -90 q 811 25 838 -21 q 763 -44 793 -12 q 701 -99 733 -75 q 640 -137 668 -122 q 596 -157 611 -153 l 204 -157 l 204 292 l 335 292 l 335 174 l 472 174 l 472 292 l 596 292 l 596 -29 q 698 92 667 14 q 729 260 729 171 l 729 294 l 878 294 m 472 -26 l 472 56 l 335 56 l 335 -26 l 472 -26 z "},"갓":{"ha":1125,"x_min":28,"x_max":1097,"o":"m 590 928 l 590 799 q 569 617 592 699 q 518 475 546 535 q 443 349 486 406 l 251 349 q 329 478 300 415 q 374 596 358 540 q 393 697 389 651 q 397 775 397 743 l 28 775 l 28 928 l 590 928 m 943 701 l 1097 701 l 1097 546 l 943 546 l 943 279 l 776 279 l 776 1014 l 943 1014 l 943 701 m 703 272 q 762 160 729 217 q 830 47 794 103 q 901 -60 865 -8 q 968 -157 936 -112 l 769 -157 q 723 -91 749 -129 q 674 -17 697 -53 q 647 26 660 4 q 621 69 635 47 l 465 -157 l 247 -157 q 363 -6 311 -82 q 453 133 415 71 q 494 204 475 169 q 532 272 514 239 l 703 272 z "},"갔":{"ha":1126,"x_min":28,"x_max":1099,"o":"m 585 940 l 585 811 q 563 629 586 711 q 513 488 540 547 q 438 361 481 418 l 246 361 q 324 490 294 428 q 368 608 353 553 q 388 710 383 664 q 392 788 392 756 l 28 788 l 28 940 l 585 940 m 1099 776 l 1099 613 l 942 613 l 942 369 l 776 369 l 776 1014 l 942 1014 l 942 776 l 1099 776 m 854 272 q 871 206 858 240 q 900 137 883 172 q 938 66 917 101 q 979 -3 958 31 q 1031 -79 1003 -42 q 1089 -156 1058 -117 l 906 -156 q 864 -100 882 -125 q 831 -51 846 -75 q 802 -1 815 -26 q 774 58 789 25 q 755 13 768 39 q 724 -43 742 -14 q 685 -101 707 -72 q 640 -156 664 -131 l 454 -156 q 497 -111 483 -132 q 532 -61 511 -90 q 496 -15 513 -37 q 468 24 479 7 q 456 42 461 33 q 444 60 450 51 q 424 10 438 38 q 391 -45 410 -17 q 351 -102 372 -74 q 307 -156 329 -131 l 114 -156 q 213 -37 169 -99 q 289 83 257 25 q 340 191 321 142 q 367 274 360 240 l 529 274 q 540 219 533 244 q 558 170 547 194 q 582 121 568 146 q 615 65 596 96 q 668 186 650 136 q 693 272 686 236 l 854 272 z "},"강":{"ha":1132,"x_min":28,"x_max":1104,"o":"m 585 810 q 573 683 585 746 q 543 565 561 621 q 503 461 525 508 q 464 381 482 414 l 268 381 q 334 497 308 440 q 374 604 360 553 q 394 702 389 656 q 399 789 399 749 l 28 789 l 28 939 l 585 939 l 585 810 m 811 265 q 930 227 886 265 q 974 122 974 189 l 974 -21 q 932 -118 974 -79 q 824 -157 890 -157 l 278 -156 q 223 -145 250 -156 q 174 -117 196 -135 q 138 -75 151 -100 q 125 -21 125 -50 l 125 122 q 140 188 125 161 q 180 233 156 215 q 233 258 204 250 q 290 265 263 265 l 811 265 m 375 107 q 319 94 335 107 q 304 65 303 81 l 306 29 q 327 -3 307 0 q 375 -7 347 -7 l 750 -7 q 793 1 775 -7 q 811 32 811 8 l 811 65 q 796 98 811 89 q 753 107 781 107 l 375 107 m 1104 557 l 947 557 l 947 328 l 782 328 l 782 1014 l 947 1014 l 947 721 l 1104 721 l 1104 557 z "},"갖":{"ha":1126,"x_min":28,"x_max":1099,"o":"m 585 942 l 585 813 q 563 631 586 713 q 513 489 540 549 q 438 363 481 419 l 246 363 q 324 492 294 429 q 368 610 353 554 q 388 711 383 665 q 392 789 392 757 l 28 789 l 28 942 l 585 942 m 1099 776 l 1099 613 l 942 613 l 942 369 l 776 369 l 776 1014 l 942 1014 l 942 776 l 1099 776 m 168 124 l 168 267 l 953 267 l 953 124 l 683 124 q 807 19 743 63 q 961 -47 871 -25 l 961 -171 q 856 -147 913 -165 q 746 -101 800 -129 q 644 -35 692 -72 q 563 43 596 1 q 467 -35 514 -3 q 371 -94 419 -68 q 271 -139 322 -119 q 164 -176 219 -158 l 164 -39 q 309 33 239 -11 q 431 124 379 78 l 168 124 z "},"갗":{"ha":1128,"x_min":28,"x_max":1100,"o":"m 486 353 l 675 353 l 675 260 l 978 260 l 978 122 l 750 122 q 794 74 772 96 q 845 35 817 53 q 910 3 874 18 q 1000 -26 947 -12 l 1000 -164 q 772 -99 871 -153 q 593 54 674 -46 q 512 -28 563 11 q 402 -97 461 -67 q 283 -147 343 -126 q 174 -172 222 -167 l 174 -39 q 319 33 249 -11 q 432 122 389 76 l 197 122 l 197 260 l 486 260 l 486 353 m 585 940 l 585 825 q 573 699 585 761 q 543 580 561 636 q 503 476 525 524 q 464 396 482 429 l 268 396 q 369 607 340 504 q 399 790 399 710 l 28 790 l 28 940 l 585 940 m 1100 768 l 1100 604 l 940 604 l 940 388 l 778 388 l 778 1014 l 940 1014 l 940 768 l 1100 768 z "},"같":{"ha":1128,"x_min":28,"x_max":1100,"o":"m 163 -156 l 163 311 l 936 311 l 936 190 l 346 190 l 346 131 l 936 131 l 936 13 l 346 13 l 346 -46 l 936 -46 l 936 -156 l 163 -156 m 585 940 l 585 825 q 573 699 585 761 q 543 580 561 636 q 503 476 525 524 q 464 396 482 429 l 268 396 q 369 607 340 504 q 399 790 399 710 l 28 790 l 28 940 l 585 940 m 1100 768 l 1100 604 l 940 604 l 940 388 l 778 388 l 778 1014 l 940 1014 l 940 768 l 1100 768 z "},"갚":{"ha":1132,"x_min":28,"x_max":1104,"o":"m 585 939 l 585 810 q 565 642 585 721 q 521 503 544 563 q 458 372 494 433 l 271 372 q 328 488 304 428 q 367 603 351 547 q 389 706 382 658 q 396 786 396 754 l 28 786 l 28 939 l 585 939 m 1104 776 l 1104 613 l 947 613 l 947 369 l 782 369 l 782 1014 l 947 1014 l 947 776 l 1104 776 m 979 122 l 835 122 l 792 -24 l 963 -24 l 963 -156 l 150 -156 l 150 -24 l 331 -24 l 288 122 l 150 122 l 150 256 l 979 256 l 979 122 m 646 -24 l 685 122 l 439 122 l 479 -24 l 646 -24 z "},"갛":{"ha":1128,"x_min":28,"x_max":1100,"o":"m 585 940 l 585 825 q 573 699 585 761 q 543 580 561 636 q 503 476 525 524 q 464 396 482 429 l 268 396 q 369 607 340 504 q 399 790 399 710 l 28 790 l 28 940 l 585 940 m 1100 768 l 1100 604 l 940 604 l 940 388 l 778 388 l 778 1014 l 940 1014 l 940 768 l 1100 768 m 990 268 l 990 139 l 850 139 q 910 92 890 124 q 931 22 931 61 l 931 -21 q 890 -119 931 -83 q 792 -156 850 -156 l 368 -156 q 299 -144 328 -156 q 253 -113 271 -132 q 226 -69 235 -94 q 218 -19 218 -44 l 218 21 q 240 93 218 60 q 304 139 263 126 l 174 139 l 174 268 l 485 268 l 485 344 l 657 344 l 657 268 l 990 268 m 697 -44 q 755 -27 738 -44 q 772 22 772 -10 q 753 72 772 53 q 693 90 733 90 l 454 90 q 405 72 425 90 q 385 22 385 54 q 403 -31 385 -18 q 451 -44 422 -44 l 697 -44 z "},"개":{"ha":1217,"x_min":56,"x_max":1119,"o":"m 571 763 q 528 528 571 643 q 417 310 486 413 q 263 124 349 208 q 89 -17 176 40 l 88 200 q 290 446 217 308 q 375 731 364 583 l 56 731 l 56 904 l 571 904 l 571 763 m 950 999 l 1119 999 l 1119 -143 l 950 -143 l 950 444 l 835 444 l 838 -143 l 661 -143 l 661 999 l 835 999 l 835 621 l 950 621 l 950 999 z "},"객":{"ha":1200,"x_min":28,"x_max":1103,"o":"m 1103 1013 l 1103 338 l 938 338 l 938 572 l 821 572 l 821 338 l 656 338 l 656 1013 l 821 1013 l 821 706 l 938 706 l 938 1013 l 1103 1013 m 1103 271 l 1101 107 q 1092 7 1100 54 q 1075 -76 1085 -40 q 1063 -118 1069 -99 q 1049 -156 1056 -137 l 875 -156 q 911 -61 899 -108 q 928 24 924 -14 q 932 107 933 67 l 243 107 l 243 271 l 1103 271 m 569 821 q 546 647 568 725 q 496 514 524 569 q 424 399 465 451 l 236 399 q 312 523 283 464 q 355 633 340 582 q 374 726 369 685 q 378 800 378 768 l 28 800 l 28 951 l 569 951 l 569 821 z "},"갠":{"ha":1207,"x_min":28,"x_max":1125,"o":"m 569 951 l 569 821 q 548 657 569 733 q 501 518 526 581 q 469 449 486 482 q 433 385 453 417 l 242 385 q 296 481 271 428 q 340 588 321 533 q 369 697 358 643 q 381 800 381 751 l 28 800 l 28 951 l 569 951 m 939 1013 l 1110 1013 l 1110 310 l 939 310 l 939 600 l 821 600 l 821 310 l 656 310 l 656 1013 l 821 1013 l 821 733 l 939 733 l 939 1013 m 1125 -128 l 289 -128 l 289 265 l 463 265 l 463 25 l 1125 25 l 1125 -128 z "},"갤":{"ha":1207,"x_min":28,"x_max":1110,"o":"m 239 399 q 313 524 285 465 q 358 635 342 583 q 379 728 374 686 q 385 800 385 769 l 28 800 l 28 951 l 569 951 l 569 839 q 547 663 568 743 q 499 524 525 582 q 466 458 483 489 q 429 399 449 426 l 239 399 m 939 1013 l 1110 1013 l 1110 364 l 939 364 l 939 594 l 822 594 l 822 364 l 656 364 l 656 1013 l 822 1013 l 822 726 l 939 726 l 939 1013 m 289 -157 l 289 146 l 921 146 l 921 207 l 289 207 l 289 317 l 1110 317 l 1110 21 l 463 21 l 463 -31 l 1110 -31 l 1110 -157 l 289 -157 z "},"갬":{"ha":1207,"x_min":28,"x_max":1113,"o":"m 288 282 l 1113 282 l 1113 -149 l 288 -149 l 288 282 m 960 1 l 960 132 l 439 132 l 439 1 l 960 1 m 239 399 q 313 524 285 465 q 358 635 342 583 q 379 728 374 686 q 385 800 385 769 l 28 800 l 28 951 l 569 951 l 569 839 q 547 663 568 743 q 499 524 525 582 q 466 458 483 489 q 429 399 449 426 l 239 399 m 939 1013 l 1110 1013 l 1110 364 l 939 364 l 939 594 l 822 594 l 822 364 l 657 364 l 657 1013 l 822 1013 l 822 726 l 939 726 l 939 1013 z "},"갭":{"ha":1206,"x_min":28,"x_max":1111,"o":"m 938 1013 l 1108 1013 l 1108 338 l 938 338 l 938 596 l 821 596 l 821 338 l 657 338 l 657 1013 l 821 1013 l 821 729 l 938 729 l 938 1013 m 1111 -156 l 303 -156 l 303 261 l 479 261 l 479 160 l 944 160 l 944 261 l 1111 261 l 1111 -156 m 479 -33 l 944 -33 l 944 50 l 479 50 l 479 -33 m 240 399 q 311 524 283 465 q 354 635 339 583 q 376 727 369 686 q 385 800 383 768 l 28 800 l 28 951 l 569 951 l 569 839 q 547 669 569 747 q 499 529 525 592 q 466 461 483 493 q 429 399 449 429 l 240 399 z "},"갯":{"ha":1189,"x_min":28,"x_max":1092,"o":"m 925 1013 l 1092 1013 l 1092 324 l 925 324 l 925 600 l 797 600 l 797 324 l 633 324 l 633 1013 l 797 1013 l 797 733 l 925 733 l 925 1013 m 813 260 q 869 163 835 218 q 941 49 903 107 q 1018 -62 979 -8 q 1090 -156 1057 -117 l 885 -156 q 800 -45 839 -100 q 725 64 761 10 q 649 -53 690 6 q 564 -156 607 -111 l 336 -156 q 465 -6 407 -81 q 563 128 522 68 q 607 195 586 163 q 647 260 628 228 l 813 260 m 546 951 l 546 822 q 535 718 546 778 q 503 592 524 658 q 453 458 482 526 q 388 329 424 390 l 193 329 q 258 443 226 376 q 313 577 289 510 q 350 704 336 644 q 364 800 364 764 l 28 800 l 28 951 l 546 951 z "},"갰":{"ha":1204,"x_min":28,"x_max":1146,"o":"m 938 1013 l 1108 1013 l 1108 338 l 938 338 l 938 572 l 822 572 l 822 338 l 657 338 l 657 1013 l 822 1013 l 822 706 l 938 706 l 938 1013 m 925 231 q 968 108 933 175 q 1043 -18 1003 40 q 1146 -157 1090 -90 l 957 -157 q 892 -60 925 -115 q 828 49 858 -4 q 813 18 821 33 q 796 -14 806 3 q 754 -79 779 -42 q 696 -157 729 -117 l 518 -157 q 547 -121 533 -137 q 581 -78 561 -104 q 547 -34 561 -57 q 521 8 532 -11 q 500 53 507 33 q 446 -51 476 -4 q 372 -157 415 -97 l 175 -157 q 322 54 271 -43 q 399 231 374 151 l 585 231 q 617 131 592 175 q 667 44 642 86 q 711 135 690 85 q 740 231 732 185 l 925 231 m 569 951 l 569 833 q 561 739 569 793 q 535 624 553 685 q 491 497 518 563 q 426 371 464 432 l 239 371 q 295 469 268 408 q 342 592 322 529 q 375 713 363 656 q 388 800 388 769 l 28 800 l 28 951 l 569 951 z "},"갱":{"ha":1206,"x_min":28,"x_max":1118,"o":"m 569 951 l 569 833 q 561 739 569 793 q 535 624 553 685 q 491 497 518 563 q 426 371 464 432 l 239 371 q 295 469 268 408 q 342 592 322 529 q 375 713 363 656 q 388 800 388 769 l 28 800 l 28 951 l 569 951 m 938 1013 l 1108 1013 l 1108 338 l 938 338 l 938 572 l 821 572 l 821 338 l 657 338 l 657 1013 l 821 1013 l 821 706 l 938 706 l 938 1013 m 960 253 q 1075 215 1032 253 q 1118 110 1118 176 l 1118 -17 q 1075 -116 1118 -76 q 968 -156 1032 -156 l 431 -156 q 374 -148 401 -156 q 326 -124 347 -140 q 291 -81 304 -107 q 278 -17 278 -54 l 278 107 q 297 173 278 146 q 346 218 317 200 q 408 244 375 236 q 469 253 442 253 l 960 253 m 526 108 q 469 96 486 108 q 454 68 453 83 l 456 15 q 478 -18 457 -15 q 526 -21 499 -21 l 893 -21 q 936 -14 917 -21 q 956 15 956 -7 l 956 64 q 938 96 956 83 q 896 108 921 108 l 526 108 z "},"갸":{"ha":1171,"x_min":56,"x_max":1136,"o":"m 56 889 l 642 889 l 642 740 q 619 590 642 664 q 558 448 596 517 q 472 317 519 379 q 374 203 424 256 q 247 82 314 140 q 106 -29 181 24 l 106 193 q 240 321 178 251 q 349 460 303 390 q 423 597 396 531 q 453 717 450 664 l 56 717 l 56 889 m 1136 531 l 975 531 l 975 401 l 1136 401 l 1136 240 l 975 240 l 975 -143 l 796 -143 l 796 997 l 975 997 l 975 689 l 1136 689 l 1136 531 z "},"갹":{"ha":1138,"x_min":28,"x_max":1096,"o":"m 117 256 l 953 256 l 953 97 q 922 -81 946 -8 q 909 -119 915 -100 q 896 -156 903 -137 l 725 -156 q 761 -65 749 -110 q 779 17 774 -19 q 783 58 782 38 q 785 97 785 78 l 117 97 l 117 256 m 610 926 l 610 797 q 588 615 611 697 q 538 474 565 533 q 463 347 506 404 l 271 347 q 349 476 319 414 q 393 594 378 539 q 413 696 408 650 q 417 774 417 742 l 28 774 l 28 926 l 610 926 m 1094 651 l 1094 488 l 949 488 l 949 346 l 782 346 l 782 1014 l 949 1014 l 949 894 l 1096 894 l 1096 744 l 949 744 l 949 651 l 1094 651 z "},"갼":{"ha":1138,"x_min":28,"x_max":1096,"o":"m 975 -143 l 144 -143 l 144 256 l 306 256 l 306 26 l 975 26 l 975 -143 m 1094 582 l 1094 418 l 949 418 l 949 249 l 782 249 l 782 1014 l 949 1014 l 949 850 l 1096 850 l 1096 700 l 949 700 l 949 582 l 1094 582 m 610 926 l 610 797 q 588 615 611 697 q 538 474 565 533 q 463 347 506 404 l 271 347 q 349 476 319 414 q 393 594 378 539 q 413 696 408 650 q 417 774 417 742 l 28 774 l 28 926 l 610 926 z "},"걀":{"ha":1138,"x_min":28,"x_max":1096,"o":"m 133 -171 l 133 136 l 767 136 l 767 200 l 133 200 l 133 313 l 960 313 l 960 13 l 310 13 l 310 -40 l 960 -40 l 960 -171 l 133 -171 m 611 940 l 611 825 q 599 699 611 761 q 569 580 588 636 q 530 476 551 524 q 490 396 508 429 l 294 396 q 396 607 367 504 q 425 790 425 710 l 28 790 l 28 940 l 611 940 m 1094 651 l 1094 488 l 949 488 l 949 360 l 769 360 l 769 1014 l 949 1014 l 949 894 l 1096 894 l 1096 744 l 949 744 l 949 651 l 1094 651 z "},"걋":{"ha":1138,"x_min":28,"x_max":1096,"o":"m 1094 582 l 1094 418 l 947 418 l 947 249 l 782 249 l 782 1014 l 947 1014 l 947 850 l 1096 850 l 1096 700 l 947 700 l 947 582 l 1094 582 m 610 925 l 610 796 q 588 614 611 696 q 538 472 565 532 q 463 346 506 403 l 271 346 q 349 475 319 413 q 393 593 378 538 q 413 694 408 649 q 417 772 417 740 l 28 772 l 28 925 l 610 925 m 703 272 q 759 149 725 211 q 831 31 793 88 q 905 -75 868 -26 q 968 -157 942 -124 l 767 -157 q 720 -92 746 -129 q 671 -19 694 -54 q 644 21 657 0 q 618 64 632 42 l 460 -157 l 247 -157 q 363 -6 311 -82 q 453 133 415 71 q 494 204 475 169 q 532 272 514 239 l 703 272 z "},"걍":{"ha":1138,"x_min":28,"x_max":1096,"o":"m 806 240 q 933 202 881 240 q 985 89 985 164 l 985 -10 q 973 -65 985 -39 q 941 -112 961 -92 q 893 -145 921 -133 q 833 -157 865 -157 l 286 -157 q 176 -115 219 -157 q 133 -3 133 -74 l 133 93 q 149 160 133 132 q 193 206 165 189 q 258 232 221 224 q 340 240 296 240 l 806 240 m 610 925 l 610 796 q 588 614 611 696 q 538 472 565 532 q 463 346 506 403 l 271 346 q 349 475 319 413 q 393 593 378 538 q 413 694 408 649 q 417 772 417 740 l 28 772 l 28 925 l 610 925 m 1094 611 l 1094 461 l 947 461 l 947 318 l 779 318 l 779 1014 l 947 1014 l 947 882 l 1096 882 l 1096 732 l 947 732 l 947 611 l 1094 611 m 821 49 q 806 78 821 65 q 772 92 792 92 l 371 92 q 322 78 331 92 q 313 50 313 64 l 313 15 q 328 -14 313 -6 q 371 -22 343 -22 l 774 -22 q 821 19 821 -22 l 821 49 z "},"걔":{"ha":1199,"x_min":42,"x_max":1101,"o":"m 953 1000 l 1101 1000 l 1101 -157 l 953 -157 l 953 236 l 839 236 l 839 -157 l 676 -157 l 676 1000 l 839 1000 l 839 739 l 953 739 l 953 1000 m 586 694 q 565 542 588 618 q 503 393 542 465 q 412 253 464 321 q 303 127 360 186 q 190 19 247 68 q 81 -65 132 -29 l 79 181 q 208 310 151 239 q 304 450 265 381 q 364 581 343 519 q 388 686 385 643 l 42 686 l 42 860 l 586 860 l 586 694 m 953 576 l 839 576 l 839 414 l 953 414 l 953 576 z "},"걘":{"ha":1168,"x_min":28,"x_max":1086,"o":"m 908 1013 l 1071 1013 l 1071 268 l 908 268 l 908 447 l 806 447 l 806 268 l 643 268 l 643 1013 l 806 1013 l 806 836 l 908 836 l 908 1013 m 1086 -128 l 264 -128 l 264 265 l 438 265 l 438 35 l 1086 35 l 1086 -128 m 569 965 l 569 849 q 547 672 569 753 q 497 528 525 590 q 426 399 465 457 l 239 399 q 303 519 276 458 q 347 635 331 581 q 372 737 364 690 q 381 814 381 783 l 28 814 l 28 965 l 569 965 m 908 581 l 908 703 l 806 703 l 806 581 l 908 581 z "},"걜":{"ha":1164,"x_min":28,"x_max":1068,"o":"m 247 -157 l 247 146 l 879 146 l 879 207 l 247 207 l 247 317 l 1068 317 l 1068 21 l 421 21 l 421 -31 l 1068 -31 l 1068 -157 l 247 -157 m 908 1013 l 1067 1013 l 1067 365 l 908 365 l 908 488 l 806 488 l 806 365 l 647 365 l 647 1013 l 806 1013 l 806 876 l 908 876 l 908 1013 m 239 399 q 306 517 279 458 q 350 629 333 576 q 375 726 367 682 q 385 800 383 769 l 28 800 l 28 951 l 569 951 l 569 853 q 547 680 569 761 q 499 536 525 599 q 466 465 483 500 q 429 399 449 431 l 239 399 m 908 621 l 908 743 l 806 743 l 806 621 l 908 621 z "},"거":{"ha":1104,"x_min":56,"x_max":1007,"o":"m 1007 1000 l 1007 -143 l 824 -143 l 824 381 l 622 381 l 622 571 l 824 571 l 824 1000 l 1007 1000 m 606 889 l 606 724 q 576 543 606 631 q 499 377 546 456 q 393 231 451 299 q 279 109 335 163 q 177 18 224 56 q 106 -37 131 -19 l 106 196 q 233 319 178 253 q 327 454 289 386 q 385 590 365 522 q 408 715 406 657 l 56 715 l 56 889 l 606 889 z "},"걱":{"ha":1086,"x_min":28,"x_max":993,"o":"m 993 244 l 993 82 q 985 -10 993 33 q 965 -85 976 -53 q 951 -122 958 -104 q 938 -156 944 -139 l 756 -156 q 790 -67 779 -112 q 804 14 800 -22 q 808 96 810 57 l 171 96 l 171 244 l 993 244 m 989 1014 l 989 318 l 803 318 l 803 582 l 636 582 l 636 750 l 803 750 l 803 1014 l 989 1014 m 569 821 q 548 648 569 728 q 501 506 526 568 q 433 375 469 433 l 244 375 q 311 495 285 435 q 353 610 338 556 q 376 710 369 664 q 383 786 383 756 l 28 786 l 28 935 l 569 935 l 569 821 z "},"건":{"ha":1085,"x_min":28,"x_max":1015,"o":"m 194 -142 l 194 251 l 368 251 l 368 25 l 1015 25 l 1015 -142 l 194 -142 m 988 1014 l 988 278 l 800 278 l 800 576 l 639 576 l 639 751 l 800 751 l 800 1014 l 988 1014 m 578 794 q 555 610 576 686 q 507 483 533 533 q 438 386 475 424 l 258 386 q 330 492 303 435 q 371 606 357 550 q 389 709 385 661 q 393 788 393 757 l 28 788 l 28 933 l 574 933 l 578 794 z "},"걷":{"ha":1100,"x_min":28,"x_max":1010,"o":"m 1010 124 l 432 124 l 432 -15 l 1010 -15 l 1010 -156 l 229 -156 l 229 264 l 1010 264 l 1010 124 m 581 928 l 581 799 q 559 617 582 699 q 508 475 536 535 q 433 349 476 406 l 242 349 q 319 478 290 415 q 364 596 349 540 q 383 697 379 651 q 388 775 388 743 l 28 775 l 28 928 l 581 928 m 824 1011 l 1003 1011 l 1003 333 l 824 333 l 824 590 l 640 590 l 640 751 l 824 751 l 824 1011 z "},"걸":{"ha":1100,"x_min":28,"x_max":1010,"o":"m 582 940 l 582 825 q 574 721 582 778 q 551 607 565 664 q 518 498 536 550 q 481 408 500 446 l 293 408 q 367 614 342 513 q 393 790 393 715 l 28 790 l 28 940 l 582 940 m 824 1014 l 1003 1014 l 1003 401 l 824 401 l 824 600 l 639 600 l 639 758 l 824 758 l 824 1014 m 189 -157 l 189 146 l 821 146 l 821 207 l 189 207 l 189 329 l 1010 329 l 1010 21 l 363 21 l 363 -31 l 1010 -31 l 1010 -157 l 189 -157 z "},"걺":{"ha":1114,"x_min":28,"x_max":1019,"o":"m 606 325 l 1019 325 l 1019 -156 l 606 -156 l 606 -139 l 169 -139 l 169 143 l 393 143 l 393 213 l 169 213 l 169 325 l 533 325 l 533 47 l 325 47 l 325 -28 l 606 -28 l 606 325 m 889 -28 l 889 213 l 738 213 l 738 -28 l 889 -28 m 582 940 l 582 825 q 569 699 582 763 q 538 580 557 636 q 498 476 519 524 q 457 396 476 429 l 263 396 q 364 607 335 504 q 393 790 393 710 l 28 790 l 28 940 l 582 940 m 838 1014 l 1017 1014 l 1017 389 l 838 389 l 838 600 l 639 600 l 639 758 l 838 758 l 838 1014 z "},"검":{"ha":1128,"x_min":28,"x_max":1035,"o":"m 210 268 l 1035 268 l 1035 -157 l 210 -157 l 210 268 m 857 1014 l 1031 1014 l 1031 333 l 857 333 l 857 590 l 654 590 l 654 751 l 857 751 l 857 1014 m 869 -12 l 869 129 l 375 129 l 375 -12 l 869 -12 m 596 942 l 596 813 q 574 631 597 713 q 524 489 551 549 q 449 363 492 419 l 257 363 q 335 492 306 429 q 379 610 364 554 q 399 711 394 665 q 403 789 403 757 l 28 789 l 28 942 l 596 942 z "},"겁":{"ha":1129,"x_min":28,"x_max":1032,"o":"m 596 942 l 596 813 q 574 631 597 713 q 524 489 551 549 q 449 363 492 419 l 257 363 q 335 492 306 429 q 379 610 364 554 q 399 711 394 665 q 403 789 403 757 l 28 789 l 28 942 l 596 942 m 857 1011 l 1032 1011 l 1032 333 l 857 333 l 857 590 l 656 590 l 656 751 l 857 751 l 857 1011 m 1032 -156 l 218 -156 l 218 268 l 396 268 l 396 171 l 864 171 l 864 268 l 1032 268 l 1032 -156 m 396 -33 l 864 -33 l 864 61 l 396 61 l 396 -33 z "},"것":{"ha":1114,"x_min":28,"x_max":1031,"o":"m 596 810 q 573 619 596 701 q 522 481 550 536 q 450 369 492 418 l 267 369 q 340 477 313 417 q 383 597 368 538 q 401 708 397 657 q 403 790 404 760 l 28 790 l 28 942 l 596 942 l 596 810 m 765 315 q 786 247 772 283 q 819 171 800 210 q 859 92 838 132 q 903 17 881 53 q 1014 -157 951 -67 l 819 -157 q 765 -82 792 -126 q 715 4 738 -37 l 665 104 q 598 -26 636 38 q 510 -157 560 -90 l 293 -157 q 407 -11 357 -90 q 493 143 457 68 q 565 315 533 225 l 765 315 m 1031 1011 l 1031 296 l 858 296 l 858 589 l 671 589 l 671 750 l 858 750 l 858 1011 l 1031 1011 z "},"겄":{"ha":1129,"x_min":28,"x_max":1090,"o":"m 596 928 l 596 799 q 574 617 597 699 q 524 475 551 535 q 449 349 492 406 l 257 349 q 335 478 306 415 q 379 596 364 540 q 399 697 394 651 q 403 775 403 743 l 28 775 l 28 928 l 596 928 m 846 1011 l 1032 1011 l 1032 319 l 846 319 l 846 590 l 656 590 l 656 751 l 846 751 l 846 1011 m 869 244 q 913 119 878 188 q 988 -11 947 51 q 1037 -84 1011 -47 q 1090 -157 1063 -121 l 901 -157 q 836 -60 869 -115 q 772 49 803 -4 q 758 18 765 33 q 740 -14 750 3 q 699 -79 724 -42 q 640 -157 674 -117 l 463 -157 q 492 -121 478 -137 q 525 -78 506 -104 q 491 -34 506 -57 q 465 8 476 -11 q 444 53 451 33 q 390 -51 421 -4 q 317 -157 360 -97 l 119 -157 q 267 61 215 -43 q 343 244 318 165 l 529 244 q 561 138 536 189 q 611 44 586 86 q 656 141 635 85 q 685 244 676 197 l 869 244 z "},"겅":{"ha":1129,"x_min":28,"x_max":1050,"o":"m 596 928 l 596 799 q 574 617 597 699 q 524 475 551 535 q 449 349 492 406 l 257 349 q 335 478 306 415 q 379 596 364 540 q 399 697 394 651 q 403 775 403 743 l 28 775 l 28 928 l 596 928 m 854 1011 l 1032 1011 l 1032 324 l 854 324 l 854 590 l 656 590 l 656 751 l 854 751 l 854 1011 m 888 264 q 948 253 918 264 q 1000 224 978 243 q 1036 179 1022 206 q 1050 121 1050 153 l 1050 -21 q 1008 -117 1050 -79 q 901 -156 965 -156 l 363 -156 q 318 -147 344 -156 q 268 -122 292 -139 q 227 -80 244 -106 q 210 -18 210 -54 l 210 121 q 238 185 215 158 q 289 230 260 213 q 349 256 318 247 q 401 264 379 264 l 888 264 m 458 122 q 402 110 418 122 q 386 82 386 97 l 388 24 q 410 -12 389 -7 q 458 -18 431 -18 l 829 -18 q 870 -7 853 -18 q 888 24 888 4 l 888 72 q 870 107 888 92 q 828 122 853 122 l 458 122 z "},"겆":{"ha":1129,"x_min":28,"x_max":1043,"o":"m 596 928 l 596 799 q 574 649 597 726 q 524 508 551 572 q 449 363 490 433 l 257 363 q 369 603 336 497 q 403 775 403 708 l 28 775 l 28 928 l 596 928 m 854 1011 l 1032 1011 l 1032 333 l 854 333 l 854 590 l 656 590 l 656 751 l 854 751 l 854 1011 m 250 138 l 250 281 l 1035 281 l 1035 138 l 775 138 q 825 83 796 108 q 890 38 854 58 q 964 -1 925 17 q 1043 -32 1003 -18 l 1043 -156 q 942 -133 999 -150 q 828 -87 885 -115 q 722 -24 771 -60 q 643 57 672 13 q 468 -85 568 -35 q 246 -172 368 -136 l 246 -28 q 513 138 414 29 l 250 138 z "},"겉":{"ha":1099,"x_min":28,"x_max":1006,"o":"m 1006 301 l 1006 193 l 372 193 l 372 135 l 1006 135 l 1006 14 l 372 14 l 372 -43 l 1006 -43 l 1006 -156 l 193 -156 l 193 301 l 1006 301 m 576 807 q 554 622 575 699 q 507 496 533 546 q 438 399 475 436 l 257 399 q 330 503 303 446 q 371 617 357 561 q 388 722 385 674 q 392 800 392 771 l 28 800 l 28 944 l 574 944 l 576 807 m 1001 1013 l 1001 363 l 828 363 l 828 590 l 654 590 l 654 751 l 828 751 l 828 1013 l 1001 1013 z "},"겊":{"ha":1115,"x_min":28,"x_max":1035,"o":"m 582 928 l 582 799 q 563 651 583 724 q 517 517 542 579 q 485 447 501 481 q 449 381 468 413 l 257 381 q 389 775 389 644 l 28 775 l 28 928 l 582 928 m 844 1011 l 1018 1011 l 1018 356 l 844 356 l 844 590 l 642 590 l 642 751 l 844 751 l 844 1011 m 1035 140 l 890 140 l 847 -19 l 1025 -19 l 1025 -156 l 206 -156 l 206 -19 l 386 -19 l 343 140 l 206 140 l 206 288 l 1035 288 l 1035 140 m 701 -19 l 740 140 l 494 140 l 535 -19 l 701 -19 z "},"겋":{"ha":1142,"x_min":28,"x_max":1061,"o":"m 571 940 l 571 825 q 559 699 571 761 q 529 580 547 636 q 490 476 511 524 q 450 396 468 429 l 254 396 q 356 607 326 504 q 385 790 385 710 l 28 790 l 28 940 l 571 940 m 858 1014 l 1044 1014 l 1044 389 l 858 389 l 858 600 l 646 600 l 646 763 l 858 763 l 858 1014 m 1061 282 l 1061 153 l 924 153 q 983 106 964 138 q 1001 36 1001 74 l 1001 -21 q 988 -76 1001 -51 q 951 -119 974 -101 q 898 -146 928 -136 q 835 -156 868 -156 l 464 -156 q 379 -144 413 -156 q 326 -113 346 -132 q 297 -69 306 -94 q 289 -19 289 -44 l 289 31 q 311 105 289 69 q 375 153 333 140 l 244 153 l 244 282 l 556 282 l 556 372 l 742 372 l 742 282 l 1061 282 m 765 -44 q 823 -26 806 -44 q 840 24 840 -8 q 814 84 840 64 q 747 104 788 104 l 531 104 q 478 83 501 104 q 456 29 456 61 q 474 -28 456 -11 q 522 -44 493 -44 l 765 -44 z "},"게":{"ha":1239,"x_min":56,"x_max":1142,"o":"m 592 908 l 592 747 q 562 563 592 653 q 485 394 532 474 q 382 244 439 314 q 269 120 325 175 q 167 27 214 65 q 94 -31 121 -11 l 94 203 q 217 330 163 263 q 310 466 271 397 q 370 601 349 535 q 396 729 392 668 l 56 729 l 56 908 l 592 908 m 726 1014 l 890 1014 l 890 -156 l 726 -156 l 726 390 l 569 390 l 569 575 l 726 575 l 726 1014 m 1142 1014 l 1142 -156 l 978 -156 l 978 1014 l 1142 1014 z "},"겐":{"ha":1188,"x_min":28,"x_max":1099,"o":"m 542 965 l 542 821 q 519 629 540 708 q 469 499 497 550 q 399 399 438 438 l 211 399 q 287 508 258 449 q 330 625 315 568 q 349 732 344 682 q 353 814 353 782 l 28 814 l 28 965 l 542 965 m 694 742 l 694 1014 l 849 1014 l 849 275 l 694 275 l 694 572 l 551 572 l 551 742 l 694 742 m 933 1014 l 1090 1014 l 1090 275 l 933 275 l 933 1014 m 1099 -128 l 276 -128 l 276 265 l 436 265 l 436 39 l 1099 39 l 1099 -128 z "},"겔":{"ha":1172,"x_min":28,"x_max":1075,"o":"m 247 -157 l 247 146 l 879 146 l 879 207 l 247 207 l 247 317 l 1068 317 l 1068 21 l 421 21 l 421 -31 l 1068 -31 l 1068 -157 l 247 -157 m 679 765 l 679 1014 l 833 1014 l 832 358 l 679 358 l 679 604 l 526 604 q 494 519 511 557 q 463 454 478 482 q 446 424 454 439 q 429 399 438 410 l 239 399 q 313 524 285 465 q 358 635 342 583 q 379 728 374 686 q 385 800 385 769 l 28 800 l 28 951 l 569 951 l 569 853 q 568 808 569 829 q 564 765 567 786 l 679 765 m 918 1014 l 1075 1014 l 1075 358 l 918 358 l 918 1014 z "},"겜":{"ha":1200,"x_min":28,"x_max":1103,"o":"m 542 965 l 542 821 q 519 629 540 708 q 469 499 497 550 q 399 399 438 438 l 211 399 q 287 508 258 449 q 330 625 315 568 q 349 732 344 682 q 353 814 353 782 l 28 814 l 28 965 l 542 965 m 707 756 l 707 1014 l 861 1014 l 860 317 l 707 317 l 707 586 l 557 586 l 557 756 l 707 756 m 946 1014 l 1103 1014 l 1103 317 l 946 317 l 946 1014 m 278 268 l 1103 268 l 1103 -149 l 278 -149 l 278 268 m 950 1 l 950 118 l 429 118 l 429 1 l 950 1 z "},"겝":{"ha":1200,"x_min":28,"x_max":1103,"o":"m 542 965 l 542 821 q 519 629 540 708 q 469 499 497 550 q 399 399 438 438 l 211 399 q 287 508 258 449 q 330 625 315 568 q 349 732 344 682 q 353 814 353 782 l 28 814 l 28 965 l 542 965 m 707 756 l 707 1014 l 861 1014 l 860 317 l 707 317 l 707 586 l 557 586 l 557 756 l 707 756 m 946 1014 l 1103 1014 l 1103 317 l 946 317 l 946 1014 m 1103 -156 l 331 -156 l 331 261 l 507 261 l 507 160 l 936 160 l 936 261 l 1103 261 l 1103 -156 m 507 -33 l 936 -33 l 936 50 l 507 50 l 507 -33 z "},"겟":{"ha":1188,"x_min":28,"x_max":1090,"o":"m 542 924 l 542 779 q 520 592 542 678 q 472 440 499 507 q 440 367 457 401 q 403 301 422 333 l 211 301 q 287 448 258 376 q 330 581 315 519 q 349 692 344 643 q 353 772 353 742 l 28 772 l 28 924 l 542 924 m 694 728 l 694 1014 l 849 1014 l 849 303 l 694 303 l 694 558 l 565 558 l 565 728 l 694 728 m 933 1014 l 1090 1014 l 1090 288 l 933 288 l 933 1014 m 785 231 q 840 132 807 183 q 912 29 874 81 q 990 -69 950 -22 q 1063 -156 1029 -117 l 857 -156 q 772 -52 811 -100 q 697 50 733 -4 q 621 -55 663 1 q 536 -156 579 -111 l 321 -156 q 447 -10 392 -81 q 540 114 501 60 q 583 175 564 146 q 619 232 603 204 l 785 231 z "},"겠":{"ha":1200,"x_min":28,"x_max":1132,"o":"m 542 965 l 542 821 q 519 629 540 708 q 469 499 497 550 q 399 399 438 438 l 211 399 q 287 508 258 449 q 330 625 315 568 q 349 732 344 682 q 353 814 353 782 l 28 814 l 28 965 l 542 965 m 707 756 l 707 1014 l 861 1014 l 860 317 l 707 317 l 707 586 l 557 586 l 557 756 l 707 756 m 946 1014 l 1103 1014 l 1103 317 l 946 317 l 946 1014 m 911 231 q 954 108 919 175 q 1029 -18 989 40 q 1132 -157 1076 -90 l 943 -157 q 878 -60 911 -115 q 814 49 844 -4 q 799 18 807 33 q 782 -14 792 3 q 740 -79 765 -42 q 682 -157 715 -117 l 504 -157 q 533 -121 519 -137 q 567 -78 547 -104 q 533 -34 547 -57 q 507 8 518 -11 q 486 53 493 33 q 432 -51 463 -4 q 358 -157 401 -97 l 161 -157 q 308 54 257 -43 q 385 231 360 151 l 571 231 q 603 131 578 175 q 653 44 628 86 q 697 135 676 85 q 726 231 718 185 l 911 231 z "},"겡":{"ha":1200,"x_min":28,"x_max":1104,"o":"m 942 236 q 1002 226 972 236 q 1054 197 1032 215 q 1090 151 1076 178 q 1104 93 1104 125 l 1104 -21 q 1062 -117 1104 -79 q 956 -156 1019 -156 l 417 -156 q 375 -148 399 -156 q 328 -124 351 -140 q 288 -83 306 -108 q 264 -22 269 -58 l 264 93 q 292 158 269 131 q 343 202 314 185 q 403 228 372 219 q 456 236 433 236 l 942 236 m 542 965 l 542 821 q 519 629 540 708 q 469 499 497 550 q 399 399 438 438 l 211 399 q 287 508 258 449 q 330 625 315 568 q 349 732 344 682 q 353 814 353 782 l 28 814 l 28 965 l 542 965 m 707 756 l 707 1014 l 861 1014 l 860 317 l 707 317 l 707 586 l 557 586 l 557 756 l 707 756 m 946 1014 l 1103 1014 l 1103 317 l 946 317 l 946 1014 m 513 92 q 460 78 472 92 q 440 51 447 65 l 439 15 q 468 -17 451 -12 q 513 -21 485 -21 l 883 -21 q 924 -12 907 -21 q 942 15 942 -4 l 942 42 q 924 76 942 61 q 882 92 907 92 l 513 92 z "},"겨":{"ha":1200,"x_min":56,"x_max":1103,"o":"m 56 889 l 642 889 l 642 740 q 619 590 642 664 q 558 448 596 517 q 472 317 519 379 q 374 203 424 256 q 247 82 314 140 q 106 -29 181 24 l 106 193 q 240 321 178 251 q 349 460 303 390 q 423 597 396 531 q 453 717 450 664 l 56 717 l 56 889 m 906 1011 l 1103 1011 l 1103 -157 l 906 -157 l 906 221 l 721 221 l 721 383 l 906 383 l 906 540 l 721 540 l 721 704 l 906 704 l 906 1011 z "},"격":{"ha":1165,"x_min":28,"x_max":1068,"o":"m 610 928 l 610 799 q 588 617 611 699 q 538 475 565 535 q 463 349 506 406 l 271 349 q 349 478 319 415 q 393 596 378 540 q 413 697 408 651 q 417 775 417 743 l 28 775 l 28 928 l 610 928 m 874 1011 l 1068 1011 l 1068 343 l 874 343 l 874 485 l 681 485 l 681 629 l 874 629 l 874 742 l 681 742 l 681 886 l 874 886 l 874 1011 m 229 271 l 1068 271 l 1068 107 l 1067 107 q 1056 7 1065 54 q 1036 -76 1047 -40 q 1007 -156 1021 -121 l 833 -156 q 869 -61 857 -108 q 888 24 882 -14 q 892 67 890 46 q 893 107 893 88 l 229 107 l 229 271 z "},"겪":{"ha":1165,"x_min":28,"x_max":1068,"o":"m 610 928 l 610 799 q 588 617 611 699 q 538 475 565 535 q 463 349 506 406 l 271 349 q 349 478 319 415 q 393 596 378 540 q 413 697 408 651 q 417 775 417 743 l 28 775 l 28 928 l 610 928 m 874 1011 l 1068 1011 l 1068 343 l 874 343 l 874 485 l 681 485 l 681 629 l 874 629 l 874 742 l 681 742 l 681 886 l 874 886 l 874 1011 m 694 250 l 1064 250 l 1064 104 q 1053 7 1063 53 q 1033 -74 1044 -39 q 1019 -112 1026 -93 q 1006 -149 1013 -131 l 821 -149 q 857 -60 844 -103 q 875 17 869 -17 q 879 54 878 36 q 881 90 881 72 l 694 90 l 694 250 m 208 250 l 647 250 l 647 118 q 637 19 646 67 q 617 -67 628 -29 q 603 -109 610 -89 q 589 -149 596 -129 l 404 -149 q 440 -60 428 -103 q 458 17 453 -17 q 463 54 461 36 q 464 90 464 72 l 208 90 l 208 250 z "},"견":{"ha":1149,"x_min":28,"x_max":1086,"o":"m 610 928 l 610 799 q 588 617 611 699 q 538 475 565 535 q 463 349 506 406 l 271 349 q 349 478 319 415 q 393 596 378 540 q 413 697 408 651 q 417 775 417 743 l 28 775 l 28 928 l 610 928 m 857 1011 l 1051 1011 l 1051 261 l 857 261 l 857 453 l 664 453 l 664 606 l 857 606 l 857 708 l 664 708 l 664 861 l 857 861 l 857 1011 m 1086 -128 l 264 -128 l 264 265 l 449 265 l 449 32 l 1086 32 l 1086 -128 z "},"겯":{"ha":1165,"x_min":28,"x_max":1071,"o":"m 610 928 l 610 799 q 588 617 611 699 q 538 475 565 535 q 463 349 506 406 l 271 349 q 349 478 319 415 q 393 596 378 540 q 413 697 408 651 q 417 775 417 743 l 28 775 l 28 928 l 610 928 m 874 1011 l 1068 1011 l 1068 343 l 874 343 l 874 485 l 681 485 l 681 629 l 874 629 l 874 742 l 681 742 l 681 886 l 874 886 l 874 1011 m 1071 124 l 472 124 l 472 -15 l 1071 -15 l 1071 -156 l 276 -156 l 276 264 l 1071 264 l 1071 124 z "},"결":{"ha":1094,"x_min":28,"x_max":997,"o":"m 578 838 q 555 642 576 724 q 506 508 533 561 q 433 406 475 447 l 243 406 q 320 517 292 457 q 363 637 349 578 q 382 747 378 696 q 386 831 386 799 l 28 831 l 28 983 l 578 983 l 578 838 m 997 1014 l 997 403 l 821 403 l 821 497 l 642 497 l 642 647 l 821 647 l 821 747 l 644 747 l 644 894 l 821 894 l 821 1014 l 997 1014 m 175 -157 l 175 146 l 807 146 l 807 207 l 175 207 l 175 329 l 996 329 l 996 21 l 349 21 l 349 -31 l 996 -31 l 996 -157 l 175 -157 z "},"겸":{"ha":1165,"x_min":28,"x_max":1076,"o":"m 610 928 l 610 799 q 588 617 611 699 q 538 475 565 535 q 463 349 506 406 l 271 349 q 349 478 319 415 q 393 596 378 540 q 413 697 408 651 q 417 775 417 743 l 28 775 l 28 928 l 610 928 m 874 1011 l 1068 1011 l 1068 343 l 874 343 l 874 485 l 681 485 l 681 629 l 874 629 l 874 742 l 681 742 l 681 886 l 874 886 l 874 1011 m 265 268 l 1076 268 l 1076 -149 l 265 -149 l 265 268 m 924 1 l 924 118 l 417 118 l 417 1 l 924 1 z "},"겹":{"ha":1165,"x_min":28,"x_max":1076,"o":"m 610 928 l 610 799 q 588 617 611 699 q 538 475 565 535 q 463 349 506 406 l 271 349 q 349 478 319 415 q 393 596 378 540 q 413 697 408 651 q 417 775 417 743 l 28 775 l 28 928 l 610 928 m 874 1011 l 1068 1011 l 1068 343 l 874 343 l 874 485 l 681 485 l 681 629 l 874 629 l 874 742 l 681 742 l 681 886 l 874 886 l 874 1011 m 1076 -156 l 276 -156 l 276 261 l 453 261 l 453 160 l 910 160 l 910 261 l 1076 261 l 1076 -156 m 453 -33 l 910 -33 l 910 50 l 453 50 l 453 -33 z "},"겻":{"ha":1149,"x_min":28,"x_max":1051,"o":"m 610 928 l 610 799 q 588 617 611 699 q 538 475 565 535 q 463 349 506 406 l 271 349 q 349 478 319 415 q 393 596 378 540 q 413 697 408 651 q 417 775 417 743 l 28 775 l 28 928 l 610 928 m 857 1011 l 1051 1011 l 1051 261 l 857 261 l 857 453 l 664 453 l 664 606 l 857 606 l 857 708 l 664 708 l 664 861 l 857 861 l 857 1011 m 744 231 q 800 132 767 183 q 872 29 833 81 q 949 -69 910 -22 q 1022 -156 989 -117 l 817 -156 q 732 -52 771 -100 q 657 50 693 -4 q 581 -55 622 1 q 496 -156 539 -111 l 281 -156 q 406 -10 351 -81 q 500 114 461 60 q 543 175 524 146 q 579 232 563 204 l 744 231 z "},"겼":{"ha":1165,"x_min":28,"x_max":1106,"o":"m 610 928 l 610 799 q 588 617 611 699 q 538 475 565 535 q 463 349 506 406 l 271 349 q 349 478 319 415 q 393 596 378 540 q 413 697 408 651 q 417 775 417 743 l 28 775 l 28 928 l 610 928 m 874 1011 l 1068 1011 l 1068 343 l 874 343 l 874 468 l 681 468 l 681 613 l 874 613 l 874 728 l 681 728 l 681 872 l 874 872 l 874 1011 m 885 231 q 928 108 893 175 q 1003 -18 963 40 q 1106 -157 1050 -90 l 917 -157 q 851 -60 885 -115 q 788 49 818 -4 q 773 18 781 33 q 756 -14 765 3 q 714 -79 739 -42 q 656 -157 689 -117 l 478 -157 q 507 -121 493 -137 q 540 -78 521 -104 q 506 -34 521 -57 q 481 8 492 -11 q 460 53 467 33 q 406 -51 436 -4 q 332 -157 375 -97 l 135 -157 q 282 54 231 -43 q 358 231 333 151 l 544 231 q 576 131 551 175 q 626 44 601 86 q 671 135 650 85 q 700 231 692 185 l 885 231 z "},"경":{"ha":1128,"x_min":28,"x_max":1035,"o":"m 868 246 q 931 235 901 246 q 984 205 961 225 q 1021 158 1007 185 q 1035 97 1035 131 l 1035 -19 q 991 -118 1035 -79 q 883 -157 947 -157 l 326 -157 q 215 -118 260 -157 q 171 -19 171 -79 l 171 97 q 189 166 171 138 q 234 212 207 194 q 293 238 261 229 q 353 246 325 246 l 868 246 m 596 811 q 573 619 594 699 q 524 489 551 540 q 490 433 508 458 q 451 389 471 408 l 265 389 q 340 498 313 439 q 383 615 368 557 q 401 722 397 672 q 406 804 406 772 l 28 804 l 28 954 l 593 954 l 596 811 m 1031 1014 l 1031 308 l 858 308 l 858 454 l 678 454 l 678 600 l 858 600 l 858 726 l 678 726 l 678 871 l 858 871 l 858 1014 l 1031 1014 m 428 96 q 373 83 388 96 q 351 56 358 69 l 351 18 q 383 -15 364 -10 q 429 -21 401 -21 l 807 -21 q 851 -12 832 -21 q 869 18 869 -3 l 869 44 q 851 81 869 65 q 807 96 832 96 l 428 96 z "},"곁":{"ha":1143,"x_min":28,"x_max":1050,"o":"m 235 -156 l 235 311 l 1050 311 l 1050 190 l 418 190 l 418 131 l 1050 131 l 1050 13 l 418 13 l 418 -46 l 1050 -46 l 1050 -156 l 235 -156 m 851 1011 l 1046 1011 l 1046 385 l 851 385 l 851 483 l 658 483 l 658 635 l 851 635 l 851 744 l 658 744 l 658 896 l 851 896 l 851 1011 m 569 940 l 569 825 q 558 699 569 761 q 528 580 546 636 q 488 476 510 524 q 449 396 467 429 l 253 396 q 354 607 325 504 q 383 790 383 710 l 28 790 l 28 940 l 569 940 z "},"계":{"ha":1232,"x_min":56,"x_max":1135,"o":"m 696 1013 l 868 1013 l 868 -156 l 696 -156 l 696 160 l 540 160 l 540 319 l 696 319 l 696 492 l 568 492 l 568 650 l 696 650 l 696 1013 m 544 888 l 544 722 q 524 578 544 649 q 471 444 504 508 q 396 320 438 379 q 311 211 354 261 q 202 99 260 153 q 79 -7 144 44 l 79 225 q 202 351 151 283 q 285 485 253 419 q 333 611 318 551 q 351 713 349 671 l 56 713 l 56 888 l 544 888 m 1135 1013 l 1135 -156 l 969 -156 l 969 1013 l 1135 1013 z "},"곈":{"ha":1200,"x_min":28,"x_max":1103,"o":"m 1099 -128 l 239 -128 l 239 265 l 426 265 l 426 32 l 1099 32 l 1099 -128 m 707 867 l 707 1014 l 861 1014 l 861 275 l 707 275 l 707 442 l 572 442 l 572 597 l 707 597 l 707 711 l 571 711 l 571 867 l 707 867 m 542 965 l 542 821 q 519 629 540 708 q 469 499 497 550 q 399 399 438 438 l 211 399 q 287 508 258 449 q 330 625 315 568 q 349 732 344 682 q 353 814 353 782 l 28 814 l 28 965 l 542 965 m 946 1014 l 1103 1014 l 1103 275 l 946 275 l 946 1014 z "},"곌":{"ha":1172,"x_min":28,"x_max":1075,"o":"m 222 -157 l 222 146 l 886 146 l 886 207 l 222 207 l 222 317 l 1075 317 l 1075 21 l 396 21 l 396 -31 l 1075 -31 l 1075 -157 l 222 -157 m 679 881 l 679 1014 l 833 1014 l 832 372 l 679 372 l 679 511 l 517 511 l 517 575 q 486 502 501 535 q 458 446 471 469 q 444 421 451 432 q 429 399 436 410 l 239 399 q 313 524 285 465 q 358 635 342 583 q 379 728 374 686 q 385 800 385 769 l 28 800 l 28 951 l 569 951 l 569 881 l 679 881 m 918 1014 l 1075 1014 l 1075 372 l 918 372 l 918 1014 m 679 653 l 679 739 l 560 739 q 551 694 556 715 q 542 653 547 672 l 679 653 z "},"곕":{"ha":1174,"x_min":28,"x_max":1103,"o":"m 1103 -156 l 249 -156 l 249 289 l 432 289 l 432 197 l 929 197 l 929 289 l 1103 289 l 1103 -156 m 542 965 l 542 821 q 519 629 540 708 q 469 499 497 550 q 399 399 438 438 l 211 399 q 287 508 258 449 q 330 625 315 568 q 349 732 344 682 q 353 814 353 782 l 28 814 l 28 965 l 542 965 m 707 885 l 707 1014 l 861 1014 l 860 349 l 707 349 l 707 460 l 572 460 l 572 615 l 707 615 l 707 729 l 571 729 l 571 885 l 707 885 m 946 1014 l 1103 1014 l 1103 349 l 946 349 l 946 1014 m 432 -19 l 929 -19 l 929 74 l 432 74 l 432 -19 z "},"곗":{"ha":1186,"x_min":28,"x_max":1089,"o":"m 693 853 l 693 1014 l 847 1014 l 846 289 l 693 289 l 693 428 l 544 428 l 544 583 l 693 583 l 693 697 l 543 697 l 543 853 l 693 853 m 743 232 q 799 133 765 185 q 870 31 832 82 q 948 -69 908 -21 q 1021 -156 988 -117 l 815 -156 q 731 -52 769 -100 q 656 50 692 -4 q 579 -55 621 1 q 494 -156 538 -111 l 279 -156 q 405 -10 350 -81 q 499 114 460 60 q 542 175 522 146 q 578 232 561 204 l 743 232 m 932 1014 l 1089 1014 l 1089 275 l 932 275 l 932 1014 m 500 924 l 500 779 q 478 592 500 678 q 431 440 457 507 q 398 367 415 401 q 361 301 381 333 l 169 301 q 245 448 217 376 q 288 581 274 519 q 307 692 303 643 q 311 772 311 742 l 28 772 l 28 924 l 500 924 z "},"고":{"ha":1186,"x_min":56,"x_max":1131,"o":"m 1006 969 l 1006 804 q 995 625 1006 711 q 969 465 985 539 q 933 334 953 392 q 896 240 914 276 l 711 240 q 767 414 746 329 q 798 572 788 499 q 810 706 808 646 q 807 803 811 765 l 158 803 l 158 969 l 1006 969 m 1131 11 l 56 11 l 56 174 l 454 174 l 454 493 l 639 493 l 639 174 l 1131 174 l 1131 11 z "},"곡":{"ha":1181,"x_min":56,"x_max":1125,"o":"m 1125 539 l 1125 376 l 56 376 l 56 539 l 493 539 l 493 714 l 671 714 l 671 539 l 782 539 q 816 658 803 601 q 836 758 829 715 q 849 853 844 807 l 178 853 l 178 1013 l 1019 1013 l 1019 853 q 1009 768 1018 814 q 990 678 1000 722 q 968 597 979 635 q 951 539 957 560 l 1125 539 m 168 250 l 1010 250 l 1010 118 q 999 18 1008 67 q 979 -68 990 -31 q 965 -112 972 -92 q 951 -153 958 -133 l 778 -153 q 807 -53 797 -97 q 822 24 817 -8 q 826 58 825 42 q 829 90 828 75 l 168 90 l 168 250 z "},"곤":{"ha":1181,"x_min":56,"x_max":1125,"o":"m 1125 539 l 1125 376 l 56 376 l 56 539 l 479 539 l 479 714 l 657 714 l 657 539 l 768 539 q 802 658 789 601 q 822 758 815 715 q 835 853 831 807 l 178 853 l 178 1013 l 1019 1013 l 1019 853 q 1009 768 1018 814 q 990 678 1000 722 q 968 597 979 635 q 951 539 957 560 l 1125 539 m 1042 -143 l 167 -143 l 167 274 l 338 274 l 338 35 l 1042 35 l 1042 -143 z "},"곧":{"ha":1181,"x_min":56,"x_max":1125,"o":"m 1125 539 l 1125 376 l 56 376 l 56 539 l 479 539 l 479 714 l 657 714 l 657 539 l 768 539 q 802 658 789 601 q 822 758 815 715 q 835 853 831 807 l 178 853 l 178 1013 l 1019 1013 l 1019 853 q 1009 768 1018 814 q 990 678 1000 722 q 968 597 979 635 q 951 539 957 560 l 1125 539 m 1031 124 l 376 124 l 376 -15 l 1031 -15 l 1031 -156 l 181 -156 l 181 264 l 1031 264 l 1031 124 z "},"골":{"ha":1181,"x_min":56,"x_max":1125,"o":"m 1125 565 l 1125 403 l 56 403 l 56 565 l 451 565 l 451 728 l 629 728 l 629 565 l 776 565 q 806 676 796 624 q 824 768 817 728 l 835 853 l 178 853 l 178 1013 l 1019 1013 l 1019 853 q 1012 781 1018 819 q 997 702 1006 742 q 978 627 988 663 q 960 565 968 592 l 1125 565 m 172 -157 l 172 150 l 825 150 l 825 208 l 172 208 l 172 322 l 1021 322 l 1021 24 l 351 24 l 351 -28 l 1021 -28 l 1021 -158 l 167 -158 l 172 -157 z "},"곪":{"ha":1181,"x_min":56,"x_max":1125,"o":"m 1125 565 l 1125 403 l 56 403 l 56 565 l 451 565 l 451 728 l 629 728 l 629 565 l 776 565 q 806 676 796 624 q 824 768 817 728 l 835 853 l 178 853 l 178 1013 l 1019 1013 l 1019 853 q 1012 781 1018 819 q 997 702 1006 742 q 978 627 988 663 q 960 565 968 592 l 1125 565 m 596 325 l 1008 325 l 1008 -156 l 596 -156 l 596 -139 l 168 -139 l 168 143 l 389 143 l 389 213 l 168 213 l 168 325 l 532 325 l 532 47 l 324 47 l 324 -28 l 596 -28 l 596 325 m 881 -28 l 881 213 l 736 213 l 736 -28 l 881 -28 z "},"곬":{"ha":1181,"x_min":56,"x_max":1125,"o":"m 1125 565 l 1125 403 l 56 403 l 56 565 l 451 565 l 451 728 l 629 728 l 629 565 l 776 565 q 806 676 796 624 q 824 768 817 728 l 835 853 l 178 853 l 178 1013 l 1019 1013 l 1019 853 q 1012 781 1018 819 q 997 702 1006 742 q 978 627 988 663 q 960 565 968 592 l 1125 565 m 929 278 q 943 228 933 260 q 967 160 953 197 q 997 81 981 122 q 1028 1 1013 39 q 1060 -65 1044 -36 q 1088 -110 1075 -94 l 917 -111 q 879 -15 897 -69 q 844 93 861 40 q 803 -18 825 35 q 756 -111 781 -71 l 604 -111 l 604 -149 l 206 -149 l 206 133 l 443 133 l 443 203 l 206 203 l 206 315 l 583 315 l 583 38 l 361 38 l 361 -37 l 604 -37 l 604 -97 q 651 -10 625 -62 q 700 97 676 43 q 742 201 724 151 q 769 278 761 250 l 929 278 z "},"곯":{"ha":1181,"x_min":56,"x_max":1125,"o":"m 1125 565 l 1125 403 l 56 403 l 56 565 l 451 565 l 451 728 l 629 728 l 629 565 l 776 565 q 806 676 796 624 q 824 768 817 728 l 835 853 l 178 853 l 178 1013 l 1019 1013 l 1019 853 q 1012 781 1018 819 q 997 702 1006 742 q 978 627 988 663 q 960 565 968 592 l 1125 565 m 1081 247 l 1081 153 l 975 153 q 1015 115 999 140 q 1032 58 1032 89 l 1032 -44 q 1001 -125 1032 -93 q 921 -157 969 -157 l 761 -157 q 713 -149 736 -157 q 672 -125 690 -140 q 644 -90 654 -110 q 633 -44 633 -69 l 633 58 q 650 115 633 89 q 690 153 667 140 l 589 153 l 589 247 l 758 247 l 758 326 l 899 326 l 899 247 l 1081 247 m 590 -40 l 590 -151 l 192 -151 l 192 131 l 400 131 l 400 200 l 192 200 l 192 313 l 556 313 l 556 35 l 361 35 l 361 -40 l 590 -40 m 899 39 q 885 72 899 58 q 853 86 872 86 l 815 86 q 783 72 796 86 q 769 39 769 58 l 769 -19 q 783 -53 769 -39 q 815 -67 796 -67 l 853 -67 q 885 -53 872 -67 q 899 -19 899 -39 l 899 39 z "},"곰":{"ha":1181,"x_min":56,"x_max":1125,"o":"m 1125 539 l 1125 376 l 56 376 l 56 539 l 479 539 l 479 714 l 657 714 l 657 539 l 768 539 q 802 658 789 601 q 822 758 815 715 q 835 853 831 807 l 178 853 l 178 1013 l 1019 1013 l 1019 853 q 1009 768 1018 814 q 990 678 1000 722 q 968 597 979 635 q 951 539 957 560 l 1125 539 m 188 283 l 1015 283 l 1015 -133 l 188 -133 l 188 283 m 874 17 l 874 133 l 339 133 l 339 17 l 874 17 z "},"곱":{"ha":1181,"x_min":56,"x_max":1125,"o":"m 1125 539 l 1125 376 l 56 376 l 56 539 l 479 539 l 479 714 l 657 714 l 657 539 l 768 539 q 802 658 789 601 q 822 758 815 715 q 835 853 831 807 l 178 853 l 178 1013 l 1019 1013 l 1019 853 q 1009 768 1018 814 q 990 678 1000 722 q 968 597 979 635 q 951 539 957 560 l 1125 539 m 1003 -154 l 176 -154 l 176 290 l 351 290 l 351 189 l 836 189 l 836 290 l 1003 290 l 1003 -154 m 351 -18 l 836 -18 l 836 64 l 351 64 l 351 -18 z "},"곳":{"ha":1181,"x_min":56,"x_max":1125,"o":"m 1125 389 l 56 389 l 56 551 l 479 551 l 479 714 l 657 714 l 657 551 l 772 551 q 804 667 792 614 q 824 763 817 721 l 835 853 l 178 853 l 178 1013 l 1019 1013 l 1019 853 q 1010 774 1018 817 q 993 690 1003 732 q 973 612 983 649 q 956 551 963 575 l 1125 551 l 1125 389 m 689 328 q 736 187 703 258 q 809 50 769 115 q 888 -69 849 -15 q 954 -157 928 -124 l 754 -157 q 708 -87 733 -129 q 658 -7 682 -46 q 632 40 644 17 q 606 88 619 64 l 447 -157 l 235 -157 q 350 -7 297 -90 q 440 151 403 76 q 482 239 463 194 q 519 328 501 283 l 689 328 z "},"공":{"ha":1194,"x_min":56,"x_max":1139,"o":"m 767 508 q 803 615 789 557 q 824 726 817 674 q 836 850 832 786 l 163 850 l 163 1014 l 1025 1014 l 1025 838 q 1013 743 1022 793 q 992 647 1003 693 q 969 564 981 601 q 953 508 958 526 l 1139 508 l 1139 344 l 56 344 l 56 508 l 485 508 l 485 675 l 668 675 l 668 508 l 767 508 m 861 249 q 981 208 936 249 q 1025 100 1025 168 l 1025 -15 q 982 -115 1025 -75 q 872 -154 939 -154 l 318 -154 q 263 -142 290 -153 q 213 -115 235 -132 q 176 -72 190 -97 q 163 -17 163 -47 l 163 104 q 180 172 163 144 q 224 217 197 200 q 283 241 251 233 q 344 249 315 249 l 861 249 m 418 99 q 360 86 378 99 q 342 58 342 74 l 342 21 q 349 -2 342 6 q 367 -13 356 -10 q 391 -17 378 -17 q 418 -18 404 -18 l 800 -18 q 843 -8 826 -18 q 860 21 860 1 l 860 54 q 843 86 860 74 q 799 99 826 99 l 418 99 z "},"곶":{"ha":1181,"x_min":56,"x_max":1125,"o":"m 1125 539 l 1125 376 l 56 376 l 56 539 l 479 539 l 479 714 l 657 714 l 657 539 l 768 539 q 802 658 789 601 q 822 758 815 715 q 835 853 831 807 l 178 853 l 178 1013 l 1019 1013 l 1019 853 q 1009 768 1018 814 q 990 678 1000 722 q 968 597 979 635 q 951 539 957 560 l 1125 539 m 224 124 l 224 267 l 1008 267 l 1008 124 l 735 124 q 850 24 775 63 q 1017 -46 925 -14 l 1017 -167 q 917 -146 972 -161 q 806 -105 861 -131 q 701 -42 750 -79 q 618 43 651 -6 q 426 -98 522 -47 q 219 -185 331 -149 l 219 -47 q 294 -13 257 -33 q 365 30 331 7 q 430 76 399 53 q 486 124 461 100 l 224 124 z "},"과":{"ha":1254,"x_min":56,"x_max":1226,"o":"m 811 922 l 811 753 q 790 518 811 615 q 743 357 769 421 q 692 259 717 293 q 660 217 667 225 l 901 217 l 901 1014 l 1096 1014 l 1096 690 l 1226 690 l 1226 507 l 1096 507 l 1096 -156 l 901 -156 l 901 54 l 56 54 l 56 217 l 308 217 l 308 439 l 457 439 l 457 217 l 488 217 q 551 374 528 293 q 587 528 575 454 q 602 662 599 601 q 606 758 606 722 l 129 758 l 129 922 l 811 922 z "},"곽":{"ha":1175,"x_min":56,"x_max":1147,"o":"m 782 500 l 782 354 l 56 354 l 56 500 l 213 500 l 213 665 l 354 665 l 354 500 l 458 500 q 492 673 483 588 q 501 811 501 758 l 86 811 l 86 940 l 672 940 l 672 797 q 657 627 669 701 q 626 500 644 553 l 782 500 m 167 250 l 1008 250 l 1008 118 q 998 21 1007 67 q 978 -60 989 -25 q 964 -98 971 -79 q 950 -135 957 -117 l 779 -135 q 815 -48 803 -89 q 833 24 828 -7 q 839 90 839 56 l 167 90 l 167 250 m 1147 786 l 1147 624 l 1003 624 l 1003 335 l 824 335 l 824 1013 l 1003 1013 l 1003 786 l 1147 786 z "},"관":{"ha":1233,"x_min":56,"x_max":1206,"o":"m 1206 821 l 1206 667 l 1051 667 l 1051 322 l 56 322 l 56 468 l 281 468 l 281 614 l 465 614 l 465 468 l 521 468 q 553 584 542 526 q 572 692 565 642 q 579 785 578 743 q 581 851 581 826 l 143 851 l 143 1003 l 764 1003 l 764 849 q 741 620 764 714 q 690 468 718 526 l 863 468 l 863 1013 l 1051 1013 l 1051 821 l 1206 821 m 207 -156 l 207 250 l 388 250 l 388 15 l 1071 15 l 1071 -156 l 207 -156 z "},"괄":{"ha":1206,"x_min":56,"x_max":1178,"o":"m 1024 835 l 1178 835 l 1178 681 l 1024 681 l 1024 394 l 56 394 l 56 538 l 308 538 l 308 693 l 489 693 l 489 538 l 538 538 q 578 710 572 633 q 583 838 585 788 l 146 838 l 146 989 l 767 989 l 767 918 q 747 690 767 783 q 704 538 728 596 l 849 538 l 849 1013 l 1024 1013 l 1024 835 m 210 -156 l 210 133 l 838 133 l 838 194 l 210 194 l 210 301 l 1021 301 l 1021 14 l 379 14 l 379 -35 l 1021 -35 l 1021 -157 l 204 -157 l 210 -156 z "},"괆":{"ha":1206,"x_min":56,"x_max":1178,"o":"m 1024 835 l 1178 835 l 1178 681 l 1024 681 l 1024 394 l 56 394 l 56 538 l 281 538 l 281 693 l 461 693 l 461 538 l 538 538 q 578 710 572 633 q 583 838 585 788 l 146 838 l 146 989 l 767 989 l 767 918 q 747 690 767 783 q 704 538 728 596 l 849 538 l 849 1013 l 1024 1013 l 1024 835 m 613 325 l 1026 325 l 1026 -156 l 613 -156 l 613 -139 l 186 -139 l 186 143 l 424 143 l 424 213 l 186 213 l 186 325 l 550 325 l 550 47 l 328 47 l 328 -28 l 613 -28 l 613 325 m 899 -28 l 899 213 l 739 213 l 739 -28 l 899 -28 z "},"괌":{"ha":1175,"x_min":56,"x_max":1147,"o":"m 172 256 l 1000 256 l 1000 -133 l 172 -133 l 172 256 m 782 500 l 782 354 l 56 354 l 56 500 l 213 500 l 213 679 l 361 679 l 361 500 l 458 500 q 479 590 471 543 q 492 680 488 636 q 499 761 497 724 q 501 825 501 799 l 86 825 l 86 954 l 672 954 l 672 825 q 657 652 669 729 q 626 500 644 575 l 782 500 m 1147 786 l 1147 624 l 1003 624 l 1003 335 l 824 335 l 824 1013 l 1003 1013 l 1003 786 l 1147 786 m 858 17 l 858 106 l 324 106 l 324 17 l 858 17 z "},"괍":{"ha":1175,"x_min":56,"x_max":1147,"o":"m 1001 -154 l 161 -154 l 161 275 l 336 275 l 336 183 l 835 183 l 835 275 l 1001 275 l 1001 -154 m 782 500 l 782 354 l 56 354 l 56 500 l 213 500 l 213 665 l 354 665 l 354 500 l 458 500 q 492 673 483 588 q 501 811 501 758 l 86 811 l 86 940 l 672 940 l 672 797 q 657 627 669 701 q 626 500 644 553 l 782 500 m 1147 786 l 1147 624 l 1003 624 l 1003 335 l 824 335 l 824 1013 l 1003 1013 l 1003 786 l 1147 786 m 336 -18 l 835 -18 l 835 57 l 336 57 l 336 -18 z "},"괏":{"ha":1175,"x_min":56,"x_max":1147,"o":"m 1147 786 l 1147 624 l 1003 624 l 1003 238 l 824 238 l 824 326 l 56 326 l 56 472 l 240 472 l 240 665 l 382 665 l 382 472 l 450 472 q 475 566 465 518 q 491 659 485 614 q 499 744 497 704 q 501 811 501 783 l 86 811 l 86 940 l 672 940 l 672 797 q 653 606 669 689 q 615 472 636 524 l 824 472 l 824 1013 l 1003 1013 l 1003 786 l 1147 786 m 731 231 q 786 132 753 183 q 858 29 819 81 q 935 -69 896 -22 q 1008 -156 975 -117 l 803 -156 q 718 -52 757 -100 q 643 50 679 -4 q 567 -55 608 1 q 482 -156 525 -111 l 267 -156 q 392 -10 338 -81 q 486 114 447 60 q 529 175 510 146 q 565 232 549 204 l 731 231 z "},"광":{"ha":1175,"x_min":56,"x_max":1147,"o":"m 860 236 q 920 226 890 236 q 972 197 950 215 q 1008 151 994 178 q 1022 93 1022 125 l 1022 -21 q 980 -117 1022 -79 q 874 -156 938 -156 l 335 -156 q 280 -144 307 -154 q 231 -116 253 -133 q 195 -74 208 -99 q 182 -21 182 -50 l 182 93 q 210 158 188 131 q 261 202 232 185 q 321 228 290 219 q 374 236 351 236 l 860 236 m 782 500 l 782 354 l 56 354 l 56 500 l 185 500 l 185 693 l 313 693 l 313 500 l 428 500 q 475 679 464 597 q 488 824 486 761 l 72 824 l 72 968 l 658 968 l 658 839 q 635 633 656 717 q 590 500 614 549 l 782 500 m 1147 624 l 1003 624 l 1003 310 l 824 310 l 824 1013 l 1003 1013 l 1003 786 l 1147 786 l 1147 624 m 431 92 q 378 78 390 92 q 358 51 365 65 l 357 15 q 386 -17 369 -12 q 431 -21 403 -21 l 801 -21 q 842 -12 825 -21 q 860 15 860 -4 l 860 42 q 842 76 860 61 q 800 92 825 92 l 431 92 z "},"괘":{"ha":1265,"x_min":56,"x_max":1168,"o":"m 1021 1013 l 1168 1013 l 1168 -156 l 1021 -156 l 1021 461 l 899 461 l 899 -156 l 735 -156 l 735 54 l 56 54 l 56 217 l 211 217 l 211 467 l 360 467 l 360 217 l 413 217 q 453 386 440 304 q 469 539 465 468 q 471 666 472 610 q 469 758 469 722 l 88 758 l 88 922 l 654 922 l 656 781 q 650 581 657 672 q 632 419 643 490 q 608 297 621 349 q 585 217 594 246 l 735 217 l 735 1013 l 899 1013 l 899 624 l 1021 624 l 1021 1013 z "},"괜":{"ha":1257,"x_min":56,"x_max":1160,"o":"m 993 1013 l 1151 1013 l 1151 254 l 993 254 l 993 586 l 890 586 l 890 254 l 732 254 l 732 326 l 56 326 l 56 472 l 240 472 l 240 665 l 368 665 l 368 472 l 428 472 q 469 663 461 576 q 476 796 478 749 l 108 796 l 108 947 l 646 947 l 646 849 q 631 633 646 726 q 594 472 617 539 l 732 472 l 732 1013 l 890 1013 l 890 719 l 993 719 l 993 1013 m 1160 -142 l 282 -142 l 282 247 l 458 247 l 458 24 l 1160 24 l 1160 -142 z "},"괠":{"ha":1235,"x_min":56,"x_max":1138,"o":"m 354 542 l 426 542 q 457 707 451 633 q 463 824 463 781 l 108 824 l 108 975 l 632 975 l 632 876 q 621 689 632 772 q 593 542 610 606 l 718 542 l 718 1013 l 876 1013 l 876 761 l 979 761 l 979 1013 l 1138 1013 l 1138 353 l 979 353 l 979 628 l 876 628 l 876 353 l 718 353 l 718 396 l 56 396 l 56 542 l 226 542 l 226 693 l 354 693 l 354 542 m 269 -169 l 269 119 l 939 119 l 939 181 l 269 181 l 269 288 l 1122 288 l 1122 -3 l 439 -3 l 439 -49 l 1122 -49 l 1122 -171 l 264 -171 l 269 -169 z "},"괩":{"ha":1221,"x_min":56,"x_max":1126,"o":"m 965 1013 l 1124 1013 l 1124 324 l 965 324 l 965 572 l 863 572 l 863 324 l 704 324 l 704 354 l 56 354 l 56 500 l 213 500 l 213 665 l 340 665 l 340 500 l 394 500 q 429 674 422 596 q 435 796 436 751 l 108 796 l 108 947 l 604 947 l 604 849 q 592 653 604 740 q 561 500 581 567 l 704 500 l 704 1013 l 863 1013 l 863 706 l 965 706 l 965 1013 m 1126 -156 l 286 -156 l 286 258 l 461 258 l 461 171 l 960 171 l 960 258 l 1126 258 l 1126 -156 m 461 -19 l 960 -19 l 960 46 l 461 46 l 461 -19 z "},"괬":{"ha":1215,"x_min":56,"x_max":1154,"o":"m 964 1013 l 1122 1013 l 1122 324 l 964 324 l 964 572 l 861 572 l 861 324 l 703 324 l 703 354 l 56 354 l 56 500 l 213 500 l 213 665 l 340 665 l 340 500 l 394 500 q 429 674 422 596 q 435 796 436 751 l 108 796 l 108 947 l 604 947 l 604 849 q 592 653 604 740 q 561 500 581 567 l 703 500 l 703 1013 l 861 1013 l 861 706 l 964 706 l 964 1013 m 933 231 q 976 108 942 175 q 1051 -18 1011 40 q 1154 -157 1099 -90 l 965 -157 q 900 -60 933 -115 q 836 49 867 -4 q 822 18 829 33 q 804 -14 814 3 q 763 -79 788 -42 q 704 -157 738 -117 l 526 -157 q 556 -121 542 -137 q 589 -78 569 -104 q 556 -35 571 -57 q 531 6 542 -12 q 515 38 521 25 q 508 51 508 50 q 483 -1 496 24 q 454 -51 469 -26 q 421 -101 439 -75 q 381 -157 403 -126 l 183 -157 q 331 54 279 -43 q 407 231 382 151 l 593 231 q 625 131 600 175 q 675 44 650 86 q 719 135 699 85 q 749 231 740 185 l 933 231 z "},"괭":{"ha":1221,"x_min":56,"x_max":1124,"o":"m 965 1013 l 1124 1013 l 1124 324 l 965 324 l 965 572 l 863 572 l 863 324 l 704 324 l 704 354 l 56 354 l 56 500 l 213 500 l 213 665 l 340 665 l 340 500 l 394 500 q 429 674 422 596 q 435 796 436 751 l 108 796 l 108 947 l 604 947 l 604 849 q 592 653 604 740 q 561 500 581 567 l 704 500 l 704 1013 l 863 1013 l 863 706 l 965 706 l 965 1013 m 929 236 q 990 226 960 236 q 1042 197 1019 215 q 1078 151 1064 178 q 1092 93 1092 125 l 1092 -21 q 1049 -117 1092 -79 q 943 -156 1007 -156 l 390 -156 q 346 -149 372 -156 q 296 -126 319 -142 q 255 -84 272 -110 q 238 -22 238 -58 l 238 93 q 265 158 243 131 q 317 202 288 185 q 376 228 346 219 q 429 236 407 236 l 929 236 m 486 92 q 433 78 446 92 q 414 51 421 65 l 413 15 q 442 -17 425 -12 q 486 -21 458 -21 l 871 -21 q 912 -12 894 -21 q 929 15 929 -4 l 929 42 q 912 76 929 61 q 869 92 894 92 l 486 92 z "},"괴":{"ha":1190,"x_min":56,"x_max":1093,"o":"m 782 906 l 782 739 q 770 550 782 635 q 742 400 758 465 q 706 289 725 335 q 675 218 688 243 l 910 218 l 910 1013 l 1093 1013 l 1093 -157 l 910 -157 l 910 54 l 56 54 l 56 218 l 265 218 l 265 422 l 422 422 l 422 218 l 490 218 q 551 370 529 292 q 582 520 572 449 q 593 650 592 592 q 594 743 594 708 l 135 743 l 135 906 l 782 906 z "},"괵":{"ha":1169,"x_min":56,"x_max":1088,"o":"m 838 486 l 838 340 l 56 340 l 56 486 l 240 486 l 240 665 l 396 665 l 396 486 l 496 486 q 519 577 510 531 q 533 667 528 624 q 541 747 539 710 q 543 811 543 783 l 114 811 l 114 940 l 714 940 l 714 797 q 697 618 711 697 q 663 486 682 539 l 838 486 m 224 74 l 224 232 l 1088 232 l 1088 97 q 1057 -81 1081 -8 q 1044 -119 1050 -100 q 1031 -156 1038 -137 l 860 -156 q 886 -77 875 -118 q 904 -3 897 -36 q 910 35 907 17 q 915 74 913 54 l 224 74 m 1072 1013 l 1072 321 l 893 321 l 893 1013 l 1072 1013 z "},"괸":{"ha":1169,"x_min":56,"x_max":1090,"o":"m 838 472 l 838 326 l 56 326 l 56 472 l 240 472 l 240 665 l 396 665 l 396 472 l 492 472 q 517 566 507 518 q 533 659 526 614 q 541 744 539 704 q 543 811 543 783 l 114 811 l 114 940 l 714 940 l 714 797 q 694 606 711 689 q 657 472 678 524 l 838 472 m 1090 -142 l 240 -142 l 240 238 l 421 238 l 421 29 l 1090 29 l 1090 -142 m 1072 1013 l 1072 251 l 893 251 l 893 1013 l 1072 1013 z "},"괼":{"ha":1169,"x_min":56,"x_max":1081,"o":"m 228 -169 l 228 119 l 897 119 l 897 181 l 228 181 l 228 288 l 1081 288 l 1081 -3 l 397 -3 l 397 -49 l 1081 -49 l 1081 -171 l 222 -171 l 228 -169 m 838 528 l 838 382 l 56 382 l 56 528 l 254 528 l 254 693 l 424 693 l 424 528 l 497 528 q 520 619 511 572 q 535 708 529 665 q 542 788 540 751 q 544 853 544 825 l 115 853 l 115 982 l 715 982 l 715 839 q 698 660 713 739 q 664 528 683 581 l 838 528 m 1072 1013 l 1072 376 l 893 376 l 893 1013 l 1072 1013 z "},"굄":{"ha":1156,"x_min":56,"x_max":1058,"o":"m 228 256 l 1056 256 l 1056 -133 l 228 -133 l 228 256 m 824 486 l 824 340 l 56 340 l 56 486 l 240 486 l 240 665 l 382 665 l 382 486 l 496 486 q 519 577 510 531 q 533 667 528 624 q 541 747 539 710 q 543 811 543 783 l 114 811 l 114 940 l 714 940 l 714 797 q 697 618 711 697 q 663 486 682 539 l 824 486 m 1058 1013 l 1058 321 l 879 321 l 879 1013 l 1058 1013 m 914 17 l 914 106 l 379 106 l 379 17 l 914 17 z "},"굅":{"ha":1156,"x_min":56,"x_max":1058,"o":"m 1057 -156 l 258 -156 l 258 258 l 433 258 l 433 171 l 890 171 l 890 258 l 1057 258 l 1057 -156 m 824 486 l 824 340 l 56 340 l 56 486 l 240 486 l 240 665 l 382 665 l 382 486 l 496 486 q 519 577 510 531 q 533 667 528 624 q 541 747 539 710 q 543 811 543 783 l 114 811 l 114 940 l 714 940 l 714 797 q 697 618 711 697 q 663 486 682 539 l 824 486 m 1058 1013 l 1058 321 l 879 321 l 879 1013 l 1058 1013 m 433 -19 l 890 -19 l 890 46 l 433 46 l 433 -19 z "},"굇":{"ha":1167,"x_min":56,"x_max":1069,"o":"m 835 472 l 835 326 l 56 326 l 56 472 l 240 472 l 240 665 l 382 665 l 382 472 l 492 472 q 517 566 507 518 q 533 659 526 614 q 541 744 539 704 q 543 811 543 783 l 114 811 l 114 940 l 714 940 l 714 797 q 694 606 711 689 q 657 472 678 524 l 835 472 m 1069 1013 l 1069 251 l 890 251 l 890 1013 l 1069 1013 m 783 231 q 839 132 806 183 q 910 29 872 81 q 988 -69 949 -22 q 1061 -156 1028 -117 l 856 -156 q 771 -52 810 -100 q 696 50 732 -4 q 619 -55 661 1 q 535 -156 578 -111 l 319 -156 q 445 -10 390 -81 q 539 114 500 60 q 582 175 563 146 q 618 232 601 204 l 783 231 z "},"굉":{"ha":1169,"x_min":56,"x_max":1078,"o":"m 915 236 q 976 226 946 236 q 1028 197 1006 215 q 1064 151 1050 178 q 1078 93 1078 125 l 1078 -21 q 1035 -117 1078 -79 q 929 -156 993 -156 l 376 -156 q 335 -148 358 -156 q 288 -124 311 -140 q 247 -83 265 -108 q 224 -22 229 -58 l 224 93 q 251 158 229 131 q 303 202 274 185 q 363 228 332 219 q 415 236 393 236 l 915 236 m 838 486 l 838 340 l 56 340 l 56 486 l 240 486 l 240 665 l 382 665 l 382 486 l 496 486 q 519 577 510 531 q 533 667 528 624 q 541 747 539 710 q 543 811 543 783 l 114 811 l 114 940 l 714 940 l 714 797 q 697 618 711 697 q 663 486 682 539 l 838 486 m 1072 1013 l 1072 321 l 893 321 l 893 1013 l 1072 1013 m 472 92 q 419 78 432 92 q 400 51 407 65 l 399 15 q 428 -17 411 -12 q 472 -21 444 -21 l 857 -21 q 898 -12 881 -21 q 915 15 915 -4 l 915 46 q 898 78 915 65 q 856 92 881 92 l 472 92 z "},"교":{"ha":1099,"x_min":56,"x_max":1043,"o":"m 981 942 l 981 804 q 960 548 981 657 q 917 367 940 439 q 887 288 903 324 q 853 222 871 251 l 672 222 q 740 385 715 303 q 774 542 764 468 q 785 677 785 617 q 782 775 786 738 l 133 775 l 133 942 l 981 942 m 1043 13 l 56 13 l 56 174 l 235 174 l 235 443 l 378 443 l 378 174 l 503 174 l 503 443 l 642 443 l 642 174 l 1043 174 l 1043 13 z "},"굔":{"ha":1188,"x_min":56,"x_max":1132,"o":"m 456 518 l 581 518 l 581 706 l 747 706 l 747 518 l 785 518 q 816 641 804 581 q 835 749 828 701 q 840 803 838 776 q 844 853 843 829 l 178 853 l 178 1013 l 1019 1013 l 1019 839 q 1011 757 1018 803 q 995 666 1004 711 q 977 581 986 621 q 963 518 968 542 l 1132 518 l 1132 364 l 56 364 l 56 518 l 283 518 l 283 706 l 456 706 l 456 518 m 1054 -143 l 165 -143 l 165 274 l 350 274 l 350 35 l 1054 35 l 1054 -143 z "},"굘":{"ha":1188,"x_min":56,"x_max":1132,"o":"m 464 540 l 563 540 l 563 703 l 739 703 l 739 540 l 782 540 q 816 660 803 603 q 836 760 829 717 q 849 853 844 811 l 178 853 l 178 1013 l 1019 1013 l 1019 853 q 1010 769 1018 815 q 991 680 1001 724 q 969 599 981 636 q 951 540 958 561 l 1132 540 l 1132 400 l 56 400 l 56 540 l 286 540 l 286 703 l 464 703 l 464 540 m 158 -158 l 158 149 l 811 149 l 811 207 l 158 207 l 158 321 l 1007 321 l 1007 22 l 338 22 l 338 -29 l 1007 -29 l 1007 -160 l 153 -160 l 158 -158 z "},"굡":{"ha":1188,"x_min":56,"x_max":1132,"o":"m 456 518 l 581 518 l 581 706 l 747 706 l 747 518 l 775 518 q 813 645 799 585 q 836 751 828 706 q 849 853 844 807 l 178 853 l 178 1013 l 1019 1013 l 1019 853 q 1006 748 1017 806 q 981 639 994 690 q 965 578 974 608 q 944 518 956 549 l 1132 518 l 1132 364 l 56 364 l 56 518 l 283 518 l 283 706 l 456 706 l 456 518 m 1003 -154 l 176 -154 l 176 290 l 351 290 l 351 189 l 836 189 l 836 290 l 1003 290 l 1003 -154 m 351 -18 l 836 -18 l 836 64 l 351 64 l 351 -18 z "},"굣":{"ha":1188,"x_min":56,"x_max":1132,"o":"m 456 518 l 581 518 l 581 706 l 747 706 l 747 518 l 775 518 q 813 645 799 585 q 836 751 828 706 q 849 853 844 807 l 178 853 l 178 1013 l 1019 1013 l 1019 853 q 1006 748 1017 806 q 981 639 994 690 q 965 578 974 608 q 944 518 956 549 l 1132 518 l 1132 364 l 56 364 l 56 518 l 283 518 l 283 706 l 456 706 l 456 518 m 690 272 q 747 149 713 211 q 818 31 781 88 q 892 -75 856 -26 q 956 -157 929 -124 l 754 -157 q 708 -92 733 -129 q 658 -19 682 -54 q 632 21 644 0 q 606 64 619 42 l 447 -157 l 235 -157 q 351 -6 299 -82 q 440 133 403 71 q 482 204 463 169 q 519 274 501 239 l 690 272 z "},"구":{"ha":1161,"x_min":56,"x_max":1106,"o":"m 1106 242 l 672 242 l 672 -154 l 489 -154 l 489 242 l 56 242 l 56 408 l 1106 408 l 1106 242 m 731 481 q 769 605 754 543 q 793 715 785 667 q 801 770 799 743 q 807 824 804 797 l 136 824 l 136 986 l 993 986 l 993 824 q 980 711 992 771 q 954 600 968 651 q 937 540 946 569 q 917 481 928 511 l 731 481 z "},"국":{"ha":1151,"x_min":56,"x_max":1096,"o":"m 1096 522 l 1096 367 l 650 367 l 650 250 l 1004 250 l 1004 118 q 994 21 1003 67 q 974 -60 985 -25 q 960 -98 967 -79 q 946 -135 953 -117 l 775 -135 q 811 -48 799 -89 q 829 24 824 -7 q 835 90 835 56 l 163 90 l 163 250 l 475 250 l 475 367 l 56 367 l 56 522 l 744 522 q 776 640 765 585 q 792 736 788 696 q 796 782 794 760 q 797 825 797 804 l 171 825 l 171 985 l 981 985 l 981 839 q 972 753 979 800 q 954 661 964 706 q 935 579 944 617 q 919 522 925 542 l 1096 522 z "},"군":{"ha":1153,"x_min":56,"x_max":1097,"o":"m 1097 349 l 671 349 l 671 143 l 500 143 l 500 349 l 56 349 l 56 503 l 1097 503 l 1097 349 m 161 -157 l 161 260 l 332 260 l 332 21 l 1008 21 l 1008 -157 l 161 -157 m 983 986 l 983 825 q 973 720 983 769 q 951 632 963 671 q 937 588 944 608 q 921 549 929 568 l 742 549 q 780 645 767 597 q 799 732 793 693 q 803 777 801 756 q 804 818 804 799 l 169 818 l 169 986 l 983 986 z "},"굳":{"ha":1151,"x_min":56,"x_max":1096,"o":"m 1096 522 l 1096 367 l 678 367 l 678 264 l 1011 264 l 1011 124 l 385 124 l 385 -15 l 1011 -15 l 1011 -156 l 189 -156 l 189 264 l 503 264 l 503 367 l 56 367 l 56 522 l 744 522 q 776 640 765 585 q 792 736 788 696 q 796 782 794 760 q 797 825 797 804 l 171 825 l 171 985 l 981 985 l 981 839 q 972 753 979 800 q 954 661 964 706 q 935 579 944 617 q 919 522 925 542 l 1096 522 z "},"굴":{"ha":1124,"x_min":56,"x_max":1068,"o":"m 158 -158 l 158 149 l 811 149 l 811 207 l 158 207 l 158 321 l 475 321 l 475 436 l 56 436 l 56 564 l 742 564 q 768 672 760 622 q 781 760 776 722 q 785 839 785 803 l 158 839 l 158 999 l 968 999 l 968 853 q 960 780 967 819 q 947 701 954 740 q 930 625 939 661 q 914 564 921 589 l 1068 564 l 1068 436 l 650 436 l 650 321 l 1007 321 l 1007 22 l 338 22 l 338 -29 l 1007 -29 l 1007 -160 l 153 -160 l 158 -158 z "},"굵":{"ha":1124,"x_min":56,"x_max":1068,"o":"m 1068 564 l 1068 436 l 678 436 l 678 307 l 985 307 l 985 169 q 980 65 985 119 q 969 -36 975 10 q 963 -90 967 -64 q 956 -142 960 -115 l 799 -142 q 811 -41 807 -94 q 818 58 815 13 l 822 164 l 583 164 l 583 296 l 536 296 l 536 47 l 342 47 l 342 -28 l 599 -28 l 599 -139 l 172 -139 l 172 143 l 396 143 l 396 213 l 172 213 l 172 325 l 503 325 l 503 436 l 56 436 l 56 564 l 742 564 q 768 672 760 622 q 781 760 776 722 q 785 839 785 803 l 158 839 l 158 999 l 968 999 l 968 853 q 960 780 967 819 q 947 701 954 740 q 930 625 939 661 q 914 564 921 589 l 1068 564 z "},"굶":{"ha":1124,"x_min":56,"x_max":1068,"o":"m 1068 564 l 1068 436 l 650 436 l 650 325 l 989 325 l 989 -156 l 575 -156 l 575 -139 l 149 -139 l 149 143 l 372 143 l 372 213 l 149 213 l 149 325 l 475 325 l 475 436 l 56 436 l 56 564 l 742 564 q 768 672 760 622 q 781 760 776 722 q 785 839 785 803 l 158 839 l 158 999 l 968 999 l 968 853 q 960 780 967 819 q 947 701 954 740 q 930 625 939 661 q 914 564 921 589 l 1068 564 m 861 -28 l 861 213 l 707 213 l 707 -28 l 861 -28 m 304 47 l 304 -28 l 575 -28 l 575 296 l 513 296 l 513 47 l 304 47 z "},"굻":{"ha":1124,"x_min":56,"x_max":1068,"o":"m 1068 564 l 1068 436 l 650 436 l 650 296 l 522 296 l 522 47 l 314 47 l 314 -28 l 557 -28 l 557 -139 l 158 -139 l 158 143 l 382 143 l 382 213 l 158 213 l 158 325 l 475 325 l 475 436 l 56 436 l 56 564 l 742 564 q 768 672 760 622 q 781 760 776 722 q 785 839 785 803 l 158 839 l 158 999 l 968 999 l 968 853 q 960 780 967 819 q 947 701 954 740 q 930 625 939 661 q 914 564 921 589 l 1068 564 m 1035 247 l 1035 153 l 928 153 q 968 115 951 140 q 985 58 985 89 l 985 -44 q 953 -125 985 -93 q 874 -157 922 -157 l 728 -157 q 646 -125 678 -157 q 614 -44 614 -93 l 614 58 q 631 115 614 89 q 671 153 647 140 l 569 153 l 569 247 l 744 247 l 744 326 l 857 326 l 857 247 l 1035 247 m 865 39 q 852 72 865 58 q 819 86 839 86 l 782 86 q 749 72 763 86 q 736 39 736 58 l 736 -19 q 749 -53 736 -39 q 782 -67 763 -67 l 819 -67 q 852 -53 839 -67 q 865 -19 865 -39 l 865 39 z "},"굼":{"ha":1151,"x_min":56,"x_max":1096,"o":"m 1096 522 l 1096 367 l 650 367 l 650 283 l 1010 283 l 1010 -133 l 182 -133 l 182 283 l 475 283 l 475 367 l 56 367 l 56 522 l 744 522 q 776 640 765 585 q 792 736 788 696 q 796 782 794 760 q 797 825 797 804 l 171 825 l 171 985 l 981 985 l 981 839 q 972 753 979 800 q 954 661 964 706 q 935 579 944 617 q 919 522 925 542 l 1096 522 m 868 17 l 868 133 l 333 133 l 333 17 l 868 17 z "},"굽":{"ha":1151,"x_min":56,"x_max":1096,"o":"m 1096 550 l 1096 394 l 664 394 l 664 254 l 489 254 l 489 394 l 56 394 l 56 550 l 754 550 q 781 658 772 608 q 793 746 789 708 q 797 825 797 789 l 171 825 l 171 985 l 981 985 l 981 839 q 973 766 979 806 q 959 687 967 726 q 942 611 951 647 q 926 550 933 575 l 1096 550 m 997 -154 l 171 -154 l 171 290 l 346 290 l 346 189 l 831 189 l 831 290 l 997 290 l 997 -154 m 346 -18 l 831 -18 l 831 64 l 346 64 l 346 -18 z "},"굿":{"ha":1151,"x_min":56,"x_max":1096,"o":"m 1096 550 l 1096 394 l 664 394 l 664 254 l 489 254 l 489 394 l 56 394 l 56 550 l 754 550 q 781 658 772 608 q 793 746 789 708 q 797 825 797 789 l 171 825 l 171 985 l 981 985 l 981 839 q 973 766 979 806 q 959 687 967 726 q 942 611 951 647 q 926 550 933 575 l 1096 550 m 665 228 q 719 126 688 181 q 783 20 750 72 q 849 -78 817 -32 q 908 -157 882 -124 l 711 -157 q 666 -92 690 -129 q 622 -19 642 -54 l 576 64 l 432 -157 l 224 -157 q 335 -12 288 -82 q 417 111 383 58 q 483 228 454 174 l 665 228 z "},"궁":{"ha":1151,"x_min":56,"x_max":1096,"o":"m 1096 522 l 1096 367 l 650 367 l 650 242 l 822 242 q 955 201 907 242 q 1003 94 1003 161 l 1003 -6 q 989 -74 1003 -46 q 952 -122 975 -103 q 899 -149 929 -140 q 838 -157 869 -157 l 313 -157 q 249 -147 279 -157 q 196 -119 218 -136 q 160 -76 174 -101 q 147 -22 147 -51 l 147 94 q 165 163 147 135 q 209 208 182 190 q 268 234 236 226 q 328 242 300 242 l 475 242 l 475 367 l 56 367 l 56 522 l 744 522 q 776 640 765 585 q 792 736 788 696 q 796 782 794 760 q 797 825 797 804 l 171 825 l 171 985 l 981 985 l 981 839 q 972 753 979 800 q 954 661 964 706 q 935 579 944 617 q 919 522 925 542 l 1096 522 m 397 93 q 342 81 357 93 q 326 53 326 68 l 326 17 q 333 -7 326 1 q 349 -19 339 -15 q 371 -22 358 -22 q 397 -22 383 -22 l 782 -22 q 822 -9 807 -22 q 838 24 838 4 l 838 50 q 820 82 838 71 q 775 93 803 93 l 397 93 z "},"궂":{"ha":1150,"x_min":56,"x_max":1094,"o":"m 1094 536 l 1094 381 l 649 381 l 649 267 l 988 267 l 988 124 l 728 124 q 784 69 756 93 q 844 25 813 44 q 913 -12 876 6 q 996 -46 950 -29 l 996 -168 q 897 -147 951 -162 q 789 -106 843 -132 q 685 -44 735 -81 q 597 40 635 -8 q 399 -99 501 -50 q 185 -185 296 -149 l 185 -47 q 259 -13 222 -33 q 330 30 296 7 q 395 76 364 53 q 451 124 426 100 l 189 124 l 189 267 l 474 267 l 474 381 l 56 381 l 56 536 l 749 536 q 778 649 768 599 q 792 740 788 700 q 796 825 797 786 l 169 825 l 169 985 l 979 985 l 979 839 q 971 760 978 803 q 955 676 964 718 q 937 597 946 635 q 921 536 928 560 l 1094 536 z "},"궈":{"ha":1197,"x_min":56,"x_max":1100,"o":"m 56 372 l 510 372 q 540 476 528 424 q 558 577 551 528 q 569 669 565 626 q 572 743 572 711 l 136 743 l 136 906 l 772 906 l 772 768 q 749 524 772 621 q 703 372 726 428 l 857 372 l 857 210 l 538 210 l 538 -158 l 335 -158 l 335 210 l 56 210 l 56 372 m 1100 -156 l 921 -156 l 921 -28 l 683 -28 l 683 125 l 921 125 l 919 1014 l 1100 1014 l 1100 -156 z "},"궉":{"ha":1169,"x_min":56,"x_max":1076,"o":"m 56 636 l 508 636 q 538 745 531 700 q 546 839 544 790 l 131 839 l 131 982 l 717 982 l 717 922 q 702 760 714 831 q 674 636 690 689 l 836 636 l 836 501 l 483 501 l 483 286 l 307 286 l 307 501 l 56 501 l 56 636 m 226 54 l 226 206 l 1076 206 l 1076 74 q 1065 -19 1074 22 q 1046 -92 1057 -61 q 1033 -126 1039 -110 q 1019 -156 1026 -142 l 832 -156 q 863 -77 851 -115 q 879 -10 874 -39 q 888 54 886 26 l 226 54 m 1072 261 l 900 261 l 900 306 l 656 306 l 656 431 l 900 431 l 900 1014 l 1072 1014 l 1072 261 z "},"권":{"ha":1169,"x_min":56,"x_max":1094,"o":"m 56 622 l 499 622 q 525 726 518 683 q 532 814 532 768 l 117 814 l 117 954 l 703 954 l 703 894 q 690 742 700 811 q 664 622 679 674 l 836 622 l 836 488 l 483 488 l 483 286 l 307 286 l 307 488 l 56 488 l 56 622 m 1094 -156 l 249 -156 l 249 200 l 432 200 l 432 0 l 1094 0 l 1094 -156 m 1072 192 l 900 192 l 900 293 l 656 293 l 656 418 l 900 418 l 900 1014 l 1072 1014 l 1072 192 z "},"궐":{"ha":1183,"x_min":56,"x_max":1086,"o":"m 260 -169 l 260 119 l 901 119 l 901 181 l 260 181 l 260 288 l 1085 288 l 1085 -3 l 429 -3 l 429 -49 l 1085 -49 l 1085 -171 l 254 -171 l 260 -169 m 56 664 l 499 664 q 524 773 518 726 q 532 867 531 819 l 117 867 l 117 996 l 703 996 l 703 936 q 690 784 700 853 q 664 664 679 715 l 843 664 l 843 529 l 483 529 l 483 328 l 307 328 l 307 529 l 56 529 l 56 664 m 1086 317 l 921 317 l 921 347 l 656 347 l 656 472 l 921 472 l 921 1014 l 1086 1014 l 1086 317 z "},"궜":{"ha":1169,"x_min":56,"x_max":1122,"o":"m 56 636 l 501 636 q 524 747 518 699 q 532 839 531 794 l 117 839 l 117 968 l 703 968 l 703 867 q 693 735 701 792 q 674 636 685 679 l 843 636 l 843 501 l 483 501 l 483 300 l 307 300 l 307 501 l 56 501 l 56 636 m 901 231 q 944 108 910 175 q 1019 -18 979 40 q 1122 -157 1067 -90 l 933 -157 q 868 -60 901 -115 q 804 49 835 -4 q 790 18 797 33 q 772 -14 782 3 q 731 -79 756 -42 q 672 -157 706 -117 l 494 -157 q 524 -121 510 -137 q 557 -78 538 -104 q 524 -35 539 -57 q 499 6 510 -12 q 483 38 489 25 q 476 51 476 50 q 451 -1 464 24 q 422 -51 438 -26 q 389 -101 407 -75 q 349 -157 371 -126 l 151 -157 q 299 54 247 -43 q 375 231 350 151 l 561 231 q 593 131 568 175 q 643 44 618 86 q 688 135 667 85 q 717 231 708 185 l 901 231 m 1072 275 l 907 275 l 907 319 l 656 319 l 656 444 l 907 444 l 907 1014 l 1072 1014 l 1072 275 z "},"궝":{"ha":1169,"x_min":56,"x_max":1072,"o":"m 904 236 q 965 226 935 236 q 1017 197 994 215 q 1053 151 1039 178 q 1067 93 1067 125 l 1067 -21 q 1024 -117 1067 -79 q 918 -156 982 -156 l 379 -156 q 338 -148 361 -156 q 291 -124 314 -140 q 250 -83 268 -108 q 226 -22 232 -58 l 226 93 q 254 158 232 131 q 306 202 276 185 q 365 228 335 219 q 418 236 396 236 l 904 236 m 56 638 l 503 638 q 524 745 518 696 q 532 839 531 794 l 117 839 l 117 979 l 706 979 l 706 908 q 694 758 703 829 q 671 638 685 688 l 843 638 l 843 503 l 456 503 l 456 314 l 279 314 l 279 503 l 56 503 l 56 638 m 1072 275 l 907 275 l 907 321 l 656 321 l 656 446 l 907 446 l 907 1014 l 1072 1014 l 1072 275 m 475 92 q 422 78 435 92 q 403 51 410 65 l 401 15 q 431 -17 414 -12 q 475 -21 447 -21 l 846 -21 q 887 -12 869 -21 q 904 15 904 -4 l 904 42 q 887 76 904 61 q 844 92 869 92 l 475 92 z "},"궤":{"ha":1274,"x_min":56,"x_max":1176,"o":"m 56 372 l 388 372 q 422 479 408 425 q 444 585 436 533 q 456 681 453 636 q 460 757 460 725 l 108 757 l 108 919 l 647 919 l 647 782 q 622 526 647 626 q 574 372 597 425 l 718 372 l 718 210 l 442 210 l 442 -158 l 265 -158 l 265 210 l 56 210 l 56 372 m 767 1013 l 918 1013 l 918 -157 l 767 -157 l 767 -28 l 558 -28 l 558 111 l 767 111 l 767 1013 m 1011 1013 l 1176 1013 l 1176 -157 l 1011 -157 l 1011 1013 z "},"궷":{"ha":1229,"x_min":56,"x_max":1132,"o":"m 56 636 l 419 636 q 441 738 435 694 q 449 825 447 781 l 89 825 l 89 954 l 619 954 l 619 894 q 608 751 617 815 q 585 636 599 686 l 663 636 l 663 501 l 386 501 l 386 286 l 210 286 l 210 501 l 56 501 l 56 636 m 882 261 l 726 261 l 726 306 l 503 306 l 503 431 l 726 431 l 726 1014 l 882 1014 l 882 261 m 803 231 q 858 132 825 183 q 930 29 892 81 q 1008 -69 968 -22 q 1081 -156 1047 -117 l 875 -156 q 790 -52 829 -100 q 715 50 751 -4 q 639 -55 681 1 q 554 -156 597 -111 l 339 -156 q 465 -10 410 -81 q 558 114 519 60 q 601 175 582 146 q 638 232 621 204 l 803 231 m 1132 261 l 967 261 l 967 1014 l 1132 1014 l 1132 261 z "},"귀":{"ha":1183,"x_min":56,"x_max":1086,"o":"m 56 344 l 463 344 q 502 458 486 400 q 528 572 518 517 q 542 674 538 626 q 546 757 546 722 l 136 757 l 136 919 l 744 919 l 744 782 q 735 622 744 693 q 711 496 725 550 q 683 404 697 442 q 658 344 668 367 l 853 344 l 853 182 l 525 182 l 525 -158 l 335 -158 l 335 182 l 56 182 l 56 344 m 1086 -156 l 903 -156 l 903 1014 l 1086 1014 l 1086 -156 z "},"귁":{"ha":1172,"x_min":56,"x_max":1076,"o":"m 890 294 l 890 474 l 479 474 l 479 296 l 317 296 l 317 474 l 56 474 l 56 636 l 508 636 q 526 735 521 692 q 532 818 531 778 l 103 818 l 103 954 l 714 954 l 714 867 q 705 741 713 799 q 686 636 697 683 l 890 636 l 890 1013 l 1075 1013 l 1075 294 l 890 294 m 226 68 l 226 226 l 1076 226 l 1076 92 q 1065 -5 1074 40 q 1046 -83 1057 -50 q 1033 -121 1039 -103 q 1019 -156 1026 -139 l 835 -156 q 865 -69 854 -110 q 882 1 876 -29 q 890 68 888 36 l 226 68 z "},"귄":{"ha":1172,"x_min":56,"x_max":1094,"o":"m 890 211 l 890 432 l 465 432 l 465 268 l 275 268 l 275 432 l 56 432 l 56 581 l 493 581 q 523 710 515 656 q 532 815 531 765 l 117 815 l 117 954 l 717 954 l 717 867 q 702 704 714 775 q 674 581 690 633 l 890 581 l 890 1013 l 1075 1013 l 1075 211 l 890 211 m 1094 -156 l 249 -156 l 249 200 l 421 200 l 421 1 l 1094 1 l 1094 -156 z "},"귈":{"ha":1172,"x_min":56,"x_max":1083,"o":"m 258 -169 l 258 126 l 900 126 l 900 181 l 258 181 l 258 301 l 1083 301 l 1083 4 l 428 4 l 428 -49 l 1083 -49 l 1083 -171 l 253 -171 l 258 -169 m 56 650 l 504 650 q 525 760 519 710 q 532 853 531 810 l 103 853 l 103 982 l 703 982 l 703 894 q 693 760 701 822 q 672 650 685 699 l 835 650 l 835 488 l 465 488 l 465 351 l 303 351 l 303 488 l 56 488 l 56 650 m 890 350 l 890 1013 l 1075 1013 l 1075 350 l 890 350 z "},"귐":{"ha":1172,"x_min":56,"x_max":1081,"o":"m 890 325 l 890 488 l 479 488 l 479 324 l 317 324 l 317 488 l 56 488 l 56 650 l 508 650 q 526 752 521 706 q 532 839 531 799 l 103 839 l 103 968 l 703 968 l 703 881 q 694 755 701 813 q 675 650 686 697 l 890 650 l 890 1013 l 1075 1013 l 1075 325 l 890 325 m 231 256 l 1081 256 l 1081 -133 l 231 -133 l 231 256 m 917 14 l 917 113 l 401 113 l 401 14 l 917 14 z "},"귑":{"ha":1172,"x_min":56,"x_max":1075,"o":"m 890 294 l 890 474 l 479 474 l 479 296 l 317 296 l 317 474 l 56 474 l 56 636 l 508 636 q 526 738 521 692 q 532 825 531 785 l 103 825 l 103 954 l 703 954 l 703 867 q 694 741 701 799 q 675 636 686 683 l 890 636 l 890 1013 l 1075 1013 l 1075 294 l 890 294 m 1074 -156 l 261 -156 l 261 258 l 436 258 l 436 171 l 907 171 l 907 258 l 1074 258 l 1074 -156 m 436 -19 l 907 -19 l 907 46 l 436 46 l 436 -19 z "},"귓":{"ha":1172,"x_min":56,"x_max":1081,"o":"m 890 239 l 890 418 l 493 418 l 493 226 l 303 226 l 303 418 l 56 418 l 56 567 l 489 567 q 522 709 514 646 q 532 825 531 772 l 103 825 l 103 954 l 703 954 l 703 867 q 688 695 700 771 q 656 567 675 619 l 890 567 l 890 1013 l 1075 1013 l 1075 239 l 890 239 m 803 231 q 858 132 825 183 q 930 29 892 81 q 1008 -69 968 -22 q 1081 -156 1047 -117 l 875 -156 q 790 -52 829 -100 q 715 50 751 -4 q 639 -55 681 1 q 554 -156 597 -111 l 339 -156 q 465 -10 410 -81 q 558 114 519 60 q 601 175 582 146 q 638 232 621 204 l 803 231 z "},"규":{"ha":1158,"x_min":56,"x_max":1103,"o":"m 744 481 q 783 605 768 543 q 807 715 799 667 q 815 770 813 743 q 821 824 818 797 l 150 824 l 150 986 l 1007 986 l 1007 824 q 994 711 1006 771 q 968 600 982 651 q 951 540 960 569 q 931 481 942 511 l 744 481 m 1103 403 l 1103 231 l 878 231 l 878 -156 l 717 -156 l 717 231 l 458 231 l 458 -156 l 281 -156 l 281 231 l 56 231 l 56 403 l 1103 403 z "},"균":{"ha":1150,"x_min":56,"x_max":1094,"o":"m 1094 529 l 1094 374 l 838 374 l 838 183 l 671 183 l 671 374 l 540 374 l 540 185 l 372 185 l 372 374 l 56 374 l 56 529 l 747 529 q 778 645 767 592 q 793 739 789 699 q 797 825 800 785 l 157 825 l 157 985 l 981 985 l 981 839 q 972 756 979 801 q 955 668 964 711 q 936 588 946 625 q 921 529 926 551 l 1094 529 m 1021 -143 l 146 -143 l 146 274 l 317 274 l 317 35 l 1021 35 l 1021 -143 z "},"귤":{"ha":1151,"x_min":56,"x_max":1096,"o":"m 1096 603 l 1096 436 l 838 436 l 838 321 l 1015 321 l 1015 18 l 332 18 l 332 -26 l 1015 -26 l 1015 -157 l 147 -157 l 153 -156 l 153 149 l 819 149 l 819 207 l 153 207 l 153 321 l 308 321 l 308 436 l 56 436 l 56 603 l 767 603 q 786 696 779 653 q 796 771 793 739 q 799 806 799 789 q 799 839 800 824 l 158 839 l 158 999 l 982 999 l 982 853 q 976 793 981 825 q 966 728 972 761 q 952 662 960 694 q 938 603 944 629 l 1096 603 m 483 321 l 663 321 l 663 436 l 483 436 l 483 321 z "},"그":{"ha":1128,"x_min":56,"x_max":1072,"o":"m 964 931 l 964 775 q 947 535 964 636 q 911 363 931 433 q 887 288 900 322 q 860 225 874 253 l 658 225 q 727 383 704 301 q 759 540 750 465 q 767 676 768 615 q 763 774 765 738 l 151 774 l 151 931 l 964 931 m 1072 -29 l 56 -29 l 56 139 l 1072 139 l 1072 -29 z "},"극":{"ha":1225,"x_min":56,"x_max":1169,"o":"m 1033 279 l 1033 118 q 1023 18 1032 67 q 1003 -69 1014 -31 q 989 -114 996 -93 q 975 -154 982 -135 l 803 -154 q 839 -60 826 -108 q 857 28 851 -12 q 861 74 860 51 q 863 118 863 96 l 192 118 l 192 279 l 1033 279 m 1033 1013 l 1033 853 q 1024 752 1033 800 q 1004 667 1015 704 q 990 624 997 644 q 975 585 982 604 l 804 585 q 835 667 824 621 q 851 754 846 713 q 860 853 857 801 l 192 853 l 192 1013 l 1033 1013 m 1169 379 l 56 379 l 56 526 l 1169 526 l 1169 379 z "},"근":{"ha":1192,"x_min":56,"x_max":1136,"o":"m 1136 375 l 56 375 l 56 518 l 744 518 q 775 636 764 581 q 792 733 786 692 q 796 780 794 757 q 797 825 797 803 l 171 825 l 171 985 l 981 985 l 981 826 q 975 741 981 786 q 961 653 969 696 q 944 576 953 611 q 931 518 936 540 l 1136 518 l 1136 375 m 1035 -143 l 160 -143 l 160 274 l 331 274 l 331 35 l 1035 35 l 1035 -143 z "},"귿":{"ha":1192,"x_min":56,"x_max":1136,"o":"m 1136 375 l 56 375 l 56 518 l 743 518 q 776 638 765 582 q 792 736 786 694 q 796 783 794 760 q 797 825 797 806 l 171 825 l 171 985 l 981 985 l 981 825 q 972 740 979 786 q 957 649 965 693 q 941 570 949 606 q 929 518 933 535 l 1136 518 l 1136 375 m 1011 124 l 386 124 l 386 -15 l 1011 -15 l 1011 -156 l 190 -156 l 190 264 l 1011 264 l 1011 124 z "},"글":{"ha":1181,"x_min":56,"x_max":1125,"o":"m 158 -169 l 158 149 l 811 149 l 811 207 l 158 207 l 158 321 l 1007 321 l 1007 18 l 338 18 l 338 -40 l 1007 -40 l 1007 -171 l 153 -171 l 158 -169 m 1125 553 l 1125 404 l 56 404 l 56 553 l 743 553 q 772 665 763 613 q 786 756 782 717 q 790 839 792 801 l 164 839 l 164 999 l 974 999 l 974 853 q 967 776 972 818 q 954 692 961 733 q 940 615 947 651 q 926 553 932 578 l 1125 553 z "},"긁":{"ha":1181,"x_min":56,"x_max":1125,"o":"m 1125 567 l 1125 418 l 56 418 l 56 567 l 747 567 q 774 675 765 625 q 786 761 782 725 q 790 839 790 804 l 164 839 l 164 999 l 974 999 l 974 853 q 966 781 972 819 q 952 703 960 742 q 936 628 944 664 q 921 567 928 593 l 1125 567 m 604 -42 l 604 -153 l 178 -153 l 178 129 l 415 129 l 415 199 l 178 199 l 178 311 l 542 311 l 542 33 l 319 33 l 319 -42 l 604 -42 m 589 293 l 990 293 l 990 156 q 985 51 990 106 q 975 -50 981 -4 q 969 -103 972 -78 q 961 -156 965 -129 l 804 -156 q 817 -55 813 -108 q 824 44 821 -1 l 828 150 l 589 150 l 589 293 z "},"금":{"ha":1192,"x_min":56,"x_max":1136,"o":"m 1010 297 l 1010 -133 l 182 -133 l 182 297 l 1010 297 m 990 1003 l 990 832 q 982 727 990 776 q 964 640 974 678 q 939 560 953 593 l 767 560 q 799 658 788 608 q 814 746 810 707 q 818 832 821 792 l 219 832 l 219 1003 l 990 1003 m 1136 375 l 56 375 l 56 518 l 1136 518 l 1136 375 m 868 147 l 333 147 l 333 17 l 868 17 l 868 147 z "},"급":{"ha":1192,"x_min":56,"x_max":1136,"o":"m 1136 389 l 56 389 l 56 532 l 749 532 q 778 647 768 594 q 793 740 789 700 q 797 825 799 786 l 171 825 l 171 985 l 981 985 l 981 839 q 972 758 979 803 q 956 672 965 714 q 937 592 946 629 q 922 532 928 554 l 1136 532 l 1136 389 m 997 -154 l 171 -154 l 171 304 l 346 304 l 346 189 l 831 189 l 831 304 l 997 304 l 997 -154 m 346 -18 l 831 -18 l 831 64 l 346 64 l 346 -18 z "},"긋":{"ha":1192,"x_min":56,"x_max":1136,"o":"m 1136 363 l 56 363 l 56 518 l 743 518 q 776 638 765 582 q 792 736 786 694 q 796 783 794 760 q 797 825 797 806 l 171 825 l 171 985 l 981 985 l 981 839 q 971 750 979 799 q 952 656 963 701 q 932 572 942 610 q 918 518 922 535 l 1136 518 l 1136 363 m 685 274 q 741 151 707 213 q 813 32 775 89 q 886 -74 850 -25 q 950 -157 922 -124 l 749 -157 q 702 -92 728 -129 q 653 -19 676 -54 q 626 21 639 0 q 600 64 614 42 l 442 -157 l 229 -157 q 345 -6 293 -82 q 435 133 397 71 q 476 204 457 169 q 514 274 496 239 l 685 274 z "},"긍":{"ha":1192,"x_min":56,"x_max":1136,"o":"m 822 276 q 967 231 918 276 q 1017 118 1017 185 l 1017 8 q 1003 -62 1017 -32 q 966 -114 989 -93 q 913 -146 943 -135 q 851 -157 883 -157 l 326 -157 q 263 -147 293 -157 q 210 -117 232 -136 q 174 -69 188 -97 q 161 -4 161 -40 l 161 111 q 181 181 161 150 q 231 233 201 213 q 296 265 261 254 q 358 276 331 276 l 822 276 m 1136 400 l 56 400 l 56 546 l 742 546 q 774 662 764 610 q 790 750 785 714 q 794 791 793 772 q 796 825 796 810 l 171 825 l 171 985 l 981 985 l 981 839 q 971 754 979 799 q 953 669 963 710 q 934 595 943 628 q 921 546 925 563 l 1136 546 l 1136 400 m 411 128 q 356 108 371 128 q 340 74 340 89 l 340 31 q 362 -12 340 -1 q 411 -22 383 -22 l 796 -22 q 836 -2 821 -22 q 851 38 851 18 l 851 71 q 838 110 851 92 q 786 128 824 128 l 411 128 z "},"긔":{"ha":1153,"x_min":56,"x_max":1056,"o":"m 719 922 l 719 753 q 703 549 719 638 q 666 398 688 461 q 621 294 644 335 q 582 233 597 254 q 756 276 682 254 q 858 310 831 299 l 858 1013 l 1056 1013 l 1056 -157 l 861 -157 l 861 185 q 749 108 810 139 q 622 56 688 76 q 488 24 556 35 q 357 8 419 13 q 56 13 210 -1 l 56 210 q 217 194 132 194 q 389 203 301 193 q 457 362 432 279 q 494 521 482 444 q 510 660 507 597 q 514 758 514 722 l 107 758 l 107 922 l 719 922 z "},"기":{"ha":1081,"x_min":56,"x_max":983,"o":"m 657 908 l 657 771 q 624 626 650 697 q 558 490 597 556 q 472 363 519 424 q 376 251 425 303 q 255 134 318 190 q 121 25 192 78 l 121 257 q 252 381 193 315 q 354 510 311 446 q 424 631 397 574 q 458 731 450 688 l 56 731 l 56 908 l 657 908 m 983 -156 l 800 -156 l 800 999 l 983 999 l 983 -156 z "},"긱":{"ha":1110,"x_min":28,"x_max":1013,"o":"m 589 935 l 592 794 q 569 603 590 682 q 519 474 547 525 q 485 419 504 443 q 447 375 467 394 l 264 375 q 337 484 310 425 q 378 599 364 543 q 398 705 393 656 q 403 786 403 754 l 28 786 l 28 935 l 589 935 m 840 1014 l 1013 1014 l 1013 360 l 840 360 l 840 1014 m 194 231 l 1007 231 l 1007 82 q 997 -10 1006 33 q 979 -85 989 -53 q 954 -156 968 -122 l 778 -156 q 812 -69 801 -112 q 828 7 822 -26 q 832 45 831 26 q 833 82 833 64 l 194 82 l 194 231 z "},"긴":{"ha":1144,"x_min":28,"x_max":1051,"o":"m 589 935 l 592 794 q 569 603 590 682 q 519 474 547 525 q 485 419 504 443 q 447 375 467 394 l 264 375 q 337 484 310 425 q 378 599 364 543 q 398 705 393 656 q 403 786 403 754 l 28 786 l 28 935 l 589 935 m 869 1013 l 1047 1013 l 1047 285 l 869 285 l 869 1013 m 1051 -156 l 219 -156 l 219 228 l 394 228 l 394 7 l 1051 7 l 1051 -156 z "},"긷":{"ha":1088,"x_min":28,"x_max":1008,"o":"m 589 935 l 592 794 q 569 603 590 682 q 519 474 547 525 q 485 419 504 443 q 447 375 467 394 l 264 375 q 337 484 310 425 q 378 599 364 543 q 398 705 393 656 q 403 786 403 754 l 28 786 l 28 935 l 589 935 m 826 1014 l 990 1014 l 990 360 l 826 360 l 826 1014 m 1004 122 l 358 122 l 358 -7 l 1008 -7 l 1008 -156 l 174 -156 l 174 269 l 1004 269 l 1004 122 z "},"길":{"ha":1081,"x_min":28,"x_max":983,"o":"m 585 968 l 585 839 q 573 713 585 775 q 543 594 561 650 q 503 490 525 538 q 464 410 482 443 l 268 410 q 334 526 308 469 q 374 633 360 582 q 394 731 389 685 q 399 818 399 778 l 28 818 l 28 968 l 585 968 m 983 379 l 824 379 l 824 1013 l 983 1013 l 983 379 m 129 -156 l 129 157 l 783 157 l 783 219 l 129 219 l 129 332 l 978 332 l 978 31 l 307 31 l 307 -31 l 978 -31 l 978 -157 l 125 -157 l 129 -156 z "},"긺":{"ha":1081,"x_min":28,"x_max":983,"o":"m 585 968 l 585 839 q 573 713 585 775 q 543 594 561 650 q 503 490 525 538 q 464 410 482 443 l 268 410 q 334 526 308 469 q 374 633 360 582 q 394 731 389 685 q 399 818 399 778 l 28 818 l 28 968 l 585 968 m 983 379 l 824 379 l 824 1013 l 983 1013 l 983 379 m 567 325 l 981 325 l 981 -156 l 567 -156 l 567 -139 l 140 -139 l 140 143 l 378 143 l 378 213 l 140 213 l 140 325 l 504 325 l 504 47 l 282 47 l 282 -28 l 567 -28 l 567 325 m 853 -28 l 853 213 l 693 213 l 693 -28 l 853 -28 z "},"김":{"ha":1060,"x_min":28,"x_max":968,"o":"m 589 935 l 592 794 q 569 603 590 682 q 519 474 547 525 q 485 419 504 443 q 447 375 467 394 l 264 375 q 337 484 310 425 q 378 599 364 543 q 398 705 393 656 q 403 786 403 754 l 28 786 l 28 935 l 589 935 m 799 1013 l 963 1013 l 963 360 l 799 360 l 799 1013 m 151 268 l 968 268 l 968 -156 l 151 -156 l 151 268 m 838 -8 l 838 122 l 299 122 l 299 -8 l 838 -8 z "},"깁":{"ha":1074,"x_min":28,"x_max":981,"o":"m 589 935 l 592 794 q 569 603 590 682 q 519 474 547 525 q 485 419 504 443 q 447 375 467 394 l 264 375 q 337 484 310 425 q 378 599 364 543 q 398 705 393 656 q 403 786 403 754 l 28 786 l 28 935 l 589 935 m 799 1013 l 976 1013 l 976 360 l 799 360 l 799 1013 m 981 -156 l 181 -156 l 181 288 l 357 288 l 357 174 l 804 174 l 804 288 l 981 288 l 981 -156 m 357 -33 l 804 -33 l 804 64 l 357 64 l 357 -33 z "},"깃":{"ha":1131,"x_min":28,"x_max":1039,"o":"m 603 935 l 606 794 q 583 600 604 682 q 533 460 561 518 q 499 399 518 426 q 461 347 481 371 l 278 347 q 351 460 324 397 q 394 585 379 524 q 413 701 408 647 q 417 786 417 754 l 28 786 l 28 935 l 603 935 m 856 1011 l 1033 1011 l 1033 285 l 856 285 l 856 1011 m 774 272 q 830 150 796 211 q 901 32 864 89 q 976 -74 939 -25 q 1039 -156 1013 -122 l 838 -156 q 791 -90 817 -128 q 742 -17 765 -51 q 715 24 728 3 q 689 67 703 44 l 531 -156 l 318 -156 q 434 -4 382 -81 q 524 135 486 72 q 565 206 546 171 q 603 274 585 240 l 774 272 z "},"깅":{"ha":1074,"x_min":28,"x_max":1004,"o":"m 589 935 l 592 794 q 569 603 590 682 q 519 474 547 525 q 485 419 504 443 q 447 375 467 394 l 264 375 q 337 484 310 425 q 378 599 364 543 q 398 705 393 656 q 403 786 403 754 l 28 786 l 28 935 l 589 935 m 813 1013 l 976 1013 l 976 360 l 813 360 l 813 1013 m 825 243 q 952 208 900 243 q 1004 96 1004 174 l 1004 -4 q 960 -115 1004 -75 q 840 -156 915 -156 l 303 -156 q 181 -113 226 -156 q 136 -11 136 -71 l 136 94 q 153 163 136 135 q 197 209 171 192 q 255 235 224 226 q 315 243 286 243 l 825 243 m 378 94 q 326 83 338 94 q 314 56 315 71 l 313 19 q 332 -16 313 -11 q 379 -21 351 -21 l 779 -21 q 822 -10 804 -21 q 840 21 840 1 l 840 47 q 822 81 840 67 q 776 94 804 94 l 378 94 z "},"깆":{"ha":1060,"x_min":28,"x_max":989,"o":"m 589 935 l 592 794 q 569 603 590 682 q 519 474 547 525 q 485 419 504 443 q 447 375 467 394 l 264 375 q 337 484 310 425 q 378 599 364 543 q 398 705 393 656 q 403 786 403 754 l 28 786 l 28 935 l 589 935 m 799 1013 l 963 1013 l 963 360 l 799 360 l 799 1013 m 196 138 l 196 281 l 981 281 l 981 138 l 707 138 q 822 38 747 76 q 989 -32 897 0 l 989 -153 q 889 -132 944 -147 q 778 -91 833 -117 q 673 -28 722 -65 q 590 57 624 8 q 399 -84 494 -33 q 192 -171 303 -135 l 192 -33 q 266 1 229 -19 q 337 44 303 21 q 402 90 371 67 q 458 138 433 114 l 196 138 z "},"깊":{"ha":1107,"x_min":28,"x_max":1025,"o":"m 881 122 l 835 -17 l 1025 -17 l 1025 -156 l 149 -156 l 149 -17 l 338 -17 l 290 122 l 149 122 l 149 260 l 1014 260 l 1014 122 l 881 122 m 588 792 q 565 603 586 682 q 515 474 543 525 q 482 419 500 443 q 444 375 464 394 l 260 375 q 335 482 307 424 q 377 597 363 540 q 396 703 392 654 q 400 785 400 753 l 28 785 l 28 931 l 585 931 l 588 792 m 1010 353 l 838 353 l 838 1013 l 1010 1013 l 1010 353 m 713 122 l 460 122 l 508 -17 l 664 -17 l 713 122 z "},"까":{"ha":1221,"x_min":69,"x_max":1193,"o":"m 747 781 q 706 519 747 635 q 604 317 664 403 q 480 176 544 232 q 369 96 415 121 l 369 257 q 461 369 424 311 q 523 490 499 426 q 560 624 547 554 q 576 771 572 693 l 426 771 q 405 618 422 689 q 362 488 388 547 q 304 381 336 429 q 240 294 272 332 q 159 213 201 250 q 69 146 117 176 l 69 306 q 208 517 165 401 q 260 771 250 632 l 69 771 l 69 917 l 747 917 l 747 781 m 1193 622 l 1193 443 l 1019 443 l 1019 -157 l 840 -157 l 840 997 l 1019 997 l 1019 622 l 1193 622 z "},"깍":{"ha":1169,"x_min":69,"x_max":1142,"o":"m 1142 761 l 1142 597 l 985 597 l 985 343 l 819 343 l 819 1014 l 985 1014 l 985 761 l 1142 761 m 154 256 l 990 256 l 990 97 q 960 -81 983 -8 q 947 -119 953 -100 q 933 -156 940 -137 l 763 -156 q 799 -65 786 -110 q 817 17 811 -19 q 821 58 819 38 q 822 97 822 78 l 154 97 l 154 256 m 729 942 l 729 819 q 696 651 729 731 q 613 509 663 572 q 506 402 563 446 q 403 342 449 358 l 403 504 q 462 572 436 535 q 506 647 488 608 q 535 724 525 685 q 544 796 544 763 l 408 796 q 386 692 403 740 q 345 601 369 643 q 292 525 321 560 q 235 463 264 490 q 83 351 164 396 l 83 522 q 185 643 149 581 q 228 796 221 706 l 69 796 l 69 942 l 729 942 z "},"깎":{"ha":1167,"x_min":69,"x_max":1139,"o":"m 729 956 l 729 833 q 696 665 729 744 q 613 523 663 586 q 506 416 563 460 q 403 356 449 372 l 403 518 q 462 585 436 549 q 506 660 488 622 q 535 738 525 699 q 544 810 544 776 l 408 810 q 386 706 403 754 q 345 615 369 657 q 292 539 321 574 q 235 476 264 504 q 83 365 164 410 l 83 536 q 185 657 149 594 q 228 810 221 719 l 69 810 l 69 956 l 729 956 m 154 254 l 990 254 l 990 108 q 981 10 989 57 q 961 -74 972 -37 q 947 -115 954 -96 q 933 -154 940 -135 l 763 -154 q 799 -63 786 -108 q 817 18 811 -18 q 821 97 822 60 l 615 97 q 611 57 614 76 q 606 18 608 38 q 597 -29 601 -7 q 586 -71 592 -51 q 572 -115 579 -94 q 558 -154 565 -135 l 386 -154 q 416 -75 406 -118 q 433 7 426 -32 q 439 53 436 31 q 443 97 442 75 l 154 97 l 154 254 m 1139 763 l 1139 599 l 985 599 l 985 346 l 810 346 l 810 1014 l 985 1014 l 985 763 l 1139 763 z "},"깐":{"ha":1150,"x_min":69,"x_max":1122,"o":"m 701 942 l 701 819 q 670 651 701 731 q 592 509 639 572 q 490 402 544 446 q 389 342 435 358 l 389 504 q 446 572 422 535 q 485 647 469 608 q 509 724 501 685 q 517 796 517 763 l 394 796 q 373 692 389 740 q 334 601 357 643 q 283 525 311 560 q 228 463 256 490 q 83 351 160 397 l 83 522 q 178 643 149 581 q 214 796 207 706 l 69 796 l 69 942 l 701 942 m 972 688 l 1122 688 l 1122 532 l 972 532 l 972 224 l 801 224 l 801 1014 l 972 1014 l 972 688 m 1013 -143 l 182 -143 l 182 256 l 356 256 l 356 21 l 1013 21 l 1013 -143 z "},"깔":{"ha":1179,"x_min":69,"x_max":1151,"o":"m 715 956 l 715 833 q 684 667 715 744 q 606 530 653 590 q 503 428 558 469 q 403 369 449 386 l 403 532 q 500 668 469 594 q 531 810 531 742 l 408 810 q 386 706 403 754 q 345 617 369 658 q 292 543 321 576 q 235 483 264 510 q 83 379 165 419 l 83 550 q 141 606 115 579 q 185 664 167 633 q 215 730 204 694 q 228 810 225 765 l 69 810 l 69 956 l 715 956 m 1151 768 l 1151 604 l 992 604 l 992 388 l 829 388 l 829 1014 l 992 1014 l 992 768 l 1151 768 m 179 -171 l 179 136 l 810 136 l 810 200 l 179 200 l 179 318 l 1003 318 l 1003 13 l 356 13 l 356 -46 l 1003 -46 l 1003 -171 l 179 -171 z "},"깖":{"ha":1179,"x_min":69,"x_max":1151,"o":"m 715 956 l 715 833 q 684 667 715 744 q 606 530 653 590 q 503 428 558 469 q 403 369 449 386 l 403 532 q 500 668 469 594 q 531 810 531 742 l 408 810 q 386 706 403 754 q 345 617 369 658 q 292 543 321 576 q 235 483 264 510 q 83 379 165 419 l 83 550 q 141 606 115 579 q 185 664 167 633 q 215 730 204 694 q 228 810 225 765 l 69 810 l 69 956 l 715 956 m 1151 768 l 1151 604 l 992 604 l 992 388 l 829 388 l 829 1014 l 992 1014 l 992 768 l 1151 768 m 585 311 l 999 311 l 999 -169 l 585 -169 l 585 -153 l 158 -153 l 158 129 l 396 129 l 396 199 l 158 199 l 158 311 l 522 311 l 522 33 l 300 33 l 300 -42 l 585 -42 l 585 311 m 871 -42 l 871 199 l 711 199 l 711 -42 l 871 -42 z "},"깜":{"ha":1169,"x_min":69,"x_max":1142,"o":"m 1142 735 l 1142 571 l 985 571 l 985 328 l 819 328 l 819 1014 l 985 1014 l 985 735 l 1142 735 m 181 265 l 988 265 l 988 -156 l 181 -156 l 181 265 m 836 -10 l 836 121 l 325 121 l 325 -10 l 836 -10 m 729 956 l 729 833 q 696 665 729 744 q 613 523 663 586 q 506 416 563 460 q 403 356 449 372 l 403 518 q 462 585 436 549 q 506 660 488 622 q 535 738 525 699 q 544 810 544 776 l 408 810 q 386 706 403 754 q 345 615 369 657 q 292 539 321 574 q 235 476 264 504 q 83 365 164 410 l 83 536 q 185 657 149 594 q 228 810 221 719 l 69 810 l 69 956 l 729 956 z "},"깝":{"ha":1169,"x_min":69,"x_max":1142,"o":"m 715 957 l 715 835 q 682 667 715 746 q 599 524 649 588 q 492 417 549 461 q 389 357 435 374 l 389 519 q 448 587 422 550 q 492 662 474 624 q 521 739 511 700 q 531 811 531 778 l 408 811 q 386 707 403 756 q 345 617 369 658 q 292 540 321 575 q 235 478 264 506 q 83 367 164 411 l 83 538 q 185 658 149 596 q 228 811 221 721 l 69 811 l 69 957 l 715 957 m 1142 776 l 1142 613 l 985 613 l 985 356 l 819 356 l 819 1014 l 985 1014 l 985 776 l 1142 776 m 989 -156 l 217 -156 l 217 288 l 393 288 l 393 190 l 822 190 l 822 288 l 989 288 l 989 -156 m 393 -29 l 822 -29 l 822 68 l 393 68 l 393 -29 z "},"깟":{"ha":1163,"x_min":69,"x_max":1135,"o":"m 729 928 l 729 806 q 696 638 729 717 q 613 495 663 558 q 506 388 563 432 q 403 328 449 344 l 403 490 q 462 558 436 521 q 506 633 488 594 q 535 710 525 671 q 544 782 544 749 l 408 782 q 386 678 403 726 q 345 588 369 629 q 292 511 321 546 q 235 449 264 476 q 83 338 164 382 l 83 508 q 185 629 149 567 q 228 782 221 692 l 69 782 l 69 928 l 729 928 m 986 701 l 1135 701 l 1135 546 l 986 546 l 986 265 l 819 265 l 819 1014 l 986 1014 l 986 701 m 740 272 q 797 149 763 211 q 868 31 831 88 q 942 -75 906 -26 q 1006 -157 979 -124 l 804 -157 q 758 -92 783 -129 q 708 -19 732 -54 q 682 21 694 0 q 656 64 669 42 l 497 -157 l 285 -157 q 401 -6 349 -82 q 490 133 453 71 q 532 204 513 169 q 569 272 551 239 l 740 272 z "},"깠":{"ha":1172,"x_min":69,"x_max":1144,"o":"m 1144 776 l 1144 613 l 988 613 l 988 369 l 822 369 l 822 1014 l 988 1014 l 988 776 l 1144 776 m 892 272 q 908 206 896 240 q 938 137 921 172 q 975 66 954 101 q 1017 -3 996 31 q 1068 -79 1040 -42 q 1126 -156 1096 -117 l 943 -156 q 901 -100 919 -125 q 868 -51 883 -75 q 840 -1 853 -26 q 811 58 826 25 q 792 13 806 39 q 762 -43 779 -14 q 723 -101 744 -72 q 678 -156 701 -131 l 492 -156 q 538 -111 521 -132 q 576 -61 556 -90 q 540 -15 557 -37 q 510 24 522 7 l 482 60 q 461 10 475 38 q 428 -45 447 -17 q 388 -102 410 -74 q 344 -156 367 -131 l 151 -156 q 251 -37 207 -99 q 326 83 294 25 q 378 191 358 142 q 404 274 397 240 l 567 274 q 593 165 575 214 q 653 54 611 115 q 703 174 685 114 q 731 272 722 235 l 892 272 m 729 942 l 729 819 q 696 651 729 731 q 613 509 663 572 q 506 402 563 446 q 403 342 449 358 l 403 504 q 462 572 436 535 q 506 647 488 608 q 535 724 525 685 q 544 796 544 763 l 408 796 q 386 692 403 740 q 345 601 369 643 q 292 525 321 560 q 235 463 264 490 q 83 351 164 396 l 83 522 q 185 643 149 581 q 228 796 221 706 l 69 796 l 69 942 l 729 942 z "},"깡":{"ha":1169,"x_min":69,"x_max":1142,"o":"m 1142 749 l 1142 585 l 985 585 l 985 342 l 819 342 l 819 1014 l 985 1014 l 985 749 l 1142 749 m 819 253 q 889 244 857 253 q 945 216 921 235 q 983 169 969 197 q 997 103 997 140 l 997 -10 q 985 -65 997 -39 q 953 -112 974 -92 q 906 -145 933 -133 q 846 -157 878 -157 l 299 -157 q 189 -115 232 -157 q 146 -3 146 -74 l 146 108 q 199 220 146 188 q 340 253 251 253 l 819 253 m 833 61 q 819 93 833 82 q 785 104 804 104 l 383 104 q 334 90 343 104 q 325 63 325 76 l 325 15 q 340 -14 325 -6 q 383 -22 356 -22 l 786 -22 q 833 19 833 -22 l 833 61 m 729 942 l 729 819 q 696 651 729 731 q 613 509 663 572 q 506 402 563 446 q 403 342 449 358 l 403 504 q 462 572 436 535 q 506 647 488 608 q 535 724 525 685 q 544 796 544 763 l 408 796 q 386 692 403 740 q 345 601 369 643 q 292 525 321 560 q 235 463 264 490 q 83 351 164 396 l 83 522 q 185 643 149 581 q 228 796 221 706 l 69 796 l 69 942 l 729 942 z "},"깥":{"ha":1179,"x_min":69,"x_max":1151,"o":"m 214 -156 l 214 311 l 988 311 l 988 190 l 397 190 l 397 131 l 988 131 l 988 13 l 397 13 l 397 -46 l 988 -46 l 988 -156 l 214 -156 m 715 956 l 715 833 q 684 667 715 744 q 606 530 653 590 q 503 428 558 469 q 403 369 449 386 l 403 532 q 500 668 469 594 q 531 810 531 742 l 408 810 q 386 706 403 754 q 345 617 369 658 q 292 543 321 576 q 235 483 264 510 q 83 379 165 419 l 83 550 q 141 606 115 579 q 185 664 167 633 q 215 730 204 694 q 228 810 225 765 l 69 810 l 69 956 l 715 956 m 1151 768 l 1151 604 l 992 604 l 992 388 l 829 388 l 829 1014 l 992 1014 l 992 768 l 1151 768 z "},"깨":{"ha":1249,"x_min":69,"x_max":1151,"o":"m 664 917 l 664 767 q 628 507 664 621 q 542 310 593 393 q 432 174 490 226 q 328 96 374 121 l 328 271 q 413 381 382 325 q 461 498 444 438 q 483 626 478 558 q 493 771 489 693 l 385 771 q 365 618 381 689 q 327 488 350 547 q 276 380 304 428 q 219 294 249 332 q 149 213 186 250 q 69 146 111 176 l 69 319 q 144 417 117 367 q 187 524 172 468 q 208 640 201 579 q 218 771 214 701 l 69 771 l 69 917 l 664 917 m 1000 1000 l 1151 1000 l 1151 -143 l 1000 -143 l 1000 461 l 888 461 l 888 -143 l 719 -143 l 719 1000 l 888 1000 l 888 624 l 1000 624 l 1000 1000 z "},"깩":{"ha":1222,"x_min":69,"x_max":1125,"o":"m 632 928 l 632 806 q 605 640 632 717 q 536 502 578 563 q 444 400 494 442 q 347 342 393 358 l 347 504 q 437 641 413 565 q 461 785 461 717 l 367 785 q 303 594 350 671 q 204 469 257 518 q 140 419 174 442 q 71 379 107 397 l 71 550 q 160 658 133 596 q 188 785 186 721 l 69 785 l 69 928 l 632 928 m 967 1013 l 1125 1013 l 1125 324 l 967 324 l 967 572 l 864 572 l 864 324 l 706 324 l 706 1013 l 864 1013 l 864 706 l 967 706 l 967 1013 m 272 257 l 1121 257 l 1121 107 l 1119 107 q 1109 7 1118 54 q 1089 -76 1100 -40 q 1060 -156 1074 -121 l 872 -156 q 908 -61 896 -108 q 926 24 921 -14 q 931 67 929 46 q 932 107 932 88 l 272 107 l 272 257 z "},"깬":{"ha":1210,"x_min":69,"x_max":1131,"o":"m 632 928 l 632 806 q 605 640 632 717 q 536 502 578 563 q 444 400 494 442 q 347 342 393 358 l 347 504 q 437 641 413 565 q 461 785 461 717 l 367 785 q 303 594 350 671 q 204 469 257 518 q 140 419 174 442 q 71 379 107 397 l 71 550 q 160 658 133 596 q 188 785 186 721 l 69 785 l 69 928 l 632 928 m 954 1013 l 1113 1013 l 1113 283 l 954 283 l 954 600 l 863 600 l 863 283 l 703 283 l 703 1013 l 863 1013 l 863 733 l 954 733 l 954 1013 m 1131 -128 l 294 -128 l 294 251 l 479 251 l 479 26 l 1131 26 l 1131 -128 z "},"깰":{"ha":1224,"x_min":69,"x_max":1126,"o":"m 646 956 l 646 833 q 617 667 646 744 q 543 530 588 590 q 446 428 499 469 q 347 369 393 386 l 347 532 q 437 669 413 593 q 461 813 461 744 l 367 813 q 303 622 350 699 q 204 497 257 546 q 140 447 174 469 q 71 407 107 425 l 71 578 q 160 686 133 624 q 188 813 186 749 l 69 813 l 69 956 l 646 956 m 972 1013 l 1126 1013 l 1126 368 l 972 368 l 972 594 l 856 594 l 856 368 l 701 368 l 701 1013 l 856 1013 l 856 726 l 972 726 l 972 1013 m 292 -157 l 292 149 l 936 149 l 936 207 l 292 207 l 292 321 l 1125 321 l 1125 26 l 465 26 l 465 -31 l 1125 -31 l 1125 -157 l 292 -157 z "},"깸":{"ha":1224,"x_min":69,"x_max":1126,"o":"m 632 928 l 632 806 q 605 640 632 717 q 536 502 578 563 q 444 400 494 442 q 347 342 393 358 l 347 504 q 437 641 413 565 q 461 785 461 717 l 367 785 q 303 594 350 671 q 204 469 257 518 q 140 419 174 442 q 71 379 107 397 l 71 550 q 160 658 133 596 q 188 785 186 721 l 69 785 l 69 928 l 632 928 m 968 1013 l 1126 1013 l 1126 338 l 968 338 l 968 572 l 865 572 l 865 338 l 707 338 l 707 1013 l 865 1013 l 865 706 l 968 706 l 968 1013 m 296 268 l 1121 268 l 1121 -149 l 296 -149 l 296 268 m 968 1 l 968 118 l 447 118 l 447 1 l 968 1 z "},"깹":{"ha":1224,"x_min":69,"x_max":1126,"o":"m 632 956 l 632 833 q 605 665 632 744 q 536 521 578 585 q 444 413 494 457 q 347 353 393 369 l 347 515 q 402 583 381 546 q 437 660 424 621 q 456 740 450 700 q 461 813 461 779 l 367 813 q 303 619 350 700 q 204 489 257 539 q 140 434 174 458 q 71 390 107 410 l 71 561 q 124 614 101 583 q 160 678 146 644 q 181 746 174 711 q 188 813 188 781 l 69 813 l 69 956 l 632 956 m 968 1013 l 1126 1013 l 1126 331 l 968 331 l 968 596 l 864 596 l 864 331 l 693 331 l 693 1013 l 864 1013 l 864 729 l 968 729 l 968 1013 m 1121 -153 l 265 -153 l 265 281 l 453 281 l 453 193 l 954 193 l 954 281 l 1121 281 l 1121 -153 m 453 -26 l 954 -26 l 954 69 l 453 69 l 453 -26 z "},"깻":{"ha":1210,"x_min":69,"x_max":1113,"o":"m 632 956 l 632 833 q 605 661 632 744 q 536 509 578 578 q 444 392 494 440 q 347 328 393 344 l 347 493 q 402 565 381 524 q 437 649 424 606 q 456 736 450 693 q 461 813 461 779 l 358 813 q 342 713 356 760 q 309 624 329 665 q 265 547 289 582 q 217 483 242 513 q 156 419 189 449 q 88 364 124 390 l 85 532 q 169 678 147 607 q 193 813 192 749 l 69 813 l 69 956 l 632 956 m 954 1013 l 1113 1013 l 1113 324 l 954 324 l 954 614 l 863 614 l 863 324 l 690 324 l 690 1013 l 863 1013 l 863 747 l 954 747 l 954 1013 m 789 247 q 845 146 811 200 q 917 38 879 92 q 994 -67 956 -17 q 1067 -156 1033 -117 l 861 -156 q 776 -51 815 -100 q 701 53 738 -1 q 625 -53 667 4 q 540 -156 583 -111 l 325 -156 q 451 -9 396 -81 q 544 121 506 63 q 624 246 590 188 l 789 247 z "},"깼":{"ha":1194,"x_min":69,"x_max":1142,"o":"m 628 956 l 628 833 q 601 665 628 744 q 532 523 574 586 q 440 417 490 460 q 343 357 389 374 l 343 519 q 398 587 376 550 q 433 663 419 624 q 451 740 446 701 q 457 813 457 779 l 365 813 q 302 622 349 699 q 203 497 256 546 q 139 447 172 469 q 69 407 106 425 l 69 574 q 158 684 132 619 q 186 813 185 749 l 79 813 l 79 956 l 628 956 m 939 1013 l 1097 1013 l 1097 324 l 939 324 l 939 572 l 836 572 l 836 324 l 678 324 l 678 1013 l 836 1013 l 836 706 l 939 706 l 939 1013 m 917 244 q 960 119 925 188 q 1038 -11 996 51 q 1142 -157 1085 -85 l 953 -157 q 888 -60 921 -115 q 824 49 854 -4 q 809 18 817 33 q 792 -14 801 3 q 750 -79 775 -42 q 692 -157 725 -117 l 514 -157 q 543 -121 529 -137 q 576 -78 557 -104 q 542 -34 557 -57 q 517 8 528 -11 q 496 53 503 33 q 442 -51 472 -4 q 368 -157 411 -97 l 171 -157 q 319 61 267 -43 q 396 244 371 165 l 579 244 q 612 138 586 189 q 663 44 638 86 q 685 89 674 64 q 708 141 697 114 q 726 194 718 168 q 739 244 735 221 l 917 244 z "}}}
